<svg width="1017" height="225" viewBox="0 0 1017 225" fill="none" xmlns="http://www.w3.org/2000/svg">
<mask id="mask0_88_98" style="mask-type:alpha" maskUnits="userSpaceOnUse" x="0" y="0" width="1017" height="225">
<rect width="1017" height="225" fill="black"/>
</mask>
<g mask="url(#mask0_88_98)">
<path d="M1017 0H1V614H1017V0Z" fill="url(#paint0_linear_88_98)"/>
<path style="mix-blend-mode:overlay" d="M1078 76.4225H-140V561.109H1078V76.4225Z" fill="url(#paint1_linear_88_98)"/>
<path opacity="0.2" d="M1116 76.4225H-79V562.595H1116V76.4225Z" fill="url(#paint2_linear_88_98)"/>
</g>
<path d="M279.523 79.7422C282.258 82.2422 284.419 85.263 286.008 88.8047C287.622 92.3464 288.43 96.3828 288.43 100.914C288.43 104.951 287.753 108.792 286.398 112.438C285.044 116.083 283.091 119.221 280.539 121.852C277.857 124.586 274.706 126.721 271.086 128.258C267.466 129.768 263.156 130.523 258.156 130.523C254.12 130.523 250.305 129.859 246.711 128.531C243.117 127.203 239.953 125.276 237.219 122.75C234.51 120.276 232.362 117.268 230.773 113.727C229.185 110.185 228.391 106.24 228.391 101.891C228.391 97.3594 229.159 93.2578 230.695 89.5859C232.258 85.888 234.393 82.724 237.102 80.0938C239.784 77.5156 242.961 75.5365 246.633 74.1562C250.331 72.75 254.263 72.0469 258.43 72.0469C262.57 72.0469 266.451 72.724 270.07 74.0781C273.716 75.4323 276.867 77.3203 279.523 79.7422ZM269.484 119.391C270.656 117.021 271.503 114.339 272.023 111.344C272.544 108.349 272.805 104.964 272.805 101.188C272.805 97.9844 272.57 94.8724 272.102 91.8516C271.659 88.8047 270.891 86.0964 269.797 83.7266C268.677 81.3568 267.193 79.4557 265.344 78.0234C263.495 76.5911 261.19 75.875 258.43 75.875C253.716 75.875 250.135 78.1146 247.688 82.5938C245.24 87.0469 244.016 93.349 244.016 101.5C244.016 104.964 244.276 108.232 244.797 111.305C245.344 114.378 246.19 117.06 247.336 119.352C248.508 121.669 249.992 123.479 251.789 124.781C253.586 126.057 255.799 126.695 258.43 126.695C261.008 126.695 263.221 126.044 265.07 124.742C266.919 123.44 268.391 121.656 269.484 119.391ZM344.484 128.18L325.852 129.312L325.266 128.766V123.648H325.031C324.146 124.456 323.273 125.25 322.414 126.031C321.581 126.786 320.578 127.477 319.406 128.102C318.078 128.805 316.815 129.326 315.617 129.664C314.445 130.003 312.727 130.172 310.461 130.172C306.529 130.172 303.508 128.987 301.398 126.617C299.315 124.247 298.273 120.901 298.273 116.578V99C298.273 97.9844 298.078 97.1641 297.688 96.5391C297.297 95.888 296.776 95.3151 296.125 94.8203C295.604 94.4297 294.927 94.1562 294.094 94C293.26 93.8177 292.505 93.7005 291.828 93.6484V90.7969L310.773 89.7812L311.203 90.3672V116.344C311.203 119.026 311.711 121.005 312.727 122.281C313.768 123.557 315.188 124.195 316.984 124.195C318.833 124.195 320.487 123.714 321.945 122.75C323.43 121.786 324.51 120.758 325.188 119.664V98.6094C325.188 97.724 325.018 96.9297 324.68 96.2266C324.341 95.5234 323.846 94.9505 323.195 94.5078C322.727 94.1953 322.049 93.987 321.164 93.8828C320.305 93.7786 319.419 93.7005 318.508 93.6484V90.7969L337.453 89.7812L338.039 90.3672V120.523C338.039 121.435 338.221 122.216 338.586 122.867C338.951 123.492 339.484 124.026 340.188 124.469C340.682 124.781 341.32 125.003 342.102 125.133C342.909 125.237 343.703 125.302 344.484 125.328V128.18ZM386.555 97.3984C386.555 99.3776 385.943 101.122 384.719 102.633C383.495 104.117 381.88 104.859 379.875 104.859C377.974 104.859 376.359 104.378 375.031 103.414C373.729 102.451 373.078 101.031 373.078 99.1562C373.078 98.2448 373.143 97.5417 373.273 97.0469C373.404 96.526 373.521 96.0443 373.625 95.6016C372.427 95.6536 371.164 96.0703 369.836 96.8516C368.508 97.6328 367.336 98.6745 366.32 99.9766V121.422C366.32 122.333 366.464 123.089 366.75 123.688C367.036 124.286 367.518 124.755 368.195 125.094C368.768 125.38 369.693 125.628 370.969 125.836C372.271 126.018 373.208 126.122 373.781 126.148V129H347.648V126.148C348.299 126.096 348.951 126.031 349.602 125.953C350.279 125.849 350.852 125.719 351.32 125.562C352.154 125.276 352.727 124.833 353.039 124.234C353.352 123.635 353.508 122.854 353.508 121.891V99.1562C353.508 98.2188 353.286 97.3854 352.844 96.6562C352.401 95.901 351.867 95.3021 351.242 94.8594C350.773 94.5469 350.174 94.2865 349.445 94.0781C348.742 93.8698 347.961 93.7266 347.102 93.6484V90.7969L365.734 89.7812L366.32 90.3672V96.0312H366.477C368.273 93.9479 370.174 92.3203 372.18 91.1484C374.211 89.9505 376.32 89.3516 378.508 89.3516C380.93 89.3516 382.87 90.1068 384.328 91.6172C385.812 93.1016 386.555 95.0286 386.555 97.3984ZM470.188 129H439.992V125.953C441.398 125.849 443.052 125.602 444.953 125.211C446.854 124.794 447.805 124.286 447.805 123.688C447.805 123.479 447.779 123.245 447.727 122.984C447.701 122.724 447.596 122.372 447.414 121.93L442.688 110.445H423.547C423.104 111.513 422.609 112.763 422.062 114.195C421.542 115.628 421.086 116.904 420.695 118.023C420.201 119.482 419.901 120.536 419.797 121.188C419.719 121.839 419.68 122.294 419.68 122.555C419.68 123.388 420.305 124.104 421.555 124.703C422.831 125.276 424.94 125.693 427.883 125.953V129H405.148V125.953C406.008 125.901 406.971 125.771 408.039 125.562C409.133 125.328 409.992 125.016 410.617 124.625C411.685 124 412.583 123.232 413.312 122.32C414.068 121.409 414.693 120.328 415.188 119.078C418.208 111.76 421.229 104.43 424.25 97.0859C427.297 89.7422 430.656 81.6432 434.328 72.7891H442.141C447.245 85.3411 451.242 95.263 454.133 102.555C457.023 109.846 459.484 115.888 461.516 120.68C461.854 121.461 462.284 122.177 462.805 122.828C463.326 123.453 464.068 124.052 465.031 124.625C465.76 125.042 466.607 125.354 467.57 125.562C468.534 125.771 469.406 125.901 470.188 125.953V129ZM441.086 106.578L433.039 86.5L425.109 106.578H441.086ZM517.883 109.977C517.883 115.471 516.047 120.185 512.375 124.117C508.703 128.049 504.055 130.016 498.43 130.016C495.93 130.016 493.898 129.755 492.336 129.234C490.773 128.74 489.484 128.128 488.469 127.398H488.156V138.375C488.156 139.286 488.352 140.081 488.742 140.758C489.159 141.435 489.732 141.93 490.461 142.242C491.164 142.529 492.154 142.789 493.43 143.023C494.732 143.258 495.812 143.401 496.672 143.453V146.344H468.469V143.453C469.12 143.401 469.94 143.297 470.93 143.141C471.919 143.01 472.661 142.867 473.156 142.711C473.99 142.424 474.549 141.93 474.836 141.227C475.148 140.549 475.305 139.768 475.305 138.883V98.9219C475.227 98.0625 475.018 97.3073 474.68 96.6562C474.367 96.0052 473.859 95.4323 473.156 94.9375C472.635 94.599 471.945 94.3255 471.086 94.1172C470.227 93.8828 469.38 93.7266 468.547 93.6484V90.7969L487.57 89.7812L488.156 90.2891V94.625L488.469 94.7031C490.188 92.9583 492.089 91.6042 494.172 90.6406C496.281 89.6771 498.365 89.1953 500.422 89.1953C505.812 89.1953 510.07 91.1094 513.195 94.9375C516.32 98.7396 517.883 103.753 517.883 109.977ZM503.859 110.133C503.859 108.18 503.716 106.318 503.43 104.547C503.143 102.75 502.635 101.148 501.906 99.7422C501.203 98.3359 500.266 97.2161 499.094 96.3828C497.948 95.5495 496.542 95.1328 494.875 95.1328C493.182 95.1328 491.828 95.4323 490.812 96.0312C489.797 96.6042 488.911 97.3594 488.156 98.2969V120.445C488.312 120.966 488.612 121.643 489.055 122.477C489.497 123.284 489.94 123.935 490.383 124.43C491.034 125.133 491.776 125.654 492.609 125.992C493.443 126.331 494.354 126.5 495.344 126.5C497.922 126.5 499.979 125.12 501.516 122.359C503.078 119.573 503.859 115.497 503.859 110.133ZM570.539 109.977C570.539 115.471 568.703 120.185 565.031 124.117C561.359 128.049 556.711 130.016 551.086 130.016C548.586 130.016 546.555 129.755 544.992 129.234C543.43 128.74 542.141 128.128 541.125 127.398H540.812V138.375C540.812 139.286 541.008 140.081 541.398 140.758C541.815 141.435 542.388 141.93 543.117 142.242C543.82 142.529 544.81 142.789 546.086 143.023C547.388 143.258 548.469 143.401 549.328 143.453V146.344H521.125V143.453C521.776 143.401 522.596 143.297 523.586 143.141C524.576 143.01 525.318 142.867 525.812 142.711C526.646 142.424 527.206 141.93 527.492 141.227C527.805 140.549 527.961 139.768 527.961 138.883V98.9219C527.883 98.0625 527.674 97.3073 527.336 96.6562C527.023 96.0052 526.516 95.4323 525.812 94.9375C525.292 94.599 524.602 94.3255 523.742 94.1172C522.883 93.8828 522.036 93.7266 521.203 93.6484V90.7969L540.227 89.7812L540.812 90.2891V94.625L541.125 94.7031C542.844 92.9583 544.745 91.6042 546.828 90.6406C548.938 89.6771 551.021 89.1953 553.078 89.1953C558.469 89.1953 562.727 91.1094 565.852 94.9375C568.977 98.7396 570.539 103.753 570.539 109.977ZM556.516 110.133C556.516 108.18 556.372 106.318 556.086 104.547C555.799 102.75 555.292 101.148 554.562 99.7422C553.859 98.3359 552.922 97.2161 551.75 96.3828C550.604 95.5495 549.198 95.1328 547.531 95.1328C545.839 95.1328 544.484 95.4323 543.469 96.0312C542.453 96.6042 541.568 97.3594 540.812 98.2969V120.445C540.969 120.966 541.268 121.643 541.711 122.477C542.154 123.284 542.596 123.935 543.039 124.43C543.69 125.133 544.432 125.654 545.266 125.992C546.099 126.331 547.01 126.5 548 126.5C550.578 126.5 552.635 125.12 554.172 122.359C555.734 119.573 556.516 115.497 556.516 110.133ZM614.523 97.3984C614.523 99.3776 613.911 101.122 612.688 102.633C611.464 104.117 609.849 104.859 607.844 104.859C605.943 104.859 604.328 104.378 603 103.414C601.698 102.451 601.047 101.031 601.047 99.1562C601.047 98.2448 601.112 97.5417 601.242 97.0469C601.372 96.526 601.49 96.0443 601.594 95.6016C600.396 95.6536 599.133 96.0703 597.805 96.8516C596.477 97.6328 595.305 98.6745 594.289 99.9766V121.422C594.289 122.333 594.432 123.089 594.719 123.688C595.005 124.286 595.487 124.755 596.164 125.094C596.737 125.38 597.661 125.628 598.938 125.836C600.24 126.018 601.177 126.122 601.75 126.148V129H575.617V126.148C576.268 126.096 576.919 126.031 577.57 125.953C578.247 125.849 578.82 125.719 579.289 125.562C580.122 125.276 580.695 124.833 581.008 124.234C581.32 123.635 581.477 122.854 581.477 121.891V99.1562C581.477 98.2188 581.255 97.3854 580.812 96.6562C580.37 95.901 579.836 95.3021 579.211 94.8594C578.742 94.5469 578.143 94.2865 577.414 94.0781C576.711 93.8698 575.93 93.7266 575.07 93.6484V90.7969L593.703 89.7812L594.289 90.3672V96.0312H594.445C596.242 93.9479 598.143 92.3203 600.148 91.1484C602.18 89.9505 604.289 89.3516 606.477 89.3516C608.898 89.3516 610.839 90.1068 612.297 91.6172C613.781 93.1016 614.523 95.0286 614.523 97.3984ZM657.141 94.8594C659.068 96.6562 660.539 98.8047 661.555 101.305C662.57 103.805 663.078 106.513 663.078 109.43C663.078 112.32 662.57 115.055 661.555 117.633C660.565 120.185 659.107 122.372 657.18 124.195C655.122 126.148 652.661 127.646 649.797 128.688C646.958 129.729 643.703 130.25 640.031 130.25C636.854 130.25 633.924 129.794 631.242 128.883C628.586 127.971 626.229 126.604 624.172 124.781C622.193 123.036 620.63 120.888 619.484 118.336C618.339 115.758 617.766 112.88 617.766 109.703C617.766 106.578 618.26 103.805 619.25 101.383C620.266 98.9349 621.776 96.7604 623.781 94.8594C625.708 93.0365 628.078 91.6302 630.891 90.6406C633.729 89.625 636.893 89.1172 640.383 89.1172C644.029 89.1172 647.232 89.625 649.992 90.6406C652.779 91.6302 655.161 93.0365 657.141 94.8594ZM647.141 121.93C647.714 120.471 648.13 118.701 648.391 116.617C648.677 114.534 648.82 112.112 648.82 109.352C648.82 107.529 648.69 105.445 648.43 103.102C648.169 100.758 647.779 98.9089 647.258 97.5547C646.633 95.9141 645.76 94.625 644.641 93.6875C643.547 92.75 642.154 92.2812 640.461 92.2812C638.612 92.2812 637.128 92.7891 636.008 93.8047C634.914 94.8203 634.068 96.1354 633.469 97.75C632.922 99.2344 632.544 100.979 632.336 102.984C632.128 104.964 632.023 107.034 632.023 109.195C632.023 112.034 632.115 114.391 632.297 116.266C632.479 118.115 632.922 119.977 633.625 121.852C634.224 123.466 635.083 124.742 636.203 125.68C637.323 126.617 638.742 127.086 640.461 127.086C642.023 127.086 643.365 126.656 644.484 125.797C645.604 124.911 646.49 123.622 647.141 121.93ZM712.766 128.18C711.62 128.674 710.266 129.13 708.703 129.547C707.141 129.964 705.487 130.172 703.742 130.172C700.539 130.172 698.182 129.703 696.672 128.766C695.161 127.802 694.133 126.435 693.586 124.664H693.352C692.466 125.549 691.607 126.305 690.773 126.93C689.966 127.555 689.094 128.089 688.156 128.531C686.932 129.104 685.747 129.521 684.602 129.781C683.482 130.068 681.906 130.211 679.875 130.211C676.854 130.211 674.276 129.326 672.141 127.555C670.005 125.758 668.938 123.388 668.938 120.445C668.938 118.753 669.172 117.32 669.641 116.148C670.109 114.951 670.773 113.896 671.633 112.984C672.414 112.151 673.312 111.461 674.328 110.914C675.37 110.367 676.503 109.859 677.727 109.391C680.07 108.531 682.883 107.646 686.164 106.734C689.445 105.797 691.841 104.964 693.352 104.234V100.484C693.352 99.8333 693.299 98.974 693.195 97.9062C693.091 96.8385 692.87 95.9401 692.531 95.2109C692.167 94.3776 691.594 93.6745 690.812 93.1016C690.031 92.5286 689.003 92.2422 687.727 92.2422C686.581 92.2422 685.617 92.4115 684.836 92.75C684.081 93.0625 683.469 93.388 683 93.7266C683.078 94.2474 683.299 95.0417 683.664 96.1094C684.029 97.1771 684.211 98.2057 684.211 99.1953C684.211 99.638 684.094 100.198 683.859 100.875C683.625 101.526 683.286 102.047 682.844 102.438C682.245 102.958 681.568 103.362 680.812 103.648C680.083 103.935 678.951 104.078 677.414 104.078C675.227 104.078 673.573 103.557 672.453 102.516C671.333 101.448 670.773 100.068 670.773 98.375C670.773 96.9167 671.346 95.6146 672.492 94.4688C673.664 93.2969 675.083 92.3333 676.75 91.5781C678.391 90.7969 680.279 90.1979 682.414 89.7812C684.549 89.3385 686.529 89.1172 688.352 89.1172C690.878 89.1172 693.195 89.2734 695.305 89.5859C697.414 89.8724 699.315 90.4844 701.008 91.4219C702.622 92.3333 703.898 93.6615 704.836 95.4062C705.799 97.125 706.281 99.3776 706.281 102.164C706.281 105.107 706.216 108.596 706.086 112.633C705.982 116.669 705.93 119.326 705.93 120.602C705.93 121.773 706.099 122.698 706.438 123.375C706.802 124.052 707.349 124.56 708.078 124.898C708.521 125.107 709.211 125.237 710.148 125.289C711.112 125.315 711.984 125.328 712.766 125.328V128.18ZM693.352 107.828C691.893 108.323 690.448 108.896 689.016 109.547C687.583 110.172 686.411 110.836 685.5 111.539C684.536 112.268 683.781 113.206 683.234 114.352C682.688 115.471 682.414 116.799 682.414 118.336C682.414 120.367 682.87 121.839 683.781 122.75C684.719 123.661 685.865 124.117 687.219 124.117C688.651 124.117 689.823 123.831 690.734 123.258C691.672 122.659 692.492 121.93 693.195 121.07L693.352 107.828ZM738.078 130.25C734.458 130.25 731.255 129.729 728.469 128.688C725.708 127.62 723.43 126.174 721.633 124.352C719.836 122.503 718.495 120.315 717.609 117.789C716.724 115.263 716.281 112.516 716.281 109.547C716.281 106.839 716.815 104.26 717.883 101.812C718.977 99.3646 720.448 97.2161 722.297 95.3672C724.198 93.4661 726.555 91.9557 729.367 90.8359C732.206 89.6901 735.331 89.1172 738.742 89.1172C743.534 89.1172 747.323 90.0286 750.109 91.8516C752.896 93.6484 754.289 96.0833 754.289 99.1562C754.289 101.031 753.794 102.542 752.805 103.688C751.815 104.833 750.109 105.406 747.688 105.406C745.734 105.406 744.094 104.938 742.766 104C741.464 103.062 740.812 101.839 740.812 100.328C740.812 99.0521 741.021 97.7891 741.438 96.5391C741.854 95.2891 742.102 94.3385 742.18 93.6875C741.893 93.2188 741.529 92.8672 741.086 92.6328C740.643 92.3724 739.953 92.2422 739.016 92.2422C737.844 92.2422 736.776 92.5156 735.812 93.0625C734.849 93.6094 733.951 94.5729 733.117 95.9531C732.31 97.2552 731.659 99 731.164 101.188C730.695 103.375 730.461 106.005 730.461 109.078C730.461 113.714 731.542 117.451 733.703 120.289C735.891 123.128 738.495 124.547 741.516 124.547C744.406 124.547 746.698 123.909 748.391 122.633C750.109 121.331 751.633 119.495 752.961 117.125L755.891 119.156C755.083 120.745 754.12 122.203 753 123.531C751.88 124.833 750.539 125.992 748.977 127.008C747.336 128.076 745.669 128.883 743.977 129.43C742.284 129.977 740.318 130.25 738.078 130.25ZM809.055 129H785.539V126.148C786.06 126.096 786.672 126.031 787.375 125.953C788.078 125.875 788.599 125.745 788.938 125.562C789.484 125.276 789.862 124.859 790.07 124.312C790.305 123.766 790.422 122.958 790.422 121.891V103.609C790.422 100.927 789.914 98.9219 788.898 97.5938C787.909 96.2656 786.49 95.6016 784.641 95.6016C783.599 95.6016 782.622 95.7578 781.711 96.0703C780.826 96.3828 779.953 96.8385 779.094 97.4375C778.339 97.9583 777.727 98.4922 777.258 99.0391C776.815 99.5859 776.438 100.068 776.125 100.484V121.461C776.125 122.424 776.242 123.193 776.477 123.766C776.711 124.312 777.154 124.768 777.805 125.133C778.195 125.367 778.703 125.576 779.328 125.758C779.979 125.94 780.604 126.07 781.203 126.148V129H757.453V126.148C758.13 126.096 758.781 126.031 759.406 125.953C760.057 125.875 760.63 125.745 761.125 125.562C761.958 125.25 762.518 124.807 762.805 124.234C763.117 123.635 763.273 122.854 763.273 121.891V78.3359C763.273 77.5026 763.078 76.6172 762.688 75.6797C762.297 74.7422 761.75 74.0391 761.047 73.5703C760.526 73.2318 759.771 72.9714 758.781 72.7891C757.792 72.5807 756.906 72.4505 756.125 72.3984V69.5469L775.539 68.5312L776.125 69.1562V96.0312H776.281C777.271 95.1458 778.156 94.3516 778.938 93.6484C779.745 92.9193 780.721 92.1901 781.867 91.4609C782.831 90.8359 784.081 90.3021 785.617 89.8594C787.18 89.4167 788.859 89.1953 790.656 89.1953C794.875 89.1953 798.039 90.4062 800.148 92.8281C802.284 95.25 803.352 98.4401 803.352 102.398V121.539C803.352 122.503 803.495 123.271 803.781 123.844C804.068 124.417 804.602 124.872 805.383 125.211C805.852 125.419 806.372 125.602 806.945 125.758C807.518 125.914 808.221 126.044 809.055 126.148V129Z" fill="white"/>
<defs>
<linearGradient id="paint0_linear_88_98" x1="978.392" y1="614" x2="154.784" y2="635.846" gradientUnits="userSpaceOnUse">
<stop stop-color="#F3A83A" stop-opacity="0"/>
<stop offset="0.882" stop-color="#1D272C"/>
<stop offset="1" stop-color="#0D1731"/>
</linearGradient>
<linearGradient id="paint1_linear_88_98" x1="469" y1="76.4225" x2="469" y2="561.109" gradientUnits="userSpaceOnUse">
<stop stop-color="#F3A83A"/>
<stop offset="0.374" stop-color="#E2A431"/>
<stop offset="0.557" stop-color="#8B9007"/>
<stop offset="0.803" stop-color="#1D272C"/>
<stop offset="1" stop-color="#0D1731"/>
</linearGradient>
<linearGradient id="paint2_linear_88_98" x1="1070.59" y1="562.595" x2="102.699" y2="600.731" gradientUnits="userSpaceOnUse">
<stop stop-color="#F3A83A" stop-opacity="0"/>
<stop offset="0.882" stop-color="#1D272C"/>
<stop offset="1" stop-color="#0D1731"/>
</linearGradient>
</defs>
</svg>
