<svg width="1017" height="225" viewBox="0 0 1017 225" fill="none" xmlns="http://www.w3.org/2000/svg">
<mask id="mask0_88_238" style="mask-type:alpha" maskUnits="userSpaceOnUse" x="0" y="0" width="1017" height="225">
<rect width="1017" height="225" fill="black"/>
</mask>
<g mask="url(#mask0_88_238)">
<path d="M1017 0H1V614H1017V0Z" fill="url(#paint0_linear_88_238)"/>
<path style="mix-blend-mode:overlay" d="M1078 131.625H-140V730.935H1078V131.625Z" fill="url(#paint1_linear_88_238)"/>
<path opacity="0.2" d="M1116 131.625H-79V732.773H1116V131.625Z" fill="url(#paint2_linear_88_238)"/>
</g>
<path d="M300.375 81.7422C303.109 84.2422 305.271 87.263 306.859 90.8047C308.474 94.3464 309.281 98.3828 309.281 102.914C309.281 106.951 308.604 110.792 307.25 114.438C305.896 118.083 303.943 121.221 301.391 123.852C298.708 126.586 295.557 128.721 291.938 130.258C288.318 131.768 284.008 132.523 279.008 132.523C274.971 132.523 271.156 131.859 267.562 130.531C263.969 129.203 260.805 127.276 258.07 124.75C255.362 122.276 253.214 119.268 251.625 115.727C250.036 112.185 249.242 108.24 249.242 103.891C249.242 99.3594 250.01 95.2578 251.547 91.5859C253.109 87.888 255.245 84.724 257.953 82.0938C260.635 79.5156 263.812 77.5365 267.484 76.1562C271.182 74.75 275.115 74.0469 279.281 74.0469C283.422 74.0469 287.302 74.724 290.922 76.0781C294.568 77.4323 297.719 79.3203 300.375 81.7422ZM290.336 121.391C291.508 119.021 292.354 116.339 292.875 113.344C293.396 110.349 293.656 106.964 293.656 103.188C293.656 99.9844 293.422 96.8724 292.953 93.8516C292.51 90.8047 291.742 88.0964 290.648 85.7266C289.529 83.3568 288.044 81.4557 286.195 80.0234C284.346 78.5911 282.042 77.875 279.281 77.875C274.568 77.875 270.987 80.1146 268.539 84.5938C266.091 89.0469 264.867 95.349 264.867 103.5C264.867 106.964 265.128 110.232 265.648 113.305C266.195 116.378 267.042 119.06 268.188 121.352C269.359 123.669 270.844 125.479 272.641 126.781C274.438 128.057 276.651 128.695 279.281 128.695C281.859 128.695 284.073 128.044 285.922 126.742C287.771 125.44 289.242 123.656 290.336 121.391ZM365.336 130.18L346.703 131.312L346.117 130.766V125.648H345.883C344.997 126.456 344.125 127.25 343.266 128.031C342.432 128.786 341.43 129.477 340.258 130.102C338.93 130.805 337.667 131.326 336.469 131.664C335.297 132.003 333.578 132.172 331.312 132.172C327.38 132.172 324.359 130.987 322.25 128.617C320.167 126.247 319.125 122.901 319.125 118.578V101C319.125 99.9844 318.93 99.1641 318.539 98.5391C318.148 97.888 317.628 97.3151 316.977 96.8203C316.456 96.4297 315.779 96.1562 314.945 96C314.112 95.8177 313.357 95.7005 312.68 95.6484V92.7969L331.625 91.7812L332.055 92.3672V118.344C332.055 121.026 332.562 123.005 333.578 124.281C334.62 125.557 336.039 126.195 337.836 126.195C339.685 126.195 341.339 125.714 342.797 124.75C344.281 123.786 345.362 122.758 346.039 121.664V100.609C346.039 99.724 345.87 98.9297 345.531 98.2266C345.193 97.5234 344.698 96.9505 344.047 96.5078C343.578 96.1953 342.901 95.987 342.016 95.8828C341.156 95.7786 340.271 95.7005 339.359 95.6484V92.7969L358.305 91.7812L358.891 92.3672V122.523C358.891 123.435 359.073 124.216 359.438 124.867C359.802 125.492 360.336 126.026 361.039 126.469C361.534 126.781 362.172 127.003 362.953 127.133C363.76 127.237 364.555 127.302 365.336 127.328V130.18ZM407.406 99.3984C407.406 101.378 406.794 103.122 405.57 104.633C404.346 106.117 402.732 106.859 400.727 106.859C398.826 106.859 397.211 106.378 395.883 105.414C394.581 104.451 393.93 103.031 393.93 101.156C393.93 100.245 393.995 99.5417 394.125 99.0469C394.255 98.526 394.372 98.0443 394.477 97.6016C393.279 97.6536 392.016 98.0703 390.688 98.8516C389.359 99.6328 388.188 100.674 387.172 101.977V123.422C387.172 124.333 387.315 125.089 387.602 125.688C387.888 126.286 388.37 126.755 389.047 127.094C389.62 127.38 390.544 127.628 391.82 127.836C393.122 128.018 394.06 128.122 394.633 128.148V131H368.5V128.148C369.151 128.096 369.802 128.031 370.453 127.953C371.13 127.849 371.703 127.719 372.172 127.562C373.005 127.276 373.578 126.833 373.891 126.234C374.203 125.635 374.359 124.854 374.359 123.891V101.156C374.359 100.219 374.138 99.3854 373.695 98.6562C373.253 97.901 372.719 97.3021 372.094 96.8594C371.625 96.5469 371.026 96.2865 370.297 96.0781C369.594 95.8698 368.812 95.7266 367.953 95.6484V92.7969L386.586 91.7812L387.172 92.3672V98.0312H387.328C389.125 95.9479 391.026 94.3203 393.031 93.1484C395.062 91.9505 397.172 91.3516 399.359 91.3516C401.781 91.3516 403.721 92.1068 405.18 93.6172C406.664 95.1016 407.406 97.0286 407.406 99.3984ZM454.125 132.484C450.74 132.484 447.576 132.068 444.633 131.234C441.716 130.401 439.242 129.411 437.211 128.266L434.516 131H431.195L430.688 110.961H434.047C434.802 112.862 435.766 114.867 436.938 116.977C438.109 119.086 439.464 120.974 441 122.641C442.589 124.385 444.359 125.805 446.312 126.898C448.292 127.992 450.596 128.539 453.227 128.539C456.768 128.539 459.477 127.68 461.352 125.961C463.253 124.216 464.203 122.029 464.203 119.398C464.203 117.237 463.396 115.427 461.781 113.969C460.193 112.484 457.719 111.208 454.359 110.141C452.172 109.438 450.154 108.786 448.305 108.188C446.482 107.589 444.763 106.977 443.148 106.352C439.424 104.867 436.651 102.745 434.828 99.9844C433.031 97.224 432.133 94.138 432.133 90.7266C432.133 88.5651 432.602 86.4948 433.539 84.5156C434.477 82.5104 435.844 80.7135 437.641 79.125C439.359 77.6406 441.56 76.4297 444.242 75.4922C446.924 74.5547 449.841 74.0859 452.992 74.0859C456.065 74.0859 458.943 74.5156 461.625 75.375C464.307 76.2083 466.417 77.0547 467.953 77.9141L470.336 75.5703H473.734L474.047 94.4766H470.688C469.906 92.4453 468.982 90.375 467.914 88.2656C466.872 86.1302 465.766 84.3594 464.594 82.9531C463.318 81.4427 461.846 80.2448 460.18 79.3594C458.513 78.4479 456.56 77.9922 454.32 77.9922C451.508 77.9922 449.203 78.7865 447.406 80.375C445.635 81.9635 444.75 83.9297 444.75 86.2734C444.75 88.487 445.518 90.2969 447.055 91.7031C448.617 93.1094 451.039 94.3464 454.32 95.4141C456.247 96.0651 458.214 96.7161 460.219 97.3672C462.224 98.0182 464.008 98.6432 465.57 99.2422C469.346 100.701 472.211 102.719 474.164 105.297C476.143 107.849 477.133 111.026 477.133 114.828C477.133 117.224 476.573 119.542 475.453 121.781C474.333 124.021 472.823 125.883 470.922 127.367C468.839 129.008 466.43 130.271 463.695 131.156C460.961 132.042 457.771 132.484 454.125 132.484ZM524.398 121.664C523.487 123.148 522.38 124.555 521.078 125.883C519.802 127.185 518.344 128.305 516.703 129.242C514.958 130.232 513.188 130.974 511.391 131.469C509.62 131.99 507.576 132.25 505.258 132.25C501.404 132.25 498.07 131.703 495.258 130.609C492.471 129.516 490.167 128.044 488.344 126.195C486.521 124.346 485.154 122.172 484.242 119.672C483.357 117.146 482.914 114.411 482.914 111.469C482.914 108.812 483.396 106.273 484.359 103.852C485.349 101.404 486.742 99.2292 488.539 97.3281C490.31 95.4792 492.536 93.9818 495.219 92.8359C497.927 91.6901 500.948 91.1172 504.281 91.1172C507.927 91.1172 510.922 91.5599 513.266 92.4453C515.609 93.3307 517.549 94.5547 519.086 96.1172C520.57 97.6016 521.651 99.3594 522.328 101.391C523.005 103.396 523.344 105.505 523.344 107.719V110.258H496.938C496.938 115.596 497.966 119.659 500.023 122.445C502.081 125.232 505.349 126.625 509.828 126.625C512.276 126.625 514.477 125.961 516.43 124.633C518.383 123.279 520.049 121.573 521.43 119.516L524.398 121.664ZM509.477 106.82C509.477 105.258 509.398 103.656 509.242 102.016C509.086 100.375 508.812 99.0339 508.422 97.9922C507.979 96.7682 507.367 95.8438 506.586 95.2188C505.831 94.5938 504.867 94.2812 503.695 94.2812C501.69 94.2812 500.089 95.2969 498.891 97.3281C497.693 99.3594 497.042 102.576 496.938 106.977L509.477 106.82ZM567.094 99.3984C567.094 101.378 566.482 103.122 565.258 104.633C564.034 106.117 562.419 106.859 560.414 106.859C558.513 106.859 556.898 106.378 555.57 105.414C554.268 104.451 553.617 103.031 553.617 101.156C553.617 100.245 553.682 99.5417 553.812 99.0469C553.943 98.526 554.06 98.0443 554.164 97.6016C552.966 97.6536 551.703 98.0703 550.375 98.8516C549.047 99.6328 547.875 100.674 546.859 101.977V123.422C546.859 124.333 547.003 125.089 547.289 125.688C547.576 126.286 548.057 126.755 548.734 127.094C549.307 127.38 550.232 127.628 551.508 127.836C552.81 128.018 553.747 128.122 554.32 128.148V131H528.188V128.148C528.839 128.096 529.49 128.031 530.141 127.953C530.818 127.849 531.391 127.719 531.859 127.562C532.693 127.276 533.266 126.833 533.578 126.234C533.891 125.635 534.047 124.854 534.047 123.891V101.156C534.047 100.219 533.826 99.3854 533.383 98.6562C532.94 97.901 532.406 97.3021 531.781 96.8594C531.312 96.5469 530.714 96.2865 529.984 96.0781C529.281 95.8698 528.5 95.7266 527.641 95.6484V92.7969L546.273 91.7812L546.859 92.3672V98.0312H547.016C548.812 95.9479 550.714 94.3203 552.719 93.1484C554.75 91.9505 556.859 91.3516 559.047 91.3516C561.469 91.3516 563.409 92.1068 564.867 93.6172C566.352 95.1016 567.094 97.0286 567.094 99.3984ZM614.359 95.1016C613.188 95.2839 612.042 95.7266 610.922 96.4297C609.828 97.1328 608.917 98.2266 608.188 99.7109C606.365 103.513 604.568 107.354 602.797 111.234C601.052 115.089 599.333 118.826 597.641 122.445C597.12 123.539 596.521 124.945 595.844 126.664C595.193 128.383 594.646 129.945 594.203 131.352H587.016C584.021 124.398 581.456 118.63 579.32 114.047C577.211 109.464 574.971 104.542 572.602 99.2812C572.055 98.0573 571.195 97.0938 570.023 96.3906C568.878 95.6875 567.706 95.2578 566.508 95.1016V92.25H590.57V95.1016C589.685 95.1276 588.643 95.3229 587.445 95.6875C586.247 96.0521 585.648 96.5208 585.648 97.0938C585.648 97.25 585.701 97.4844 585.805 97.7969C585.909 98.1094 586.039 98.4609 586.195 98.8516C587.029 100.831 588.279 103.682 589.945 107.406C591.638 111.13 593.422 115.049 595.297 119.164C596.599 116.326 597.836 113.552 599.008 110.844C600.206 108.109 601.677 104.633 603.422 100.414C603.656 99.7891 603.786 99.2812 603.812 98.8906C603.865 98.5 603.891 98.2396 603.891 98.1094C603.891 97.6406 603.656 97.237 603.188 96.8984C602.745 96.5339 602.211 96.2214 601.586 95.9609C600.935 95.7005 600.31 95.5052 599.711 95.375C599.112 95.2448 598.617 95.1536 598.227 95.1016V92.25H614.359V95.1016ZM639.906 131H615.219V128.148C615.896 128.096 616.56 128.031 617.211 127.953C617.862 127.875 618.422 127.745 618.891 127.562C619.724 127.25 620.31 126.807 620.648 126.234C620.987 125.635 621.156 124.854 621.156 123.891V101.156C621.156 100.245 620.948 99.4505 620.531 98.7734C620.115 98.0703 619.594 97.5104 618.969 97.0938C618.5 96.7812 617.784 96.4818 616.82 96.1953C615.883 95.9089 615.023 95.7266 614.242 95.6484V92.7969L633.383 91.7812L633.969 92.3672V123.383C633.969 124.294 634.164 125.076 634.555 125.727C634.945 126.352 635.505 126.82 636.234 127.133C636.755 127.367 637.328 127.576 637.953 127.758C638.578 127.94 639.229 128.07 639.906 128.148V131ZM634.203 77.7188C634.203 79.6979 633.435 81.3906 631.898 82.7969C630.388 84.1771 628.591 84.8672 626.508 84.8672C624.398 84.8672 622.576 84.1771 621.039 82.7969C619.529 81.3906 618.773 79.6979 618.773 77.7188C618.773 75.7396 619.529 74.0469 621.039 72.6406C622.576 71.2344 624.398 70.5312 626.508 70.5312C628.617 70.5312 630.427 71.2344 631.938 72.6406C633.448 74.0469 634.203 75.7396 634.203 77.7188ZM665.805 132.25C662.185 132.25 658.982 131.729 656.195 130.688C653.435 129.62 651.156 128.174 649.359 126.352C647.562 124.503 646.221 122.315 645.336 119.789C644.451 117.263 644.008 114.516 644.008 111.547C644.008 108.839 644.542 106.26 645.609 103.812C646.703 101.365 648.174 99.2161 650.023 97.3672C651.924 95.4661 654.281 93.9557 657.094 92.8359C659.932 91.6901 663.057 91.1172 666.469 91.1172C671.26 91.1172 675.049 92.0286 677.836 93.8516C680.622 95.6484 682.016 98.0833 682.016 101.156C682.016 103.031 681.521 104.542 680.531 105.688C679.542 106.833 677.836 107.406 675.414 107.406C673.461 107.406 671.82 106.938 670.492 106C669.19 105.062 668.539 103.839 668.539 102.328C668.539 101.052 668.747 99.7891 669.164 98.5391C669.581 97.2891 669.828 96.3385 669.906 95.6875C669.62 95.2188 669.255 94.8672 668.812 94.6328C668.37 94.3724 667.68 94.2422 666.742 94.2422C665.57 94.2422 664.503 94.5156 663.539 95.0625C662.576 95.6094 661.677 96.5729 660.844 97.9531C660.036 99.2552 659.385 101 658.891 103.188C658.422 105.375 658.188 108.005 658.188 111.078C658.188 115.714 659.268 119.451 661.43 122.289C663.617 125.128 666.221 126.547 669.242 126.547C672.133 126.547 674.424 125.909 676.117 124.633C677.836 123.331 679.359 121.495 680.688 119.125L683.617 121.156C682.81 122.745 681.846 124.203 680.727 125.531C679.607 126.833 678.266 127.992 676.703 129.008C675.062 130.076 673.396 130.883 671.703 131.43C670.01 131.977 668.044 132.25 665.805 132.25ZM727.992 121.664C727.081 123.148 725.974 124.555 724.672 125.883C723.396 127.185 721.938 128.305 720.297 129.242C718.552 130.232 716.781 130.974 714.984 131.469C713.214 131.99 711.169 132.25 708.852 132.25C704.997 132.25 701.664 131.703 698.852 130.609C696.065 129.516 693.76 128.044 691.938 126.195C690.115 124.346 688.747 122.172 687.836 119.672C686.951 117.146 686.508 114.411 686.508 111.469C686.508 108.812 686.99 106.273 687.953 103.852C688.943 101.404 690.336 99.2292 692.133 97.3281C693.904 95.4792 696.13 93.9818 698.812 92.8359C701.521 91.6901 704.542 91.1172 707.875 91.1172C711.521 91.1172 714.516 91.5599 716.859 92.4453C719.203 93.3307 721.143 94.5547 722.68 96.1172C724.164 97.6016 725.245 99.3594 725.922 101.391C726.599 103.396 726.938 105.505 726.938 107.719V110.258H700.531C700.531 115.596 701.56 119.659 703.617 122.445C705.674 125.232 708.943 126.625 713.422 126.625C715.87 126.625 718.07 125.961 720.023 124.633C721.977 123.279 723.643 121.573 725.023 119.516L727.992 121.664ZM713.07 106.82C713.07 105.258 712.992 103.656 712.836 102.016C712.68 100.375 712.406 99.0339 712.016 97.9922C711.573 96.7682 710.961 95.8438 710.18 95.2188C709.424 94.5938 708.461 94.2812 707.289 94.2812C705.284 94.2812 703.682 95.2969 702.484 97.3281C701.286 99.3594 700.635 102.576 700.531 106.977L713.07 106.82ZM749.867 132.328C747.341 132.328 744.867 131.951 742.445 131.195C740.049 130.466 738.188 129.685 736.859 128.852L735.688 131.508H732.641L732.133 116.938H734.984C735.375 118.109 736.026 119.438 736.938 120.922C737.849 122.38 738.891 123.695 740.062 124.867C741.286 126.039 742.68 127.029 744.242 127.836C745.831 128.643 747.523 129.047 749.32 129.047C751.69 129.047 753.448 128.591 754.594 127.68C755.766 126.742 756.352 125.31 756.352 123.383C756.352 122.341 756.091 121.482 755.57 120.805C755.049 120.128 754.333 119.542 753.422 119.047C752.406 118.526 751.286 118.083 750.062 117.719C748.865 117.354 747.38 116.911 745.609 116.391C743.839 115.87 742.315 115.349 741.039 114.828C739.789 114.281 738.487 113.435 737.133 112.289C735.961 111.273 735.023 110.049 734.32 108.617C733.617 107.185 733.266 105.479 733.266 103.5C733.266 99.8281 734.802 96.8594 737.875 94.5938C740.974 92.3281 745.023 91.1953 750.023 91.1953C752.393 91.1953 754.568 91.4427 756.547 91.9375C758.552 92.4062 760.232 92.9271 761.586 93.5L762.406 91.1953H765.375L766 104.516H763.227C762.315 101.807 760.753 99.4766 758.539 97.5234C756.326 95.5443 753.943 94.5547 751.391 94.5547C749.385 94.5547 747.81 94.9714 746.664 95.8047C745.518 96.638 744.945 97.7969 744.945 99.2812C744.945 101.26 745.779 102.693 747.445 103.578C749.138 104.464 751.495 105.297 754.516 106.078C759.177 107.276 762.589 108.917 764.75 111C766.911 113.057 767.992 115.688 767.992 118.891C767.992 123.161 766.312 126.469 762.953 128.812C759.62 131.156 755.258 132.328 749.867 132.328Z" fill="white"/>
<defs>
<linearGradient id="paint0_linear_88_238" x1="978.392" y1="614" x2="154.784" y2="635.846" gradientUnits="userSpaceOnUse">
<stop stop-color="#F3A83A" stop-opacity="0"/>
<stop offset="0.882" stop-color="#1D272C"/>
<stop offset="1" stop-color="#0D1731"/>
</linearGradient>
<linearGradient id="paint1_linear_88_238" x1="469" y1="131.625" x2="469" y2="730.935" gradientUnits="userSpaceOnUse">
<stop stop-color="#F3A83A"/>
<stop offset="0.374" stop-color="#E2A431"/>
<stop offset="0.557" stop-color="#8B9007"/>
<stop offset="0.803" stop-color="#1D272C"/>
<stop offset="1" stop-color="#0D1731"/>
</linearGradient>
<linearGradient id="paint2_linear_88_238" x1="1070.59" y1="732.773" x2="102.179" y2="763.631" gradientUnits="userSpaceOnUse">
<stop stop-color="#F3A83A" stop-opacity="0"/>
<stop offset="0.882" stop-color="#1D272C"/>
<stop offset="1" stop-color="#0D1731"/>
</linearGradient>
</defs>
</svg>
