<svg width="98" height="61" viewBox="0 0 98 61" fill="none" xmlns="http://www.w3.org/2000/svg">
<g clip-path="url(#clip0_89_499)">
<path d="M-7.94698e-06 1.52757C0.441502 0.604942 1.08463 -0.066058 2.19989 0.00256703C8.17687 0.429567 14.1513 0.899778 19.9216 2.66624C21.0069 3.02651 22.0582 3.48154 23.0632 4.02602C24.2499 4.63602 24.7118 5.64507 24.4183 6.97436C24.3443 7.30986 24.3367 7.65806 24.2831 8.14098H25.2835C30.0967 8.14098 34.9125 8.15623 39.7257 8.11811C40.2833 8.09677 40.8226 7.91393 41.2774 7.59198C44.3399 5.37056 47.627 3.97265 51.5061 4.37932C53.9128 4.63348 56.1356 5.47732 58.3432 6.41265C61.7425 7.84615 65.1649 9.22628 68.5796 10.6242C68.8705 10.7411 69.1742 10.8275 69.4881 10.9343C69.4881 9.06107 69.7969 8.63407 71.5502 7.96053C77.0066 5.86365 82.7028 4.86986 88.4986 4.40219C90.7521 4.21665 93.0209 4.20394 95.2769 4.06161C96.5274 3.98282 97.4411 4.40727 98 5.53577V43.2719C97.4385 44.4004 96.5121 44.7766 95.2769 44.7639C91.704 44.7232 88.1311 44.7486 84.5582 44.7486C82.5165 44.7486 82.1056 44.4334 81.5084 42.4789C81.4166 42.179 81.3043 41.8867 81.146 41.4267C80.1252 42.1154 79.1503 42.7432 78.2162 43.4219C78.0708 43.5261 78.0401 43.8666 78.0504 44.0929C78.2137 48.0019 75.728 50.902 71.8054 51.4179C71.3992 51.4748 71.0322 51.6896 70.7846 52.0152C68.9981 54.8238 66.4154 55.9777 63.1666 55.7744C62.6766 55.7439 62.4342 55.8176 62.1866 56.242C60.5252 59.1014 56.8961 60.817 53.9587 59.7699C53.857 59.7426 53.7508 59.736 53.6464 59.7504C53.5421 59.7648 53.4417 59.7999 53.3513 59.8537C51.0008 61.3203 48.5253 61.1957 45.9809 60.5019C43.3701 59.7927 41.1702 58.3592 39.0775 56.7275C34.0346 52.7955 28.9304 48.9373 23.9972 44.8731C21.5268 42.8398 19.3729 40.4202 17.076 38.1759C16.9892 38.0894 16.8948 38.0081 16.6957 37.8226C16.5298 38.3309 16.392 38.7554 16.2389 39.1798C15.9046 40.1177 15.2512 40.6413 14.233 40.6438C10.1854 40.6438 6.13775 40.6438 2.09015 40.6438C1.05145 40.6438 0.489993 40.016 -0.0153198 39.2611L-7.94698e-06 1.52757ZM59.045 53.8503C55.8855 50.6046 52.9328 47.5749 49.9825 44.5402C49.7315 44.2973 49.5065 44.029 49.3113 43.7396C49.0608 43.3468 48.958 42.8784 49.021 42.4174C49.0841 41.9564 49.309 41.5325 49.6559 41.2208C50.0068 40.8892 50.4664 40.6954 50.9496 40.6753C51.4329 40.6553 51.9071 40.8102 52.2845 41.1115C52.5949 41.3837 52.8889 41.674 53.165 41.9807C56.1382 44.9494 59.0756 47.9511 62.0973 50.8766C63.4142 52.1474 65.3946 51.9822 66.7166 50.6986C67.2908 50.142 67.3673 49.7252 66.7038 49.0694C63.0773 45.4959 59.5044 41.8689 55.9289 38.2445C54.9081 37.2049 54.8749 35.9849 55.7783 35.136C56.6818 34.2871 57.82 34.3888 58.8255 35.3902C59.831 36.3916 60.7702 37.4057 61.7604 38.397C64.532 41.1623 67.2984 43.9302 70.0955 46.6676C70.9479 47.5012 71.762 47.519 72.7599 46.8811C73.9262 46.1338 74.332 44.9087 73.6965 43.6582C73.3045 42.8608 72.7991 42.1237 72.1959 41.4699C70.7342 39.8764 69.1889 38.3612 67.5664 36.9304C62.0565 32.2563 56.4853 27.6559 50.9192 23.0504C50.7837 22.9701 50.6327 22.9192 50.4761 22.9013C50.3195 22.8833 50.1609 22.8986 50.0106 22.9462C49.0153 23.2766 48.0659 23.7519 47.0604 24.034C46.3925 24.2033 45.7946 24.5766 45.3505 25.1015C42.5152 28.3574 39.006 29.6765 34.7313 28.5633C31.4136 27.7016 29.8823 25.2083 30.5484 21.8507C31.1762 18.6711 32.8708 16.0456 34.887 13.5827C35.2341 13.1557 35.599 12.7465 36.0278 12.2432H23.6093C23.3541 13.4175 23.1525 14.5714 22.8437 15.6999C21.3431 21.3373 19.8144 26.9697 18.3214 32.6096C18.2295 32.9527 18.2295 33.4966 18.4337 33.7076C20.848 36.1984 23.1244 38.8647 25.7965 41.0505C31.605 45.8085 37.582 50.3632 43.5794 54.8822C44.784 55.7896 46.3688 56.2217 47.8184 56.7605C48.39 56.974 49.074 56.8876 49.7069 56.9384C49.7682 56.8139 49.8294 56.6843 49.8881 56.5674C47.7852 54.534 45.6695 52.5159 43.5819 50.4674C42.7882 49.6896 42.0124 48.8839 41.2978 48.0299C40.9601 47.6389 40.791 47.1309 40.8273 46.6164C40.8636 46.1019 41.1024 45.6225 41.4918 45.2824C41.8709 44.9355 42.3683 44.7454 42.8831 44.7506C43.3979 44.7558 43.8913 44.9559 44.2633 45.3103C44.5721 45.5848 44.8401 45.9051 45.1336 46.1948C48.2089 49.2448 51.2586 52.2948 54.3721 55.3092C55.2934 56.2014 56.1739 56.2624 57.2381 55.5481C57.9323 55.0856 58.4708 54.3942 59.045 53.8503ZM76.2129 39.8305C77.3 39.1036 78.3515 38.4402 79.3468 37.7031C79.4669 37.5908 79.558 37.4513 79.6122 37.2964C79.6664 37.1415 79.6822 36.9758 79.6582 36.8135C77.2541 30.1323 74.8143 23.4613 72.3388 16.8004C72.198 16.4944 71.9478 16.2516 71.637 16.1193C66.0938 13.8741 60.5456 11.6468 54.9923 9.43723C51.7307 8.1359 48.4692 7.82582 45.3658 9.79815C41.7929 12.0729 38.6487 14.8815 36.3748 18.4754C35.5607 19.7666 35.0656 21.2712 34.5424 22.7276C34.3025 23.391 34.374 24.2196 35.2672 24.4356C36.2115 24.6644 37.2094 24.8931 38.1638 24.8321C40.2744 24.6923 41.6372 23.2944 42.8775 21.7389C43.2782 21.2306 43.7733 20.6816 44.345 20.4681C46.1468 19.7767 48.0328 19.304 49.832 18.6076C51.0468 18.1399 51.9349 18.3687 52.8562 19.2328C54.3619 20.646 55.9187 22.0007 57.5086 23.3325C63.848 28.6726 70.6927 33.4509 76.2129 39.8305ZM93.8605 40.6464V8.16132C87.2021 8.33924 80.7377 9.17799 74.4876 11.2113C75.7841 14.4672 77.124 17.5884 78.2775 20.7781C80.5616 27.1018 82.7385 33.4662 84.9869 39.8051C85.0992 40.1253 85.4386 40.5981 85.6811 40.6031C88.3863 40.6692 91.0941 40.6464 93.8605 40.6464ZM4.14202 4.20649V36.5466H12.8191C13.5567 34.1143 14.3095 31.7175 15.0062 29.3207C17.0479 22.2828 19.0411 15.2348 20.187 7.97069C20.3299 7.06332 19.9445 6.87269 19.2861 6.67444C14.3861 5.19519 9.3202 4.69957 4.14202 4.20649Z" fill="#171E3F"/>
</g>
<defs>
<clipPath id="clip0_89_499">
<rect width="98" height="61" fill="white"/>
</clipPath>
</defs>
</svg>
