<svg width="1017" height="225" viewBox="0 0 1017 225" fill="none" xmlns="http://www.w3.org/2000/svg">
<mask id="mask0_7_58" style="mask-type:alpha" maskUnits="userSpaceOnUse" x="0" y="0" width="1017" height="225">
<rect width="1017" height="225" fill="black"/>
</mask>
<g mask="url(#mask0_7_58)">
<path d="M1017 0H1V614H1017V0Z" fill="url(#paint0_linear_7_58)"/>
</g>
<rect x="203.5" y="148.5" width="158.742" height="37" stroke="white"/>
<path d="M239.182 170.002C238.57 170.83 237.862 171.424 237.058 171.784C236.254 172.144 235.384 172.324 234.448 172.324C233.476 172.324 232.582 172.162 231.766 171.838C230.962 171.502 230.272 171.04 229.696 170.452C229.12 169.852 228.67 169.144 228.346 168.328C228.022 167.5 227.86 166.6 227.86 165.628C227.86 164.656 228.022 163.762 228.346 162.946C228.67 162.13 229.12 161.428 229.696 160.84C230.272 160.24 230.962 159.772 231.766 159.436C232.582 159.1 233.476 158.932 234.448 158.932C235.312 158.932 236.116 159.088 236.86 159.4C237.616 159.7 238.276 160.21 238.84 160.93L237.868 161.74C237.472 161.14 236.962 160.702 236.338 160.426C235.726 160.15 235.096 160.012 234.448 160.012C233.62 160.012 232.87 160.156 232.198 160.444C231.538 160.732 230.974 161.128 230.506 161.632C230.038 162.136 229.678 162.73 229.426 163.414C229.174 164.098 229.048 164.836 229.048 165.628C229.048 166.42 229.174 167.158 229.426 167.842C229.678 168.526 230.038 169.12 230.506 169.624C230.974 170.128 231.538 170.524 232.198 170.812C232.87 171.1 233.62 171.244 234.448 171.244C234.772 171.244 235.108 171.208 235.456 171.136C235.804 171.052 236.14 170.932 236.464 170.776C236.8 170.608 237.118 170.404 237.418 170.164C237.718 169.912 237.982 169.612 238.21 169.264L239.182 170.002ZM240.534 165.628C240.534 164.656 240.696 163.762 241.02 162.946C241.344 162.13 241.794 161.428 242.37 160.84C242.946 160.24 243.636 159.772 244.44 159.436C245.256 159.1 246.15 158.932 247.122 158.932C248.094 158.932 248.982 159.1 249.786 159.436C250.602 159.772 251.298 160.24 251.874 160.84C252.45 161.428 252.9 162.13 253.224 162.946C253.548 163.762 253.71 164.656 253.71 165.628C253.71 166.6 253.548 167.5 253.224 168.328C252.9 169.144 252.45 169.852 251.874 170.452C251.298 171.04 250.602 171.502 249.786 171.838C248.982 172.162 248.094 172.324 247.122 172.324C246.15 172.324 245.256 172.162 244.44 171.838C243.636 171.502 242.946 171.04 242.37 170.452C241.794 169.852 241.344 169.144 241.02 168.328C240.696 167.5 240.534 166.6 240.534 165.628ZM241.722 165.628C241.722 166.42 241.848 167.158 242.1 167.842C242.352 168.526 242.712 169.12 243.18 169.624C243.648 170.128 244.212 170.524 244.872 170.812C245.544 171.1 246.294 171.244 247.122 171.244C247.95 171.244 248.694 171.1 249.354 170.812C250.026 170.524 250.596 170.128 251.064 169.624C251.532 169.12 251.892 168.526 252.144 167.842C252.396 167.158 252.522 166.42 252.522 165.628C252.522 164.836 252.396 164.098 252.144 163.414C251.892 162.73 251.532 162.136 251.064 161.632C250.596 161.128 250.026 160.732 249.354 160.444C248.694 160.156 247.95 160.012 247.122 160.012C246.294 160.012 245.544 160.156 244.872 160.444C244.212 160.732 243.648 161.128 243.18 161.632C242.712 162.136 242.352 162.73 242.1 163.414C241.848 164.098 241.722 164.836 241.722 165.628ZM256.374 159.256H257.904L265.662 170.416H265.698V159.256H266.886V172H265.356L257.598 160.84H257.562V172H256.374V159.256ZM273.21 160.336H268.854V159.256H278.754V160.336H274.398V172H273.21V160.336ZM283.395 159.256H284.619L289.983 172H288.651L287.265 168.616H280.515L279.075 172H277.833L283.395 159.256ZM283.953 160.552L280.983 167.536H286.833L283.953 160.552ZM302.305 170.002C301.693 170.83 300.985 171.424 300.181 171.784C299.377 172.144 298.507 172.324 297.571 172.324C296.599 172.324 295.705 172.162 294.889 171.838C294.085 171.502 293.395 171.04 292.819 170.452C292.243 169.852 291.793 169.144 291.469 168.328C291.145 167.5 290.983 166.6 290.983 165.628C290.983 164.656 291.145 163.762 291.469 162.946C291.793 162.13 292.243 161.428 292.819 160.84C293.395 160.24 294.085 159.772 294.889 159.436C295.705 159.1 296.599 158.932 297.571 158.932C298.435 158.932 299.239 159.088 299.983 159.4C300.739 159.7 301.399 160.21 301.963 160.93L300.991 161.74C300.595 161.14 300.085 160.702 299.461 160.426C298.849 160.15 298.219 160.012 297.571 160.012C296.743 160.012 295.993 160.156 295.321 160.444C294.661 160.732 294.097 161.128 293.629 161.632C293.161 162.136 292.801 162.73 292.549 163.414C292.297 164.098 292.171 164.836 292.171 165.628C292.171 166.42 292.297 167.158 292.549 167.842C292.801 168.526 293.161 169.12 293.629 169.624C294.097 170.128 294.661 170.524 295.321 170.812C295.993 171.1 296.743 171.244 297.571 171.244C297.895 171.244 298.231 171.208 298.579 171.136C298.927 171.052 299.263 170.932 299.587 170.776C299.923 170.608 300.241 170.404 300.541 170.164C300.841 169.912 301.105 169.612 301.333 169.264L302.305 170.002ZM307.311 160.336H302.955V159.256H312.855V160.336H308.499V172H307.311V160.336ZM328.551 167.122C328.551 167.806 328.473 168.46 328.317 169.084C328.161 169.708 327.897 170.26 327.525 170.74C327.165 171.22 326.685 171.604 326.085 171.892C325.497 172.18 324.771 172.324 323.907 172.324C323.043 172.324 322.311 172.18 321.711 171.892C321.123 171.604 320.643 171.22 320.271 170.74C319.911 170.26 319.653 169.708 319.497 169.084C319.341 168.46 319.263 167.806 319.263 167.122V159.256H320.451V166.816C320.451 167.272 320.493 167.758 320.577 168.274C320.661 168.79 320.823 169.27 321.063 169.714C321.315 170.158 321.663 170.524 322.107 170.812C322.563 171.1 323.163 171.244 323.907 171.244C324.651 171.244 325.245 171.1 325.689 170.812C326.145 170.524 326.493 170.158 326.733 169.714C326.985 169.27 327.153 168.79 327.237 168.274C327.321 167.758 327.363 167.272 327.363 166.816V159.256H328.551V167.122ZM332.144 169.642C332.456 170.182 332.858 170.584 333.35 170.848C333.854 171.112 334.424 171.244 335.06 171.244C335.456 171.244 335.828 171.184 336.176 171.064C336.524 170.944 336.824 170.776 337.076 170.56C337.34 170.344 337.544 170.086 337.688 169.786C337.844 169.474 337.922 169.126 337.922 168.742C337.922 168.298 337.826 167.932 337.634 167.644C337.454 167.356 337.208 167.122 336.896 166.942C336.584 166.75 336.23 166.588 335.834 166.456C335.45 166.324 335.048 166.192 334.628 166.06C334.22 165.928 333.818 165.778 333.422 165.61C333.038 165.442 332.69 165.226 332.378 164.962C332.066 164.686 331.814 164.344 331.622 163.936C331.442 163.528 331.352 163.024 331.352 162.424C331.352 161.86 331.46 161.362 331.676 160.93C331.904 160.486 332.204 160.12 332.576 159.832C332.96 159.532 333.398 159.31 333.89 159.166C334.382 159.01 334.898 158.932 335.438 158.932C336.134 158.932 336.776 159.058 337.364 159.31C337.964 159.55 338.48 159.958 338.912 160.534L337.886 161.272C337.586 160.852 337.232 160.54 336.824 160.336C336.428 160.12 335.954 160.012 335.402 160.012C335.018 160.012 334.652 160.066 334.304 160.174C333.956 160.27 333.65 160.42 333.386 160.624C333.134 160.816 332.93 161.062 332.774 161.362C332.618 161.662 332.54 162.016 332.54 162.424C332.54 163.06 332.702 163.552 333.026 163.9C333.35 164.236 333.752 164.506 334.232 164.71C334.724 164.902 335.252 165.076 335.816 165.232C336.392 165.376 336.92 165.574 337.4 165.826C337.892 166.078 338.3 166.432 338.624 166.888C338.948 167.332 339.11 167.95 339.11 168.742C339.11 169.318 339.002 169.828 338.786 170.272C338.57 170.716 338.276 171.094 337.904 171.406C337.544 171.706 337.124 171.934 336.644 172.09C336.164 172.246 335.666 172.324 335.15 172.324C334.31 172.324 333.536 172.18 332.828 171.892C332.12 171.592 331.514 171.094 331.01 170.398L332.144 169.642Z" fill="white"/>
<path d="M180.915 91.9277C178.799 91.9277 176.822 91.6673 174.982 91.1465C173.16 90.6257 171.613 90.0072 170.344 89.291L168.659 91H166.584L166.267 78.4756H168.366C168.838 79.6637 169.44 80.917 170.173 82.2354C170.905 83.5537 171.752 84.7337 172.712 85.7754C173.705 86.8659 174.812 87.7529 176.032 88.4365C177.269 89.1201 178.71 89.4619 180.354 89.4619C182.567 89.4619 184.26 88.9248 185.432 87.8506C186.62 86.7601 187.214 85.3929 187.214 83.749C187.214 82.3981 186.709 81.2669 185.7 80.3555C184.707 79.4277 183.161 78.6302 181.062 77.9629C179.694 77.5234 178.433 77.1165 177.277 76.7422C176.138 76.3678 175.064 75.9854 174.055 75.5947C171.727 74.667 169.994 73.3405 168.854 71.6152C167.731 69.89 167.17 67.9613 167.17 65.8291C167.17 64.4782 167.463 63.1842 168.049 61.9473C168.635 60.694 169.489 59.571 170.612 58.5781C171.687 57.6504 173.062 56.8936 174.738 56.3076C176.415 55.7217 178.238 55.4287 180.207 55.4287C182.128 55.4287 183.926 55.6973 185.603 56.2344C187.279 56.7552 188.597 57.2842 189.558 57.8213L191.047 56.3564H193.171L193.366 68.1729H191.267C190.778 66.9033 190.201 65.6094 189.533 64.291C188.882 62.9564 188.19 61.8496 187.458 60.9707C186.66 60.0267 185.741 59.278 184.699 58.7246C183.658 58.1549 182.437 57.8701 181.037 57.8701C179.279 57.8701 177.839 58.3665 176.716 59.3594C175.609 60.3522 175.056 61.5811 175.056 63.0459C175.056 64.4294 175.536 65.5605 176.496 66.4395C177.473 67.3184 178.986 68.0915 181.037 68.7588C182.242 69.1657 183.47 69.5726 184.724 69.9795C185.977 70.3864 187.092 70.777 188.068 71.1514C190.428 72.0628 192.219 73.3242 193.439 74.9355C194.676 76.5306 195.295 78.5163 195.295 80.8926C195.295 82.39 194.945 83.8385 194.245 85.2383C193.545 86.638 192.601 87.8018 191.413 88.7295C190.111 89.7549 188.605 90.5443 186.896 91.0977C185.188 91.651 183.194 91.9277 180.915 91.9277ZM230.329 91H215.632V89.2178C215.957 89.1852 216.34 89.1445 216.779 89.0957C217.219 89.0469 217.544 88.9655 217.756 88.8516C218.098 88.6725 218.334 88.4121 218.464 88.0703C218.61 87.7285 218.684 87.224 218.684 86.5566V75.1309C218.684 73.4544 218.366 72.2012 217.731 71.3711C217.113 70.541 216.226 70.126 215.07 70.126C214.419 70.126 213.809 70.2236 213.239 70.4189C212.686 70.6143 212.141 70.8991 211.604 71.2734C211.132 71.599 210.749 71.9326 210.456 72.2744C210.179 72.6162 209.943 72.9173 209.748 73.1777V86.2881C209.748 86.8903 209.821 87.3704 209.968 87.7285C210.114 88.0703 210.391 88.3551 210.798 88.583C211.042 88.7295 211.359 88.8597 211.75 88.9736C212.157 89.0876 212.548 89.1689 212.922 89.2178V91H198.078V89.2178C198.501 89.1852 198.908 89.1445 199.299 89.0957C199.706 89.0469 200.064 88.9655 200.373 88.8516C200.894 88.6562 201.244 88.3796 201.423 88.0215C201.618 87.6471 201.716 87.1589 201.716 86.5566V59.335C201.716 58.8141 201.594 58.2607 201.35 57.6748C201.105 57.0889 200.764 56.6494 200.324 56.3564C199.999 56.1449 199.527 55.9821 198.908 55.8682C198.29 55.738 197.736 55.6566 197.248 55.624V53.8418L209.382 53.207L209.748 53.5977V70.3945H209.846C210.464 69.8411 211.018 69.3447 211.506 68.9053C212.01 68.4495 212.621 67.9938 213.337 67.5381C213.939 67.1475 214.72 66.8138 215.681 66.5371C216.657 66.2604 217.707 66.1221 218.83 66.1221C221.467 66.1221 223.444 66.8789 224.763 68.3926C226.097 69.9062 226.765 71.9001 226.765 74.374V86.3369C226.765 86.9391 226.854 87.4193 227.033 87.7773C227.212 88.1354 227.546 88.4202 228.034 88.6318C228.327 88.762 228.653 88.876 229.011 88.9736C229.369 89.0713 229.808 89.1527 230.329 89.2178V91ZM260.48 90.4873C259.764 90.7965 258.918 91.0814 257.941 91.3418C256.965 91.6022 255.931 91.7324 254.841 91.7324C252.839 91.7324 251.366 91.4395 250.422 90.8535C249.478 90.2513 248.835 89.3968 248.493 88.29H248.347C247.793 88.8434 247.256 89.3154 246.735 89.7061C246.231 90.0967 245.686 90.4303 245.1 90.707C244.335 91.0651 243.594 91.3255 242.878 91.4883C242.178 91.6673 241.193 91.7568 239.924 91.7568C238.036 91.7568 236.424 91.2035 235.09 90.0967C233.755 88.9736 233.088 87.4925 233.088 85.6533C233.088 84.5954 233.234 83.7002 233.527 82.9678C233.82 82.2191 234.235 81.5599 234.772 80.9902C235.261 80.4694 235.822 80.0381 236.457 79.6963C237.108 79.3545 237.816 79.0371 238.581 78.7441C240.046 78.207 241.804 77.6536 243.854 77.084C245.905 76.498 247.403 75.9772 248.347 75.5215V73.1777C248.347 72.7708 248.314 72.2337 248.249 71.5664C248.184 70.8991 248.046 70.3376 247.834 69.8818C247.606 69.361 247.248 68.9215 246.76 68.5635C246.271 68.2054 245.629 68.0264 244.831 68.0264C244.115 68.0264 243.513 68.1322 243.024 68.3438C242.552 68.5391 242.17 68.7425 241.877 68.9541C241.926 69.2796 242.064 69.776 242.292 70.4434C242.52 71.1107 242.634 71.7536 242.634 72.3721C242.634 72.6488 242.561 72.9987 242.414 73.4219C242.268 73.8288 242.056 74.1543 241.779 74.3984C241.405 74.724 240.982 74.9762 240.51 75.1553C240.054 75.3343 239.346 75.4238 238.386 75.4238C237.019 75.4238 235.985 75.0983 235.285 74.4473C234.585 73.7799 234.235 72.9173 234.235 71.8594C234.235 70.9479 234.593 70.1341 235.31 69.418C236.042 68.6855 236.929 68.0833 237.971 67.6113C238.996 67.123 240.176 66.7487 241.511 66.4883C242.845 66.2116 244.082 66.0732 245.222 66.0732C246.8 66.0732 248.249 66.1709 249.567 66.3662C250.886 66.5452 252.074 66.9277 253.132 67.5137C254.141 68.0833 254.938 68.9134 255.524 70.0039C256.127 71.0781 256.428 72.486 256.428 74.2275C256.428 76.0667 256.387 78.2477 256.306 80.7705C256.241 83.2933 256.208 84.9535 256.208 85.751C256.208 86.4834 256.314 87.0612 256.525 87.4844C256.753 87.9076 257.095 88.2249 257.551 88.4365C257.827 88.5667 258.259 88.6481 258.845 88.6807C259.447 88.6969 259.992 88.7051 260.48 88.7051V90.4873ZM248.347 77.7676C247.435 78.0768 246.532 78.4349 245.637 78.8418C244.742 79.2324 244.009 79.6475 243.439 80.0869C242.837 80.5426 242.365 81.1286 242.023 81.8447C241.682 82.5446 241.511 83.3747 241.511 84.335C241.511 85.6045 241.796 86.5241 242.365 87.0938C242.951 87.6634 243.667 87.9482 244.514 87.9482C245.409 87.9482 246.141 87.7692 246.711 87.4111C247.297 87.0368 247.81 86.5811 248.249 86.0439L248.347 77.7676ZM292.097 79.1104C292.097 82.5446 290.949 85.4906 288.654 87.9482C286.359 90.4059 283.454 91.6348 279.938 91.6348C278.376 91.6348 277.106 91.472 276.13 91.1465C275.153 90.8372 274.348 90.4548 273.713 89.999H273.518V96.8594C273.518 97.429 273.64 97.9255 273.884 98.3486C274.144 98.7718 274.502 99.0811 274.958 99.2764C275.397 99.4554 276.016 99.6182 276.813 99.7646C277.627 99.9111 278.303 100.001 278.84 100.033V101.84H261.213V100.033C261.62 100.001 262.132 99.9355 262.751 99.8379C263.369 99.7565 263.833 99.667 264.143 99.5693C264.663 99.3903 265.013 99.0811 265.192 98.6416C265.388 98.2184 265.485 97.7301 265.485 97.1768V72.2012C265.437 71.6641 265.306 71.1921 265.095 70.7852C264.899 70.3783 264.582 70.0202 264.143 69.7109C263.817 69.4993 263.386 69.3285 262.849 69.1982C262.312 69.0518 261.783 68.9541 261.262 68.9053V67.123L273.151 66.4883L273.518 66.8057V69.5156L273.713 69.5645C274.787 68.474 275.975 67.6276 277.277 67.0254C278.596 66.4232 279.898 66.1221 281.184 66.1221C284.553 66.1221 287.214 67.3184 289.167 69.7109C291.12 72.0872 292.097 75.2204 292.097 79.1104ZM283.332 79.208C283.332 77.9873 283.243 76.8236 283.063 75.7168C282.884 74.5938 282.567 73.5928 282.111 72.7139C281.672 71.835 281.086 71.1351 280.354 70.6143C279.637 70.0934 278.758 69.833 277.717 69.833C276.659 69.833 275.812 70.0202 275.178 70.3945C274.543 70.7526 273.99 71.2246 273.518 71.8105V85.6533C273.615 85.9788 273.802 86.402 274.079 86.9229C274.356 87.4274 274.632 87.8343 274.909 88.1436C275.316 88.583 275.78 88.9085 276.301 89.1201C276.822 89.3317 277.391 89.4375 278.01 89.4375C279.621 89.4375 280.907 88.5749 281.867 86.8496C282.844 85.1081 283.332 82.5609 283.332 79.208ZM310.7 91H295.271V89.2178C295.694 89.1852 296.109 89.1445 296.516 89.0957C296.923 89.0469 297.272 88.9655 297.565 88.8516C298.086 88.6562 298.452 88.3796 298.664 88.0215C298.876 87.6471 298.981 87.1589 298.981 86.5566V72.3477C298.981 71.778 298.851 71.2816 298.591 70.8584C298.33 70.4189 298.005 70.069 297.614 69.8086C297.321 69.6133 296.874 69.4261 296.271 69.2471C295.686 69.068 295.148 68.9541 294.66 68.9053V67.123L306.623 66.4883L306.989 66.8545V86.2393C306.989 86.8089 307.111 87.2972 307.355 87.7041C307.6 88.0947 307.95 88.3877 308.405 88.583C308.731 88.7295 309.089 88.8597 309.479 88.9736C309.87 89.0876 310.277 89.1689 310.7 89.2178V91ZM307.136 57.6992C307.136 58.9362 306.656 59.9941 305.695 60.873C304.751 61.7357 303.628 62.167 302.326 62.167C301.008 62.167 299.868 61.7357 298.908 60.873C297.964 59.9941 297.492 58.9362 297.492 57.6992C297.492 56.4622 297.964 55.4043 298.908 54.5254C299.868 53.6465 301.008 53.207 302.326 53.207C303.645 53.207 304.776 53.6465 305.72 54.5254C306.664 55.4043 307.136 56.4622 307.136 57.6992ZM345.173 91H330.476V89.2178C330.785 89.1852 331.159 89.1445 331.599 89.0957C332.038 89.0469 332.372 88.9655 332.6 88.8516C332.941 88.6725 333.186 88.4121 333.332 88.0703C333.479 87.7285 333.552 87.224 333.552 86.5566V75.1309C333.552 73.4707 333.243 72.2256 332.624 71.3955C332.022 70.5492 331.127 70.126 329.938 70.126C329.287 70.126 328.677 70.2236 328.107 70.4189C327.554 70.6143 327.009 70.8991 326.472 71.2734C326 71.599 325.617 71.9326 325.324 72.2744C325.048 72.6162 324.812 72.9173 324.616 73.1777V86.2881C324.616 86.8577 324.698 87.3379 324.86 87.7285C325.023 88.1029 325.292 88.3877 325.666 88.583C325.926 88.7295 326.252 88.8597 326.643 88.9736C327.033 89.0876 327.416 89.1689 327.79 89.2178V91H312.946V89.2178C313.353 89.1852 313.76 89.1445 314.167 89.0957C314.59 89.0306 314.948 88.9492 315.241 88.8516C315.762 88.6725 316.12 88.3958 316.315 88.0215C316.511 87.6471 316.608 87.1589 316.608 86.5566V72.3477C316.608 71.8431 316.478 71.3467 316.218 70.8584C315.957 70.3701 315.616 69.9714 315.192 69.6621C314.899 69.4668 314.525 69.304 314.069 69.1738C313.63 69.0436 313.142 68.9541 312.604 68.9053V67.123L324.25 66.4883L324.616 66.8545V70.3945H324.714C325.17 69.9876 325.723 69.4993 326.374 68.9297C327.025 68.36 327.627 67.8962 328.181 67.5381C328.783 67.1475 329.572 66.8138 330.549 66.5371C331.525 66.2604 332.567 66.1221 333.674 66.1221C336.327 66.1221 338.312 66.8789 339.631 68.3926C340.965 69.89 341.633 71.8838 341.633 74.374V86.3369C341.633 86.9391 341.722 87.4193 341.901 87.7773C342.08 88.1354 342.414 88.4202 342.902 88.6318C343.163 88.7458 343.48 88.8597 343.854 88.9736C344.245 89.0876 344.685 89.1689 345.173 89.2178V91ZM374.812 69.5156H369.44C370.075 70.2318 370.547 70.9886 370.856 71.7861C371.182 72.5837 371.345 73.4137 371.345 74.2764C371.345 75.3994 371.044 76.4574 370.441 77.4502C369.839 78.4268 369.05 79.2243 368.073 79.8428C367.08 80.4775 365.917 80.974 364.582 81.332C363.247 81.6901 361.799 81.8691 360.236 81.8691H356.257C356.062 82.0156 355.842 82.2516 355.598 82.5771C355.37 82.8864 355.256 83.1875 355.256 83.4805C355.256 84.1966 355.541 84.693 356.11 84.9697C356.68 85.2464 357.714 85.401 359.211 85.4336C360.692 85.4661 362.189 85.5312 363.703 85.6289C365.217 85.7103 366.299 85.7591 366.95 85.7754C367.894 85.8242 368.83 86.0195 369.758 86.3613C370.686 86.6868 371.491 87.1182 372.175 87.6553C372.924 88.2249 373.542 88.9574 374.03 89.8525C374.519 90.7314 374.763 91.7487 374.763 92.9043C374.763 94.1413 374.462 95.305 373.859 96.3955C373.273 97.486 372.37 98.43 371.149 99.2275C369.864 100.058 368.317 100.701 366.511 101.156C364.72 101.612 362.499 101.84 359.846 101.84C355.565 101.84 352.31 101.319 350.08 100.277C347.85 99.2357 346.735 97.6732 346.735 95.5898C346.735 94.304 347.338 93.2461 348.542 92.416C349.746 91.5859 351.618 91.1302 354.157 91.0488V90.7559C352.66 90.2513 351.488 89.584 350.642 88.7539C349.812 87.9076 349.396 86.931 349.396 85.8242C349.396 85.1406 349.559 84.5628 349.885 84.0908C350.227 83.6188 350.658 83.2038 351.179 82.8457C351.634 82.5365 352.188 82.276 352.839 82.0645C353.49 81.8366 354.035 81.6576 354.475 81.5273V81.2588C352.277 80.445 350.658 79.4521 349.616 78.2803C348.591 77.1084 348.078 75.6761 348.078 73.9834C348.078 71.5908 349.177 69.6784 351.374 68.2461C353.588 66.8138 356.387 66.0977 359.772 66.0977C360.879 66.0977 361.945 66.1953 362.971 66.3906C364.012 66.5697 364.802 66.7324 365.339 66.8789H374.812V69.5156ZM363.361 74.1787C363.361 72.2744 363.06 70.7689 362.458 69.6621C361.856 68.5553 360.928 68.002 359.675 68.002C359.04 68.002 358.487 68.1566 358.015 68.4658C357.543 68.7588 357.16 69.1901 356.867 69.7598C356.59 70.3132 356.403 70.9642 356.306 71.7129C356.208 72.4453 356.159 73.2021 356.159 73.9834C356.159 75.7575 356.468 77.2142 357.087 78.3535C357.705 79.4928 358.584 80.0625 359.724 80.0625C360.896 80.0625 361.791 79.5498 362.409 78.5244C363.044 77.499 363.361 76.0505 363.361 74.1787ZM367.463 94.6865C367.463 94.1331 367.308 93.5798 366.999 93.0264C366.69 92.4893 365.998 92.0498 364.924 91.708C364.338 91.6104 363.369 91.5452 362.019 91.5127C360.684 91.4801 358.845 91.4639 356.501 91.4639C355.931 91.9521 355.451 92.5299 355.061 93.1973C354.686 93.8646 354.499 94.6702 354.499 95.6143C354.499 96.0212 354.613 96.4688 354.841 96.957C355.069 97.4453 355.427 97.901 355.915 98.3242C356.485 98.7962 357.119 99.1624 357.819 99.4229C358.519 99.6995 359.577 99.8379 360.993 99.8379C363.093 99.8379 364.696 99.431 365.803 98.6172C366.91 97.8034 367.463 96.4932 367.463 94.6865ZM413.947 69.6621C415.152 70.7852 416.071 72.1279 416.706 73.6904C417.341 75.2529 417.658 76.9456 417.658 78.7686C417.658 80.5752 417.341 82.2842 416.706 83.8955C416.088 85.4906 415.176 86.8577 413.972 87.9971C412.686 89.2178 411.148 90.1536 409.357 90.8047C407.583 91.4557 405.549 91.7812 403.254 91.7812C401.268 91.7812 399.437 91.4964 397.761 90.9268C396.101 90.3571 394.628 89.5026 393.342 88.3633C392.105 87.2728 391.128 85.93 390.412 84.335C389.696 82.7236 389.338 80.9251 389.338 78.9395C389.338 76.9863 389.647 75.2529 390.266 73.7393C390.9 72.2093 391.844 70.8503 393.098 69.6621C394.302 68.5228 395.783 67.6439 397.541 67.0254C399.315 66.3906 401.293 66.0732 403.474 66.0732C405.752 66.0732 407.754 66.3906 409.479 67.0254C411.221 67.6439 412.71 68.5228 413.947 69.6621ZM407.697 86.5811C408.055 85.6696 408.316 84.5628 408.479 83.2607C408.658 81.9587 408.747 80.445 408.747 78.7197C408.747 77.5804 408.666 76.2783 408.503 74.8135C408.34 73.3486 408.096 72.193 407.771 71.3467C407.38 70.3213 406.835 69.5156 406.135 68.9297C405.451 68.3438 404.58 68.0508 403.522 68.0508C402.367 68.0508 401.439 68.3682 400.739 69.0029C400.056 69.6377 399.527 70.4596 399.152 71.4688C398.811 72.3965 398.575 73.487 398.444 74.7402C398.314 75.9772 398.249 77.2712 398.249 78.6221C398.249 80.3962 398.306 81.8691 398.42 83.041C398.534 84.1966 398.811 85.3604 399.25 86.5322C399.624 87.5413 400.161 88.3389 400.861 88.9248C401.561 89.5107 402.448 89.8037 403.522 89.8037C404.499 89.8037 405.337 89.5352 406.037 88.998C406.737 88.4447 407.29 87.639 407.697 86.5811ZM452.668 90.4873L441.022 91.1953L440.656 90.8535V87.6553H440.51C439.956 88.1598 439.411 88.6562 438.874 89.1445C438.353 89.6165 437.727 90.0479 436.994 90.4385C436.164 90.8779 435.375 91.2035 434.626 91.415C433.894 91.6266 432.819 91.7324 431.403 91.7324C428.946 91.7324 427.058 90.9919 425.739 89.5107C424.437 88.0296 423.786 85.9382 423.786 83.2363V72.25C423.786 71.6152 423.664 71.1025 423.42 70.7119C423.176 70.305 422.85 69.9469 422.443 69.6377C422.118 69.3936 421.695 69.2227 421.174 69.125C420.653 69.0111 420.181 68.9378 419.758 68.9053V67.123L431.599 66.4883L431.867 66.8545V83.0898C431.867 84.7663 432.185 86.0033 432.819 86.8008C433.47 87.5983 434.357 87.9971 435.48 87.9971C436.636 87.9971 437.67 87.696 438.581 87.0938C439.509 86.4915 440.184 85.8486 440.607 85.165V72.0059C440.607 71.4525 440.502 70.9561 440.29 70.5166C440.078 70.0771 439.769 69.7191 439.362 69.4424C439.069 69.2471 438.646 69.1169 438.093 69.0518C437.556 68.9867 437.002 68.9378 436.433 68.9053V67.123L448.273 66.4883L448.64 66.8545V85.7021C448.64 86.2718 448.754 86.7601 448.981 87.167C449.209 87.5576 449.543 87.8913 449.982 88.168C450.292 88.3633 450.69 88.5016 451.179 88.583C451.683 88.6481 452.18 88.6888 452.668 88.7051V90.4873ZM478.962 71.249C478.962 72.486 478.579 73.5765 477.814 74.5205C477.049 75.4482 476.04 75.9121 474.787 75.9121C473.599 75.9121 472.59 75.611 471.76 75.0088C470.946 74.4066 470.539 73.5195 470.539 72.3477C470.539 71.778 470.58 71.3385 470.661 71.0293C470.743 70.7038 470.816 70.4027 470.881 70.126C470.132 70.1585 469.343 70.4189 468.513 70.9072C467.683 71.3955 466.95 72.0465 466.315 72.8604V86.2637C466.315 86.8333 466.405 87.3053 466.584 87.6797C466.763 88.054 467.064 88.347 467.487 88.5586C467.845 88.7376 468.423 88.8923 469.221 89.0225C470.035 89.1364 470.62 89.2015 470.979 89.2178V91H454.646V89.2178C455.052 89.1852 455.459 89.1445 455.866 89.0957C456.289 89.0306 456.647 88.9492 456.94 88.8516C457.461 88.6725 457.819 88.3958 458.015 88.0215C458.21 87.6471 458.308 87.1589 458.308 86.5566V72.3477C458.308 71.7617 458.169 71.2409 457.893 70.7852C457.616 70.3132 457.282 69.9388 456.892 69.6621C456.599 69.4668 456.224 69.304 455.769 69.1738C455.329 69.0436 454.841 68.9541 454.304 68.9053V67.123L465.949 66.4883L466.315 66.8545V70.3945H466.413C467.536 69.0924 468.724 68.0752 469.978 67.3428C471.247 66.5941 472.565 66.2197 473.933 66.2197C475.446 66.2197 476.659 66.6917 477.57 67.6357C478.498 68.5635 478.962 69.7679 478.962 71.249ZM524.934 90.4873L512.897 91.1953L512.531 90.8535V88.6074L512.36 88.5586C511.563 89.4212 510.48 90.1781 509.113 90.8291C507.762 91.4639 506.395 91.7812 505.012 91.7812C501.724 91.7812 499.014 90.5605 496.882 88.1191C494.75 85.6777 493.684 82.5202 493.684 78.6465C493.684 75.2122 494.872 72.2663 497.248 69.8086C499.641 67.3509 502.53 66.1221 505.915 66.1221C507.25 66.1221 508.503 66.2767 509.675 66.5859C510.847 66.8789 511.783 67.2288 512.482 67.6357V59.6523C512.482 59.0501 512.36 58.4886 512.116 57.9678C511.872 57.4307 511.547 57.0156 511.14 56.7227C510.635 56.3646 510 56.1123 509.235 55.9658C508.487 55.8031 507.73 55.6891 506.965 55.624V53.8418L520.148 53.207L520.515 53.5977V85.6045C520.515 86.223 520.612 86.7438 520.808 87.167C521.019 87.5902 521.353 87.9238 521.809 88.168C522.15 88.347 522.647 88.4772 523.298 88.5586C523.965 88.64 524.51 88.6888 524.934 88.7051V90.4873ZM512.482 86.1416V72.3477C512.368 71.9733 512.206 71.5583 511.994 71.1025C511.799 70.6468 511.522 70.2155 511.164 69.8086C510.839 69.4668 510.399 69.1657 509.846 68.9053C509.309 68.6449 508.698 68.5146 508.015 68.5146C506.387 68.5146 505.052 69.4342 504.011 71.2734C502.969 73.1126 502.448 75.7087 502.448 79.0615C502.448 80.3799 502.538 81.568 502.717 82.626C502.912 83.6676 503.246 84.6198 503.718 85.4824C504.19 86.3451 504.792 87.0205 505.524 87.5088C506.273 87.9971 507.168 88.2412 508.21 88.2412C509.203 88.2412 510.025 88.054 510.676 87.6797C511.327 87.2891 511.929 86.7764 512.482 86.1416ZM541.95 91H526.521V89.2178C526.944 89.1852 527.359 89.1445 527.766 89.0957C528.173 89.0469 528.522 88.9655 528.815 88.8516C529.336 88.6562 529.702 88.3796 529.914 88.0215C530.126 87.6471 530.231 87.1589 530.231 86.5566V72.3477C530.231 71.778 530.101 71.2816 529.841 70.8584C529.58 70.4189 529.255 70.069 528.864 69.8086C528.571 69.6133 528.124 69.4261 527.521 69.2471C526.936 69.068 526.398 68.9541 525.91 68.9053V67.123L537.873 66.4883L538.239 66.8545V86.2393C538.239 86.8089 538.361 87.2972 538.605 87.7041C538.85 88.0947 539.2 88.3877 539.655 88.583C539.981 88.7295 540.339 88.8597 540.729 88.9736C541.12 89.0876 541.527 89.1689 541.95 89.2178V91ZM538.386 57.6992C538.386 58.9362 537.906 59.9941 536.945 60.873C536.001 61.7357 534.878 62.167 533.576 62.167C532.258 62.167 531.118 61.7357 530.158 60.873C529.214 59.9941 528.742 58.9362 528.742 57.6992C528.742 56.4622 529.214 55.4043 530.158 54.5254C531.118 53.6465 532.258 53.207 533.576 53.207C534.895 53.207 536.026 53.6465 536.97 54.5254C537.914 55.4043 538.386 56.4622 538.386 57.6992ZM571.54 69.5156H566.169C566.804 70.2318 567.276 70.9886 567.585 71.7861C567.91 72.5837 568.073 73.4137 568.073 74.2764C568.073 75.3994 567.772 76.4574 567.17 77.4502C566.568 78.4268 565.778 79.2243 564.802 79.8428C563.809 80.4775 562.645 80.974 561.311 81.332C559.976 81.6901 558.527 81.8691 556.965 81.8691H552.985C552.79 82.0156 552.57 82.2516 552.326 82.5771C552.098 82.8864 551.984 83.1875 551.984 83.4805C551.984 84.1966 552.269 84.693 552.839 84.9697C553.409 85.2464 554.442 85.401 555.939 85.4336C557.421 85.4661 558.918 85.5312 560.432 85.6289C561.945 85.7103 563.028 85.7591 563.679 85.7754C564.623 85.8242 565.559 86.0195 566.486 86.3613C567.414 86.6868 568.22 87.1182 568.903 87.6553C569.652 88.2249 570.271 88.9574 570.759 89.8525C571.247 90.7314 571.491 91.7487 571.491 92.9043C571.491 94.1413 571.19 95.305 570.588 96.3955C570.002 97.486 569.099 98.43 567.878 99.2275C566.592 100.058 565.046 100.701 563.239 101.156C561.449 101.612 559.227 101.84 556.574 101.84C552.294 101.84 549.038 101.319 546.809 100.277C544.579 99.2357 543.464 97.6732 543.464 95.5898C543.464 94.304 544.066 93.2461 545.271 92.416C546.475 91.5859 548.347 91.1302 550.886 91.0488V90.7559C549.388 90.2513 548.216 89.584 547.37 88.7539C546.54 87.9076 546.125 86.931 546.125 85.8242C546.125 85.1406 546.288 84.5628 546.613 84.0908C546.955 83.6188 547.386 83.2038 547.907 82.8457C548.363 82.5365 548.916 82.276 549.567 82.0645C550.218 81.8366 550.764 81.6576 551.203 81.5273V81.2588C549.006 80.445 547.386 79.4521 546.345 78.2803C545.319 77.1084 544.807 75.6761 544.807 73.9834C544.807 71.5908 545.905 69.6784 548.103 68.2461C550.316 66.8138 553.116 66.0977 556.501 66.0977C557.608 66.0977 558.674 66.1953 559.699 66.3906C560.741 66.5697 561.53 66.7324 562.067 66.8789H571.54V69.5156ZM560.09 74.1787C560.09 72.2744 559.789 70.7689 559.187 69.6621C558.584 68.5553 557.657 68.002 556.403 68.002C555.769 68.002 555.215 68.1566 554.743 68.4658C554.271 68.7588 553.889 69.1901 553.596 69.7598C553.319 70.3132 553.132 70.9642 553.034 71.7129C552.937 72.4453 552.888 73.2021 552.888 73.9834C552.888 75.7575 553.197 77.2142 553.815 78.3535C554.434 79.4928 555.313 80.0625 556.452 80.0625C557.624 80.0625 558.519 79.5498 559.138 78.5244C559.772 77.499 560.09 76.0505 560.09 74.1787ZM564.191 94.6865C564.191 94.1331 564.037 93.5798 563.728 93.0264C563.418 92.4893 562.727 92.0498 561.652 91.708C561.066 91.6104 560.098 91.5452 558.747 91.5127C557.412 91.4801 555.573 91.4639 553.229 91.4639C552.66 91.9521 552.18 92.5299 551.789 93.1973C551.415 93.8646 551.228 94.6702 551.228 95.6143C551.228 96.0212 551.341 96.4688 551.569 96.957C551.797 97.4453 552.155 97.901 552.644 98.3242C553.213 98.7962 553.848 99.1624 554.548 99.4229C555.248 99.6995 556.306 99.8379 557.722 99.8379C559.821 99.8379 561.424 99.431 562.531 98.6172C563.638 97.8034 564.191 96.4932 564.191 94.6865ZM588.483 91H573.054V89.2178C573.477 89.1852 573.892 89.1445 574.299 89.0957C574.706 89.0469 575.056 88.9655 575.349 88.8516C575.869 88.6562 576.236 88.3796 576.447 88.0215C576.659 87.6471 576.765 87.1589 576.765 86.5566V72.3477C576.765 71.778 576.634 71.2816 576.374 70.8584C576.114 70.4189 575.788 70.069 575.397 69.8086C575.104 69.6133 574.657 69.4261 574.055 69.2471C573.469 69.068 572.932 68.9541 572.443 68.9053V67.123L584.406 66.4883L584.772 66.8545V86.2393C584.772 86.8089 584.895 87.2972 585.139 87.7041C585.383 88.0947 585.733 88.3877 586.188 88.583C586.514 88.7295 586.872 88.8597 587.263 88.9736C587.653 89.0876 588.06 89.1689 588.483 89.2178V91ZM584.919 57.6992C584.919 58.9362 584.439 59.9941 583.479 60.873C582.535 61.7357 581.411 62.167 580.109 62.167C578.791 62.167 577.652 61.7357 576.691 60.873C575.747 59.9941 575.275 58.9362 575.275 57.6992C575.275 56.4622 575.747 55.4043 576.691 54.5254C577.652 53.6465 578.791 53.207 580.109 53.207C581.428 53.207 582.559 53.6465 583.503 54.5254C584.447 55.4043 584.919 56.4622 584.919 57.6992ZM608.894 89.877C607.852 90.3327 606.737 90.7396 605.549 91.0977C604.361 91.472 602.912 91.6592 601.203 91.6592C598.664 91.6592 596.776 91.0407 595.539 89.8037C594.318 88.5667 593.708 86.8008 593.708 84.5059V69.5156H589.313V66.8789H593.806V59.4814H601.74V66.8789H608.576V69.5156H601.789V82.8945C601.789 84.7988 602.049 86.1497 602.57 86.9473C603.107 87.7448 604.06 88.1436 605.427 88.1436C605.866 88.1436 606.477 88.111 607.258 88.0459C608.039 87.9808 608.584 87.9076 608.894 87.8262V89.877ZM638.508 90.4873C637.792 90.7965 636.945 91.0814 635.969 91.3418C634.992 91.6022 633.959 91.7324 632.868 91.7324C630.866 91.7324 629.393 91.4395 628.449 90.8535C627.505 90.2513 626.862 89.3968 626.521 88.29H626.374C625.821 88.8434 625.284 89.3154 624.763 89.7061C624.258 90.0967 623.713 90.4303 623.127 90.707C622.362 91.0651 621.621 91.3255 620.905 91.4883C620.205 91.6673 619.221 91.7568 617.951 91.7568C616.063 91.7568 614.452 91.2035 613.117 90.0967C611.783 88.9736 611.115 87.4925 611.115 85.6533C611.115 84.5954 611.262 83.7002 611.555 82.9678C611.848 82.2191 612.263 81.5599 612.8 80.9902C613.288 80.4694 613.85 80.0381 614.484 79.6963C615.135 79.3545 615.843 79.0371 616.608 78.7441C618.073 78.207 619.831 77.6536 621.882 77.084C623.933 76.498 625.43 75.9772 626.374 75.5215V73.1777C626.374 72.7708 626.341 72.2337 626.276 71.5664C626.211 70.8991 626.073 70.3376 625.861 69.8818C625.633 69.361 625.275 68.9215 624.787 68.5635C624.299 68.2054 623.656 68.0264 622.858 68.0264C622.142 68.0264 621.54 68.1322 621.052 68.3438C620.58 68.5391 620.197 68.7425 619.904 68.9541C619.953 69.2796 620.091 69.776 620.319 70.4434C620.547 71.1107 620.661 71.7536 620.661 72.3721C620.661 72.6488 620.588 72.9987 620.441 73.4219C620.295 73.8288 620.083 74.1543 619.807 74.3984C619.432 74.724 619.009 74.9762 618.537 75.1553C618.081 75.3343 617.373 75.4238 616.413 75.4238C615.046 75.4238 614.012 75.0983 613.312 74.4473C612.613 73.7799 612.263 72.9173 612.263 71.8594C612.263 70.9479 612.621 70.1341 613.337 69.418C614.069 68.6855 614.956 68.0833 615.998 67.6113C617.023 67.123 618.203 66.7487 619.538 66.4883C620.873 66.2116 622.11 66.0732 623.249 66.0732C624.828 66.0732 626.276 66.1709 627.595 66.3662C628.913 66.5452 630.101 66.9277 631.159 67.5137C632.168 68.0833 632.966 68.9134 633.552 70.0039C634.154 71.0781 634.455 72.486 634.455 74.2275C634.455 76.0667 634.414 78.2477 634.333 80.7705C634.268 83.2933 634.235 84.9535 634.235 85.751C634.235 86.4834 634.341 87.0612 634.553 87.4844C634.781 87.9076 635.122 88.2249 635.578 88.4365C635.855 88.5667 636.286 88.6481 636.872 88.6807C637.474 88.6969 638.02 88.7051 638.508 88.7051V90.4873ZM626.374 77.7676C625.463 78.0768 624.559 78.4349 623.664 78.8418C622.769 79.2324 622.036 79.6475 621.467 80.0869C620.865 80.5426 620.393 81.1286 620.051 81.8447C619.709 82.5446 619.538 83.3747 619.538 84.335C619.538 85.6045 619.823 86.5241 620.393 87.0938C620.979 87.6634 621.695 87.9482 622.541 87.9482C623.436 87.9482 624.169 87.7692 624.738 87.4111C625.324 87.0368 625.837 86.5811 626.276 86.0439L626.374 77.7676ZM655.256 91H639.948V89.2178C640.371 89.1852 640.778 89.1445 641.169 89.0957C641.576 89.0469 641.934 88.9655 642.243 88.8516C642.764 88.6562 643.114 88.3796 643.293 88.0215C643.488 87.6471 643.586 87.1589 643.586 86.5566V59.5059C643.586 58.8874 643.456 58.3177 643.195 57.7969C642.951 57.2598 642.618 56.8529 642.194 56.5762C641.869 56.3646 641.372 56.1611 640.705 55.9658C640.054 55.7705 639.476 55.6566 638.972 55.624V53.8418L651.252 53.207L651.618 53.5977V86.2393C651.618 86.8415 651.724 87.3298 651.936 87.7041C652.147 88.0785 652.489 88.3714 652.961 88.583C653.286 88.7295 653.628 88.8597 653.986 88.9736C654.344 89.0876 654.768 89.1689 655.256 89.2178V91ZM684.26 91.7812C681.997 91.7812 679.995 91.4557 678.254 90.8047C676.529 90.1374 675.104 89.234 673.981 88.0947C672.858 86.9391 672.02 85.5719 671.467 83.9932C670.913 82.4144 670.637 80.6973 670.637 78.8418C670.637 77.1491 670.97 75.5378 671.638 74.0078C672.321 72.4779 673.241 71.1351 674.396 69.9795C675.585 68.7913 677.058 67.8473 678.815 67.1475C680.59 66.4313 682.543 66.0732 684.675 66.0732C687.67 66.0732 690.038 66.6429 691.779 67.7822C693.521 68.9053 694.392 70.4271 694.392 72.3477C694.392 73.5195 694.082 74.4635 693.464 75.1797C692.845 75.8958 691.779 76.2539 690.266 76.2539C689.045 76.2539 688.02 75.9609 687.189 75.375C686.376 74.7891 685.969 74.0241 685.969 73.0801C685.969 72.2826 686.099 71.4932 686.359 70.7119C686.62 69.9307 686.774 69.3366 686.823 68.9297C686.644 68.6367 686.416 68.417 686.14 68.2705C685.863 68.1077 685.432 68.0264 684.846 68.0264C684.113 68.0264 683.446 68.1973 682.844 68.5391C682.242 68.8809 681.68 69.4831 681.159 70.3457C680.655 71.1595 680.248 72.25 679.938 73.6172C679.646 74.9844 679.499 76.6283 679.499 78.5488C679.499 81.446 680.174 83.7816 681.525 85.5557C682.893 87.3298 684.52 88.2168 686.408 88.2168C688.215 88.2168 689.647 87.818 690.705 87.0205C691.779 86.2067 692.731 85.0592 693.562 83.5781L695.393 84.8477C694.888 85.8405 694.286 86.752 693.586 87.582C692.886 88.3958 692.048 89.1201 691.071 89.7549C690.046 90.4222 689.004 90.9268 687.946 91.2686C686.888 91.6104 685.66 91.7812 684.26 91.7812ZM728.742 90.4873L717.097 91.1953L716.73 90.8535V87.6553H716.584C716.031 88.1598 715.485 88.6562 714.948 89.1445C714.427 89.6165 713.801 90.0479 713.068 90.4385C712.238 90.8779 711.449 91.2035 710.7 91.415C709.968 91.6266 708.894 91.7324 707.478 91.7324C705.02 91.7324 703.132 90.9919 701.813 89.5107C700.511 88.0296 699.86 85.9382 699.86 83.2363V72.25C699.86 71.6152 699.738 71.1025 699.494 70.7119C699.25 70.305 698.924 69.9469 698.518 69.6377C698.192 69.3936 697.769 69.2227 697.248 69.125C696.727 69.0111 696.255 68.9378 695.832 68.9053V67.123L707.673 66.4883L707.941 66.8545V83.0898C707.941 84.7663 708.259 86.0033 708.894 86.8008C709.545 87.5983 710.432 87.9971 711.555 87.9971C712.71 87.9971 713.744 87.696 714.655 87.0938C715.583 86.4915 716.258 85.8486 716.682 85.165V72.0059C716.682 71.4525 716.576 70.9561 716.364 70.5166C716.153 70.0771 715.843 69.7191 715.437 69.4424C715.144 69.2471 714.72 69.1169 714.167 69.0518C713.63 68.9867 713.076 68.9378 712.507 68.9053V67.123L724.348 66.4883L724.714 66.8545V85.7021C724.714 86.2718 724.828 86.7601 725.056 87.167C725.284 87.5576 725.617 87.8913 726.057 88.168C726.366 88.3633 726.765 88.5016 727.253 88.583C727.757 88.6481 728.254 88.6888 728.742 88.7051V90.4873ZM745.588 91H730.28V89.2178C730.703 89.1852 731.11 89.1445 731.501 89.0957C731.908 89.0469 732.266 88.9655 732.575 88.8516C733.096 88.6562 733.446 88.3796 733.625 88.0215C733.82 87.6471 733.918 87.1589 733.918 86.5566V59.5059C733.918 58.8874 733.788 58.3177 733.527 57.7969C733.283 57.2598 732.95 56.8529 732.526 56.5762C732.201 56.3646 731.704 56.1611 731.037 55.9658C730.386 55.7705 729.808 55.6566 729.304 55.624V53.8418L741.584 53.207L741.95 53.5977V86.2393C741.95 86.8415 742.056 87.3298 742.268 87.7041C742.479 88.0785 742.821 88.3714 743.293 88.583C743.618 88.7295 743.96 88.8597 744.318 88.9736C744.676 89.0876 745.1 89.1689 745.588 89.2178V91ZM766.12 89.877C765.078 90.3327 763.964 90.7396 762.775 91.0977C761.587 91.472 760.139 91.6592 758.43 91.6592C755.891 91.6592 754.003 91.0407 752.766 89.8037C751.545 88.5667 750.935 86.8008 750.935 84.5059V69.5156H746.54V66.8789H751.032V59.4814H758.967V66.8789H765.803V69.5156H759.016V82.8945C759.016 84.7988 759.276 86.1497 759.797 86.9473C760.334 87.7448 761.286 88.1436 762.653 88.1436C763.093 88.1436 763.703 88.111 764.484 88.0459C765.266 87.9808 765.811 87.9076 766.12 87.8262V89.877ZM799.689 90.4873L788.044 91.1953L787.678 90.8535V87.6553H787.531C786.978 88.1598 786.433 88.6562 785.896 89.1445C785.375 89.6165 784.748 90.0479 784.016 90.4385C783.186 90.8779 782.396 91.2035 781.647 91.415C780.915 91.6266 779.841 91.7324 778.425 91.7324C775.967 91.7324 774.079 90.9919 772.761 89.5107C771.459 88.0296 770.808 85.9382 770.808 83.2363V72.25C770.808 71.6152 770.686 71.1025 770.441 70.7119C770.197 70.305 769.872 69.9469 769.465 69.6377C769.139 69.3936 768.716 69.2227 768.195 69.125C767.674 69.0111 767.202 68.9378 766.779 68.9053V67.123L778.62 66.4883L778.889 66.8545V83.0898C778.889 84.7663 779.206 86.0033 779.841 86.8008C780.492 87.5983 781.379 87.9971 782.502 87.9971C783.658 87.9971 784.691 87.696 785.603 87.0938C786.53 86.4915 787.206 85.8486 787.629 85.165V72.0059C787.629 71.4525 787.523 70.9561 787.312 70.5166C787.1 70.0771 786.791 69.7191 786.384 69.4424C786.091 69.2471 785.668 69.1169 785.114 69.0518C784.577 68.9867 784.024 68.9378 783.454 68.9053V67.123L795.295 66.4883L795.661 66.8545V85.7021C795.661 86.2718 795.775 86.7601 796.003 87.167C796.231 87.5576 796.564 87.8913 797.004 88.168C797.313 88.3633 797.712 88.5016 798.2 88.583C798.705 88.6481 799.201 88.6888 799.689 88.7051V90.4873ZM825.983 71.249C825.983 72.486 825.601 73.5765 824.836 74.5205C824.071 75.4482 823.062 75.9121 821.809 75.9121C820.62 75.9121 819.611 75.611 818.781 75.0088C817.967 74.4066 817.561 73.5195 817.561 72.3477C817.561 71.778 817.601 71.3385 817.683 71.0293C817.764 70.7038 817.837 70.4027 817.902 70.126C817.154 70.1585 816.364 70.4189 815.534 70.9072C814.704 71.3955 813.972 72.0465 813.337 72.8604V86.2637C813.337 86.8333 813.426 87.3053 813.605 87.6797C813.785 88.054 814.086 88.347 814.509 88.5586C814.867 88.7376 815.445 88.8923 816.242 89.0225C817.056 89.1364 817.642 89.2015 818 89.2178V91H801.667V89.2178C802.074 89.1852 802.481 89.1445 802.888 89.0957C803.311 89.0306 803.669 88.9492 803.962 88.8516C804.483 88.6725 804.841 88.3958 805.036 88.0215C805.231 87.6471 805.329 87.1589 805.329 86.5566V72.3477C805.329 71.7617 805.191 71.2409 804.914 70.7852C804.637 70.3132 804.304 69.9388 803.913 69.6621C803.62 69.4668 803.246 69.304 802.79 69.1738C802.351 69.0436 801.862 68.9541 801.325 68.9053V67.123L812.971 66.4883L813.337 66.8545V70.3945H813.435C814.558 69.0924 815.746 68.0752 816.999 67.3428C818.269 66.5941 819.587 66.2197 820.954 66.2197C822.468 66.2197 823.68 66.6917 824.592 67.6357C825.52 68.5635 825.983 69.7679 825.983 71.249ZM853.938 85.165C853.368 86.0928 852.676 86.9717 851.862 87.8018C851.065 88.6156 850.153 89.3154 849.128 89.9014C848.037 90.5199 846.931 90.9837 845.808 91.293C844.701 91.6185 843.423 91.7812 841.975 91.7812C839.566 91.7812 837.482 91.4395 835.725 90.7559C833.983 90.0723 832.543 89.1527 831.403 87.9971C830.264 86.8415 829.41 85.4824 828.84 83.9199C828.286 82.3411 828.01 80.6322 828.01 78.793C828.01 77.1328 828.311 75.5459 828.913 74.0322C829.532 72.5023 830.402 71.1432 831.525 69.9551C832.632 68.7995 834.024 67.8636 835.7 67.1475C837.393 66.4313 839.281 66.0732 841.364 66.0732C843.643 66.0732 845.515 66.3499 846.979 66.9033C848.444 67.4567 849.657 68.2217 850.617 69.1982C851.545 70.126 852.22 71.2246 852.644 72.4941C853.067 73.7474 853.278 75.0658 853.278 76.4492V78.0361H836.774C836.774 81.3727 837.417 83.9118 838.703 85.6533C839.989 87.3949 842.032 88.2656 844.831 88.2656C846.361 88.2656 847.736 87.8506 848.957 87.0205C850.178 86.1742 851.219 85.1081 852.082 83.8223L853.938 85.165ZM844.611 75.8877C844.611 74.9111 844.562 73.9102 844.465 72.8848C844.367 71.8594 844.196 71.0212 843.952 70.3701C843.675 69.6051 843.293 69.0273 842.805 68.6367C842.333 68.2461 841.73 68.0508 840.998 68.0508C839.745 68.0508 838.744 68.6855 837.995 69.9551C837.246 71.2246 836.84 73.2347 836.774 75.9854L844.611 75.8877ZM867.927 86.9473C867.927 88.2331 867.447 89.348 866.486 90.292C865.542 91.236 864.419 91.708 863.117 91.708C861.799 91.708 860.66 91.2441 859.699 90.3164C858.755 89.3724 858.283 88.2493 858.283 86.9473C858.283 85.6452 858.755 84.5221 859.699 83.5781C860.66 82.6178 861.799 82.1377 863.117 82.1377C864.419 82.1377 865.542 82.6178 866.486 83.5781C867.447 84.5384 867.927 85.6615 867.927 86.9473Z" fill="white"/>
<defs>
<linearGradient id="paint0_linear_7_58" x1="978.392" y1="614" x2="154.784" y2="635.846" gradientUnits="userSpaceOnUse">
<stop stop-color="#F3A83A" stop-opacity="0"/>
<stop offset="0.882" stop-color="#1D272C"/>
<stop offset="1" stop-color="#0D1731"/>
</linearGradient>
</defs>
</svg>
