<svg id="Layer_1" data-name="Layer 1" xmlns="http://www.w3.org/2000/svg" viewBox="0 0 17.6 20.13"><defs><style>.cls-1{fill:#fff;}</style></defs><path class="cls-1" d="M12.36,7.18c0,1,0,1.92,0,2.87a3.47,3.47,0,0,1-1.8,3.17,3.67,3.67,0,0,1-4-.35A3.67,3.67,0,0,1,5.25,10c0-1.88,0-3.75,0-5.63A3.56,3.56,0,0,1,11.4,1.76a3.47,3.47,0,0,1,.95,2.5C12.36,5.23,12.36,6.21,12.36,7.18Z"/><path class="cls-1" d="M9.69,16.59v1.27h.56c.39,0,.78,0,1.16,0a1.16,1.16,0,0,1,.94,1.22.58.58,0,0,1-.62.51c-.18,0-.35,0-.52,0H6c-.44,0-.7-.19-.73-.51a1.15,1.15,0,0,1,.91-1.21c.46-.05.92,0,1.39-.05h.36c0-.41,0-.8,0-1.19,0-.06-.11-.14-.19-.16-.58-.21-1.2-.35-1.76-.61a6.36,6.36,0,0,1-3-3.13,8.64,8.64,0,0,1-.67-4.11.85.85,0,0,1,.8-.88A.85.85,0,0,1,4,8.26a1.38,1.38,0,0,1,.08.5,9.24,9.24,0,0,0,.16,2.29,4.85,4.85,0,0,0,3.36,3.64,4.4,4.4,0,0,0,4-.68,4.62,4.62,0,0,0,2-3.63c0-.54,0-1.09,0-1.63a.87.87,0,0,1,.73-1,.81.81,0,0,1,1,.73A10.54,10.54,0,0,1,15,12.11a6.53,6.53,0,0,1-2.31,3.23A6.31,6.31,0,0,1,10,16.51Z"/></svg>