<svg width="99" height="35" viewBox="0 0 99 35" fill="none" xmlns="http://www.w3.org/2000/svg">
<g clip-path="url(#clip0_20_2)">
<path d="M2.43124 0.360413H0L6.72021 19.5009H9.98281L16.9278 0.360413H14.2387L8.4639 17.3644L2.43124 0.360413Z" fill="white"/>
<path d="M21.3423 28.5013H20.5292L22.7753 34.8994H23.8661L26.1866 28.5013H25.2875L23.3571 34.185L21.3423 28.5013Z" fill="white"/>
<path d="M43.179 2.23388V0.360413H31.7698H29.3799V2.23388V8.77476V10.6482V17.6291V19.5009H31.7698H43.179V17.6291H31.7698V10.6482H43.179V8.77476H31.7698V2.23388H43.179Z" fill="white"/>
<path d="M58.5266 17.6291V0.360413H56.1367V17.6291V19.5009H58.5266H68.8036V17.6291H58.5266Z" fill="white"/>
<path d="M65.1543 35H66.1857L63.1016 31.3472L65.9212 28.5419H64.8899L61.662 31.6849V28.412H60.8654V34.3555V35H61.662V34.3555V32.7791L62.538 31.9073L65.1543 35Z" fill="white"/>
<path d="M78.0476 34.8344H78.9153L76.5188 28.6409H75.3619L72.8827 34.8344H73.8297L74.4908 33.0989H77.3749L78.0476 34.8344ZM74.7784 32.318L75.8974 29.3325L77.0642 32.318H74.7784Z" fill="white"/>
<path d="M82.5069 9.93066C82.5069 5.43694 85.672 1.79391 89.5742 1.79391C93.4764 1.79391 96.6382 5.43694 96.6382 9.93066C96.6382 14.4244 93.4748 18.0674 89.5725 18.0674C85.6703 18.0674 82.5069 14.4292 82.5069 9.93066ZM89.5742 19.8613C94.7805 19.8613 98.995 15.4147 98.995 9.93066C98.995 4.44664 94.7755 0 89.5742 0C84.3729 0 80.1533 4.44501 80.1533 9.93066C80.1533 15.4163 84.3679 19.8613 89.5742 19.8613V19.8613Z" fill="white"/>
<path d="M34.0423 31.5518C34.0423 30.0274 35.115 28.7919 36.4388 28.7919C37.7627 28.7919 38.837 30.029 38.837 31.5518C38.837 33.0746 37.7644 34.3117 36.4388 34.3117C35.1133 34.3117 34.0423 33.0762 34.0423 31.5518ZM36.4388 34.9221C38.2057 34.9221 39.637 33.4123 39.637 31.5518C39.637 29.6913 38.2057 28.1815 36.4388 28.1815C34.672 28.1815 33.2407 29.6913 33.2407 31.5518C33.2407 33.4123 34.6737 34.9221 36.4388 34.9221Z" fill="white"/>
<path d="M50.2594 28.3909C49.7636 28.3909 48.3604 28.4104 48.3604 28.4104H47.5637V34.8685C47.5637 34.8685 49.5206 34.8685 50.0198 34.8458C51.5849 34.763 52.97 33.4106 52.97 31.5502C52.97 29.6897 52.0262 28.3909 50.2594 28.3909ZM49.9966 34.1039C49.4859 34.2143 48.3604 34.1185 48.3604 34.1185V29.1556C48.3604 29.1556 49.8479 29.0565 50.3635 29.128C51.5205 29.2903 51.9981 29.9397 51.9981 31.7158C51.8791 33.3311 51.1866 33.8457 49.9966 34.1022V34.1039Z" fill="white"/>
</g>
<defs>
<clipPath id="clip0_20_2">
<rect width="99" height="35" fill="white"/>
</clipPath>
</defs>
</svg>
