<svg width="103" height="61" viewBox="0 0 103 61" fill="none" xmlns="http://www.w3.org/2000/svg">
<g clip-path="url(#clip0_21_43)">
<path d="M87.4757 52.5713V60.7774H84.0563V49.0168C85.8113 49.0168 87.5432 49.0022 89.2723 49.04C89.452 49.04 89.6776 49.331 89.7912 49.5376C90.9238 51.6445 92.0377 53.7571 93.1588 55.8741C93.2608 56.0676 93.3743 56.2553 93.5267 56.5245C93.6704 56.2902 93.7869 56.1171 93.8846 55.9323C95.0158 53.7993 96.1527 51.6692 97.2666 49.5304C97.3342 49.3596 97.455 49.216 97.6107 49.1211C97.7663 49.0263 97.9483 48.9856 98.129 49.0051C99.733 49.0342 101.34 49.0168 102.996 49.0168V60.7832H99.5979V52.58L99.4786 52.5422C99.3823 52.6979 99.2802 52.8492 99.1911 53.0092C97.8516 55.4318 96.5034 57.8514 95.181 60.2841C95.1009 60.445 94.9801 60.5814 94.8309 60.6796C94.6817 60.7777 94.5093 60.8341 94.3316 60.8429C93.6596 61.0103 92.9496 60.9076 92.3508 60.5562C91.7521 60.2048 91.3111 59.6322 91.1207 58.9586C90.0973 56.7558 88.8095 54.6766 87.6338 52.548L87.4757 52.5713Z" fill="white"/>
<path d="M25.8485 49.0052C27.4255 48.9236 29.0059 48.9362 30.5815 49.043C31.0118 49.0314 31.4398 49.1107 31.8383 49.2758C32.2367 49.4409 32.5968 49.6882 32.8956 50.0019C33.1944 50.3156 33.4254 50.6889 33.5739 51.0979C33.7223 51.507 33.785 51.9429 33.7579 52.3778C33.8923 54.1285 33.8784 55.8878 33.7162 57.6361C33.7114 58.0575 33.6244 58.4737 33.4602 58.8609C33.2961 59.2482 33.058 59.5988 32.7597 59.8927C32.4614 60.1866 32.1087 60.4179 31.7218 60.5735C31.3349 60.7291 30.9215 60.8058 30.5053 60.7992C29.3687 60.905 28.2273 60.9497 27.086 60.9331C25.1111 60.9214 23.1291 60.9476 21.1614 60.7876C20.6954 60.7858 20.2349 60.6852 19.8097 60.4923C19.3844 60.2994 19.0038 60.0184 18.6923 59.6675C18.3809 59.3166 18.1455 58.9036 18.0014 58.4549C17.8573 58.0063 17.8076 57.5321 17.8556 57.0628C17.8393 55.6835 17.8393 54.3042 17.8556 52.9249C17.7932 52.3936 17.8487 51.8549 18.0181 51.348C18.1875 50.8412 18.4665 50.3791 18.8347 49.9953C19.203 49.6115 19.6512 49.3158 20.1467 49.1296C20.6422 48.9435 21.1725 48.8716 21.699 48.9193C23.0817 48.8655 24.4687 48.9092 25.8513 48.9092L25.8485 49.0052ZM25.7766 57.8689C26.6131 57.8689 27.4482 57.8689 28.2847 57.8689C28.3494 57.8689 28.4169 57.8689 28.4816 57.8689C29.4661 57.8238 29.9548 57.4848 30.054 56.5187C30.1567 55.5031 30.162 54.4798 30.0698 53.4632C30.0743 53.2585 30.036 53.0552 29.9575 52.8666C29.879 52.6779 29.7621 52.5081 29.6144 52.3683C29.4667 52.2285 29.2914 52.1219 29.1002 52.0553C28.909 51.9887 28.706 51.9638 28.5046 51.9821C26.7065 51.9181 24.9013 51.9166 23.1032 51.9821C22.0698 52.0228 21.5897 52.6252 21.5495 53.6873C21.5193 54.5603 21.5207 55.4231 21.5495 56.2888C21.5312 56.5024 21.5597 56.7175 21.6331 56.9186C21.7065 57.1197 21.8229 57.3019 21.974 57.4522C22.1251 57.6025 22.3071 57.7171 22.507 57.7879C22.707 57.8587 22.9199 57.8839 23.1305 57.8616C24.0159 57.8936 24.897 57.8805 25.7766 57.8805V57.8689Z" fill="white"/>
<path d="M73.8371 60.821C72.2992 60.821 70.7541 60.9229 69.2262 60.7963C68.7701 60.8015 68.3181 60.7102 67.8988 60.5285C67.4795 60.3468 67.1022 60.0785 66.7911 59.7409C66.48 59.4032 66.2419 59.0036 66.092 58.5675C65.9421 58.1315 65.8836 57.6685 65.9205 57.2083C65.8802 55.7635 65.8759 54.3129 65.9104 52.8681C65.8509 52.3472 65.9066 51.8194 66.0735 51.323C66.2404 50.8266 66.5142 50.3739 66.8753 49.9979C67.2363 49.6219 67.6754 49.3318 68.1608 49.1488C68.6463 48.9658 69.1658 48.8943 69.6819 48.9397C72.475 48.8591 75.2701 48.8591 78.0671 48.9397C78.561 48.8912 79.0594 48.9519 79.5278 49.1177C79.9962 49.2835 80.4235 49.5503 80.78 49.8997C81.1365 50.2491 81.4138 50.6727 81.5926 51.1413C81.7714 51.6099 81.8475 52.1122 81.8156 52.6135C81.9072 54.3468 81.888 56.0843 81.7581 57.815C81.7112 58.6186 81.363 59.3737 80.7847 59.9262C80.2064 60.4786 79.4415 60.7867 78.6463 60.7876C77.0524 60.9112 75.4411 60.8123 73.8371 60.8123V60.821ZM73.9248 57.8718C74.8274 57.8718 75.7286 57.8951 76.6298 57.8718C77.531 57.8485 78.0182 57.4528 78.0858 56.5623C78.1675 55.4803 78.1637 54.3933 78.0743 53.3119C78.0723 53.1357 78.0355 52.9618 77.966 52.8003C77.8965 52.6388 77.7957 52.4931 77.6696 52.3717C77.5435 52.2504 77.3947 52.1557 77.2319 52.0936C77.0691 52.0314 76.8957 52.0029 76.7218 52.0097C74.8361 51.9515 72.946 51.9457 71.0588 52.0097C70.8692 52.0035 70.6802 52.037 70.504 52.1081C70.3277 52.1793 70.1678 52.2865 70.0344 52.4231C69.9009 52.5597 69.7968 52.7227 69.7285 52.9019C69.6601 53.0811 69.6291 53.2727 69.6373 53.4647C69.5802 54.4406 69.5802 55.419 69.6373 56.395C69.6244 56.5979 69.6555 56.8012 69.7284 56.9906C69.8014 57.1801 69.9144 57.351 70.0596 57.4915C70.2048 57.632 70.3787 57.7386 70.5689 57.8038C70.7592 57.869 70.9612 57.8912 71.1609 57.8689C72.0764 57.8936 73.0006 57.8776 73.9248 57.8776V57.8718Z" fill="white"/>
<path d="M63.9556 56.315C63.9556 56.9595 63.9945 57.5619 63.947 58.1584C63.9027 58.833 63.6221 59.4695 63.1558 59.9535C62.6896 60.4375 62.068 60.7374 61.403 60.7992C61.2527 60.8338 61.0998 60.8551 60.9459 60.8632C57.7908 61.1109 54.6191 61.0436 51.477 60.6624C50.7541 60.5688 50.091 60.2077 49.6154 59.6487C49.1399 59.0896 48.8855 58.3722 48.9013 57.6346C48.7902 56.0143 48.7686 54.389 48.8367 52.7663C48.9574 50.3234 49.929 49.1463 52.3236 48.9833C55.0439 48.7891 57.7749 48.8027 60.4932 49.0241C63.2629 49.267 63.9872 50.3845 63.799 53.2726H60.3423C60.0965 52.1596 59.9729 51.9631 58.9337 51.9311C57.3081 51.8846 55.6811 51.9064 54.0569 51.9835C53.8666 51.9675 53.6751 51.9922 53.4948 52.0562C53.3146 52.1201 53.1497 52.2217 53.0109 52.3545C52.872 52.4872 52.7623 52.648 52.689 52.8265C52.6156 53.005 52.5803 53.1972 52.5852 53.3905C52.5033 54.4726 52.5085 55.5597 52.601 56.6409C52.6037 56.8113 52.6413 56.9792 52.7114 57.1341C52.7815 57.289 52.8825 57.4276 53.008 57.541C53.1336 57.6545 53.2811 57.7403 53.4411 57.7933C53.6011 57.8462 53.7701 57.865 53.9376 57.8485C55.7185 57.8834 57.5022 57.8849 59.2816 57.8485C60.0793 57.831 60.3035 57.4717 60.4314 56.3135L63.9556 56.315Z" fill="white"/>
<path d="M0 49.0168C1.20302 49.0168 2.3845 48.9949 3.56453 49.0401C3.74563 49.0401 3.97415 49.3311 4.08338 49.5362C5.37695 52.0097 6.65617 54.4831 7.93969 56.9682C8.05036 57.1821 8.16965 57.3946 8.34213 57.7161C8.49305 57.4469 8.61377 57.2534 8.71869 57.0527C10.0123 54.553 11.3145 52.0606 12.5865 49.5493C12.6571 49.3677 12.7857 49.2152 12.952 49.1163C13.1182 49.0174 13.3124 48.9778 13.5035 49.0037C14.5542 49.0372 15.6091 49.0139 16.7776 49.0139C16.6339 49.2918 16.5505 49.4824 16.4528 49.6686C14.5843 53.2144 12.7 56.7558 10.8473 60.3103C10.7805 60.481 10.6595 60.6244 10.5034 60.7179C10.3473 60.8114 10.1649 60.8498 9.98493 60.8269C8.86383 60.7919 7.73844 60.8269 6.61735 60.8007C6.49766 60.798 6.37994 60.7692 6.27228 60.7162C6.16461 60.6632 6.06956 60.5873 5.99357 60.4937C3.99572 56.7631 2.0132 53.0243 0.0460123 49.2773C0.0192321 49.1929 0.00374403 49.1053 0 49.0168V49.0168Z" fill="white"/>
<path d="M39.5215 49.0604V57.735H47.523V60.7614H35.9973V49.0604H39.5215Z" fill="white"/>
<path d="M51.6826 -2.94311e-05C56.1098 -0.00751437 60.4395 1.31468 64.1241 3.79922C67.8086 6.28376 70.6823 9.81899 72.3813 13.9574C74.0802 18.0959 74.5282 22.6515 73.6685 27.0478C72.8089 31.4441 70.6802 35.4834 67.5518 38.6545C64.4234 41.8256 60.4361 43.986 56.0943 44.8621C51.7526 45.7383 47.2518 45.291 43.1613 43.5767C39.0708 41.8624 35.5747 38.9582 33.1154 35.2317C30.656 31.5053 29.344 27.124 29.3455 22.6424C29.3515 16.6444 31.7059 10.8934 35.8927 6.64937C40.0796 2.40531 45.7575 0.0142134 51.6826 -2.94311e-05V-2.94311e-05ZM51.6308 3.79456C47.9464 3.7845 44.342 4.88221 41.2746 6.94851C38.2072 9.0148 35.8151 11.9566 34.4014 15.401C32.9878 18.8453 32.6163 22.637 33.3341 26.2953C34.052 29.9536 35.8268 33.3137 38.4335 35.9496C41.0402 38.5855 44.3615 40.3785 47.9761 41.1012C51.5907 41.8239 55.3359 41.4437 58.7369 40.009C62.1378 38.5742 65.0413 36.1494 67.0792 33.0421C69.117 29.9347 70.1975 26.2848 70.1835 22.5551C70.1503 17.5865 68.1841 12.8313 64.7109 9.3204C61.2378 5.80945 56.5377 3.82559 51.6294 3.79891L51.6308 3.79456Z" fill="white"/>
<path d="M51.7214 6.36987C54.1533 11.1335 56.5407 15.8069 58.9266 20.4832C59.9643 22.5202 60.9948 24.5484 62.0498 26.5708C62.1412 26.7172 62.1871 26.8879 62.1814 27.061C62.1758 27.234 62.1189 27.4014 62.0182 27.5413C60.1785 30.6724 58.3521 33.8123 56.5392 36.9608C56.4593 37.126 56.3309 37.2621 56.1717 37.3506C56.0124 37.4391 55.8301 37.4758 55.6496 37.4555C53.0097 37.4361 50.3698 37.4361 47.73 37.4555C47.5595 37.4743 47.3874 37.4393 47.2374 37.3551C47.0873 37.271 46.9667 37.1419 46.892 36.9856C45.0667 33.8195 43.2125 30.671 41.39 27.5035C41.324 27.3793 41.2846 27.2424 41.2744 27.1017C41.2643 26.9611 41.2836 26.8198 41.3311 26.6872C44.7078 20.0322 48.0989 13.3839 51.5044 6.74237C51.5532 6.64197 51.6136 6.5532 51.7214 6.36987ZM51.6955 36.8925C51.6955 36.165 51.6855 35.5466 51.6955 34.9238C51.6926 34.7036 51.7331 34.4849 51.8148 34.2808C53.2004 31.3344 54.6104 28.3983 55.983 25.4447C56.1192 25.1073 56.1404 24.7335 56.0434 24.3825C55.1537 21.2936 54.1662 18.2338 53.3283 15.1303C52.693 12.7747 51.5159 10.5355 51.6768 7.98781C51.6768 7.96453 51.6251 7.93692 51.5935 7.91073C51.5661 7.93837 51.5245 7.96163 51.5087 7.99509C48.3131 14.2496 45.1218 20.506 41.9348 26.7643C41.8968 26.8593 41.8794 26.9614 41.8836 27.0638C41.8878 27.1662 41.9136 27.2665 41.9592 27.358C43.729 30.4319 45.5113 33.4975 47.306 36.5549C47.3515 36.6361 47.4135 36.7068 47.4877 36.7622C47.562 36.8176 47.647 36.8565 47.7372 36.8764C49.0279 36.9041 50.3215 36.8925 51.6955 36.8925ZM57.1903 24.4233C55.5849 27.8352 54.0398 31.1162 52.4947 34.4102L52.6039 34.483L60.2647 27.7901L57.1903 24.4233Z" fill="white"/>
<path d="M51.6811 10.2969V34.3491C51.5273 34.0931 51.4353 33.9636 51.3678 33.821C50.034 30.9969 48.7002 28.1728 47.3879 25.3385C47.2765 25.0861 47.2527 24.8031 47.3204 24.5353C48.6801 19.9007 50.0512 15.27 51.4339 10.6432C51.4713 10.521 51.5288 10.406 51.5776 10.2867L51.6811 10.2969Z" fill="white"/>
<path d="M50.9036 34.5572L43.1292 27.7697L46.2769 24.4829L50.9783 34.4626L50.9036 34.5572Z" fill="white"/>
</g>
<defs>
<clipPath id="clip0_21_43">
<rect width="103" height="61" fill="white"/>
</clipPath>
</defs>
</svg>
