<svg width="299" height="112" viewBox="0 0 299 112" fill="none" xmlns="http://www.w3.org/2000/svg">
<g clip-path="url(#clip0_104_150)">
<path d="M22.2404 51.6881L21.5311 51.7577C21.4544 51.734 21.384 51.6931 21.3253 51.6383C21.2665 51.5834 21.221 51.5159 21.1919 51.4409C20.8605 50.6681 20.5136 49.8954 20.1744 49.1227C20.1397 49.0306 20.0789 48.9508 19.9994 48.8931C19.9199 48.8354 19.8253 48.8024 19.7273 48.7981C19.3187 48.7981 18.9024 48.7131 18.4938 48.659C18.3957 48.641 18.2945 48.6511 18.2019 48.688C18.1092 48.7249 18.0287 48.7871 17.9696 48.8677L16.3661 50.8768C16.318 50.9577 16.2399 51.0161 16.1488 51.0393C16.0578 51.0625 15.9612 51.0485 15.8805 51.0004L13.8761 50.1736C13.8254 50.1613 13.7778 50.1385 13.7362 50.1069C13.6947 50.0752 13.6601 50.0352 13.6348 49.9894C13.6094 49.9437 13.5938 49.8932 13.5889 49.8411C13.584 49.789 13.59 49.7364 13.6063 49.6868C13.7297 48.8368 13.853 47.9945 13.9841 47.1445C13.9994 47.0564 13.9902 46.9659 13.9575 46.8828C13.9249 46.7996 13.8701 46.7271 13.7991 46.6731L12.7892 45.8154C12.7236 45.7556 12.6428 45.7152 12.5556 45.6988C12.4685 45.6825 12.3785 45.6907 12.2958 45.7226L9.86747 46.5417C9.82354 46.5641 9.77561 46.5774 9.72646 46.581C9.67731 46.5845 9.62793 46.5782 9.58126 46.5624C9.53458 46.5465 9.49154 46.5215 9.45464 46.4888C9.41774 46.456 9.38777 46.4162 9.36642 46.3717C8.97326 45.7613 8.59548 45.1508 8.17149 44.5403C8.13595 44.5018 8.10882 44.4562 8.09178 44.4066C8.07475 44.3569 8.06819 44.3043 8.07254 44.252C8.07689 44.1996 8.09205 44.1488 8.11705 44.1027C8.14205 44.0565 8.17632 44.0161 8.21774 43.984L9.91372 42.0367C9.97317 41.974 10.0146 41.8964 10.0336 41.8121C10.0526 41.7277 10.0485 41.6398 10.0217 41.5576L9.67475 40.3444C9.65283 40.2591 9.60712 40.1818 9.54296 40.1216C9.47879 40.0614 9.39883 40.0207 9.31245 40.0044L8.07899 39.6953L6.53719 39.2935L6.49866 38.8608C6.49866 38.8144 6.49866 38.768 6.49866 38.7217C6.49866 38.0339 6.49866 37.3539 6.49866 36.6662C6.49866 36.4421 6.59119 36.3417 6.81475 36.2721L9.31245 35.5535C9.40528 35.5321 9.49041 35.4854 9.55844 35.4186C9.62646 35.3518 9.67472 35.2674 9.6979 35.1748C9.79811 34.8425 9.89059 34.5103 9.99851 34.1857C10.031 34.0956 10.0366 33.9979 10.0147 33.9046C9.9928 33.8114 9.94433 33.7265 9.87519 33.6603L8.14067 31.8134C8.10088 31.7827 8.0679 31.7441 8.04379 31.7C8.01968 31.6558 8.00499 31.6072 8.00064 31.557C7.9963 31.5069 8.00238 31.4564 8.01852 31.4088C8.03467 31.3611 8.06051 31.3174 8.09442 31.2802L9.36642 29.3098C9.40989 29.218 9.48764 29.1471 9.58286 29.1124C9.67808 29.0777 9.78309 29.082 9.87519 29.1243L12.3729 29.8971C12.4602 29.9274 12.5539 29.9341 12.6446 29.9165C12.7353 29.8988 12.8198 29.8575 12.8894 29.7966L13.5601 29.217C13.6179 29.1716 13.6635 29.1125 13.6931 29.0451C13.7227 28.9777 13.7352 28.9041 13.7297 28.8307C13.7297 28.7534 13.7297 28.6761 13.6911 28.5989L13.2517 26.2111C13.2226 26.1179 13.2313 26.0169 13.2761 25.93C13.3208 25.8432 13.398 25.7776 13.4907 25.7475L15.6954 24.7429C15.7379 24.7133 15.786 24.6927 15.8367 24.6825C15.8875 24.6723 15.9398 24.6726 15.9904 24.6835C16.041 24.6943 16.0888 24.7155 16.1309 24.7457C16.173 24.7758 16.2085 24.8144 16.2351 24.8588C16.7978 25.5234 17.3683 26.1802 17.9311 26.837C17.988 26.9129 18.0655 26.9707 18.1544 27.0036C18.2432 27.0365 18.3397 27.043 18.4321 27.0225C18.6865 27.0225 18.9332 26.9375 19.203 26.9143C19.267 26.909 19.3284 26.8859 19.3801 26.8477C19.4318 26.8095 19.4719 26.7577 19.496 26.6979L19.5576 26.5588L20.529 24.1866C20.5539 24.1049 20.6074 24.0349 20.6796 23.9895C20.7518 23.9441 20.8379 23.9262 20.9222 23.9393L23.4892 24.2793C23.5696 24.2891 23.6445 24.3256 23.7018 24.383C23.7591 24.4404 23.7955 24.5155 23.8053 24.5961L23.9903 25.9097L24.1753 27.2311C24.182 27.3259 24.2163 27.4167 24.2738 27.4922C24.3313 27.5677 24.4097 27.6247 24.4991 27.6561L25.0464 27.8957C25.1377 27.9438 25.2409 27.9643 25.3435 27.9547C25.4462 27.9451 25.5438 27.9058 25.6246 27.8416L27.7523 26.3425C27.7868 26.3067 27.8281 26.2783 27.8738 26.2589C27.9195 26.2395 27.9686 26.2294 28.0182 26.2294C28.0679 26.2294 28.117 26.2395 28.1627 26.2589C28.2084 26.2783 28.2497 26.3067 28.2842 26.3425L30.196 27.9266C30.2411 27.9516 30.2802 27.9861 30.311 28.0275C30.3417 28.0689 30.3633 28.1165 30.3742 28.1669C30.3851 28.2174 30.3852 28.2696 30.3744 28.3201C30.3637 28.3706 30.3423 28.4182 30.3117 28.4598C29.9571 29.2325 29.5947 30.0052 29.2324 30.778C29.1905 30.8598 29.1726 30.9519 29.1808 31.0435C29.189 31.1352 29.2229 31.2226 29.2786 31.2957C29.402 31.4812 29.533 31.6589 29.6564 31.8521C29.7041 31.9325 29.7737 31.9977 29.8569 32.0401C29.9402 32.0825 30.0337 32.1004 30.1267 32.0916L31.2907 32.0452L32.7939 31.9912C32.8819 31.9836 32.9697 32.0084 33.0406 32.0611C33.1116 32.1137 33.1609 32.1905 33.1794 32.2771L33.9503 34.5953C33.977 34.6432 33.9931 34.6963 33.9974 34.751C34.0016 34.8057 33.9939 34.8607 33.9748 34.9122C33.9558 34.9636 33.9258 35.0103 33.8869 35.049C33.8481 35.0877 33.8013 35.1174 33.7499 35.1362L31.6068 36.558C31.5337 36.601 31.4741 36.6635 31.4346 36.7386C31.3951 36.8137 31.3773 36.8983 31.3832 36.983C31.3832 37.2689 31.3832 37.5703 31.4218 37.8562C31.437 37.9729 31.4851 38.0828 31.5605 38.173C31.5991 38.2426 31.6916 38.2735 31.761 38.3198L33.9195 39.618C33.9975 39.652 34.0611 39.7125 34.0992 39.7887C34.1373 39.865 34.1473 39.9523 34.1276 40.0353C33.9195 40.8467 33.719 41.6581 33.5109 42.4617C33.4947 42.5373 33.4528 42.6049 33.3923 42.6529C33.3318 42.7008 33.2565 42.7261 33.1794 42.7244H30.5429C30.4543 42.7218 30.3667 42.7444 30.2904 42.7895C30.214 42.8346 30.1519 42.9005 30.1112 42.9794C29.9493 43.2653 29.7797 43.5513 29.6101 43.8294C29.5612 43.9111 29.5354 44.0046 29.5354 44.0999C29.5354 44.1952 29.5612 44.2887 29.6101 44.3703C30.011 45.1431 30.381 45.9158 30.7896 46.6885C30.8417 46.7661 30.8619 46.8608 30.8461 46.9529C30.8303 47.045 30.7797 47.1274 30.7048 47.1831L29.0166 48.7286C28.9855 48.7656 28.9474 48.7959 28.9044 48.818C28.8614 48.84 28.8145 48.8532 28.7664 48.8568C28.7183 48.8604 28.6699 48.8543 28.6242 48.8389C28.5785 48.8235 28.5362 48.7992 28.5 48.7672L26.3492 47.4458C26.2757 47.3983 26.1901 47.3729 26.1026 47.3729C26.015 47.3729 25.9294 47.3983 25.8559 47.4458L24.7766 47.9867C24.6959 48.0261 24.627 48.0861 24.5769 48.1607C24.5268 48.2354 24.4973 48.322 24.4914 48.4117C24.3989 49.2849 24.3141 50.1581 24.2216 51.0313C24.2189 51.1163 24.1866 51.1976 24.1302 51.2612C24.0739 51.3247 23.9971 51.3664 23.9132 51.379L22.9419 51.5877L22.2404 51.6881ZM21.1919 45.9931C22.7893 45.8286 24.3022 45.1929 25.5391 44.1665C26.776 43.14 27.6814 41.7689 28.1407 40.2265C28.6001 38.6842 28.5928 37.0399 28.1198 35.5017C27.6467 33.9635 26.7291 32.6005 25.4832 31.5852C24.2372 30.5698 22.7187 29.9476 21.12 29.7974C19.5212 29.6472 17.9139 29.9757 16.5014 30.7413C15.0888 31.5069 13.9346 32.6753 13.1846 34.0985C12.4347 35.5218 12.1227 37.1361 12.2881 38.7371C12.5098 40.8825 13.5721 42.8519 15.2417 44.2124C16.9113 45.573 19.0515 46.2135 21.1919 45.9931Z" fill="#F1B850"/>
<path d="M42.0216 35.4144L41.4588 35.4762C41.3984 35.457 41.3432 35.4239 41.2977 35.3797C41.2522 35.3354 41.2176 35.2812 41.1967 35.2212C40.9269 34.6185 40.6494 34.0157 40.3873 33.413C40.359 33.3407 40.3105 33.2781 40.2476 33.2329C40.1847 33.1876 40.11 33.1616 40.0326 33.158C39.7011 33.158 39.3774 33.0884 39.0459 33.0421C38.9687 33.0281 38.8891 33.0367 38.8167 33.0669C38.7442 33.097 38.6819 33.1474 38.6373 33.2121L37.3653 34.8039C37.3268 34.8677 37.265 34.914 37.193 34.9327C37.121 34.9515 37.0445 34.9413 36.9799 34.9044L35.3918 34.2166C35.1991 34.1239 35.1451 34.0389 35.176 33.8303L35.4766 31.8134C35.4897 31.7436 35.4837 31.6716 35.4592 31.605C35.4348 31.5383 35.3929 31.4795 35.3379 31.4348L34.567 30.7625C34.5158 30.7132 34.4515 30.6796 34.3817 30.6659C34.312 30.6522 34.2398 30.6589 34.1738 30.6852L32.2466 31.3343C32.2122 31.3516 32.1747 31.3619 32.1363 31.3646C32.0979 31.3674 32.0594 31.3625 32.0229 31.3503C31.9863 31.3381 31.9526 31.3188 31.9235 31.2935C31.8944 31.2683 31.8706 31.2375 31.8534 31.203C31.5374 30.7162 31.2213 30.2293 30.8975 29.7425C30.8687 29.713 30.8466 29.6776 30.8328 29.6387C30.819 29.5998 30.8137 29.5584 30.8174 29.5173C30.821 29.4761 30.8336 29.4363 30.854 29.4005C30.8745 29.3647 30.9025 29.3337 30.9361 29.3098L32.2774 27.7643C32.3311 27.7126 32.369 27.6466 32.3868 27.5741C32.4045 27.5016 32.4013 27.4255 32.3776 27.3548L32.1001 26.3966C32.0819 26.3296 32.0456 26.269 31.9953 26.2213C31.945 26.1736 31.8826 26.1407 31.8149 26.1261L30.8358 25.902L29.6024 25.5852L29.5638 25.2452C29.5676 25.2067 29.5676 25.1678 29.5638 25.1293V23.5066C29.5571 23.4322 29.5788 23.3581 29.6247 23.2992C29.6705 23.2404 29.7369 23.2012 29.8105 23.1897L31.7917 22.6179C31.866 22.6014 31.9343 22.5645 31.9887 22.5113C32.0432 22.458 32.0818 22.3906 32.1001 22.3165C32.1772 22.0538 32.2543 21.7911 32.3391 21.5438C32.3634 21.4719 32.3669 21.3945 32.3492 21.3206C32.3315 21.2468 32.2932 21.1795 32.2389 21.1265C31.7763 20.6397 31.3215 20.1452 30.8666 19.6583C30.8382 19.6316 30.8155 19.5993 30.8 19.5634C30.7845 19.5275 30.7765 19.4888 30.7765 19.4497C30.7765 19.4106 30.7845 19.3719 30.8 19.336C30.8155 19.3001 30.8382 19.2678 30.8666 19.2411L31.8765 17.6956C31.8924 17.6588 31.9155 17.6255 31.9443 17.5978C31.9732 17.57 32.0073 17.5483 32.0446 17.5339C32.0819 17.5195 32.1217 17.5127 32.1617 17.514C32.2017 17.5152 32.241 17.5244 32.2774 17.541L34.2586 18.1361C34.3274 18.161 34.4016 18.167 34.4735 18.1534C34.5453 18.1398 34.6122 18.1071 34.6672 18.0588L35.2068 17.5951C35.2517 17.5596 35.2873 17.5135 35.3101 17.461C35.333 17.4084 35.3425 17.3509 35.3379 17.2938C35.3379 17.232 35.3379 17.1701 35.3379 17.1083L34.991 15.2151C34.979 15.1791 34.9743 15.1411 34.9771 15.1032C34.98 15.0654 34.9903 15.0285 35.0075 14.9947C35.0248 14.9608 35.0485 14.9308 35.0774 14.9063C35.1063 14.8818 35.1399 14.8633 35.176 14.8519L36.9259 14.0792C36.9602 14.0564 36.9986 14.0406 37.039 14.0329C37.0795 14.0252 37.1211 14.0257 37.1613 14.0344C37.2015 14.043 37.2396 14.0596 37.2733 14.0832C37.307 14.1069 37.3357 14.137 37.3576 14.1719L38.699 15.7174C38.7452 15.7772 38.8074 15.8228 38.8783 15.8487C38.9492 15.8747 39.026 15.8801 39.0998 15.8642C39.3003 15.8642 39.5007 15.7947 39.7011 15.7792C39.7517 15.7755 39.8003 15.7576 39.8412 15.7276C39.8821 15.6975 39.9137 15.6565 39.9324 15.6092L39.9864 15.501C40.2408 14.8751 40.4952 14.2415 40.7573 13.6156C40.7754 13.5506 40.8171 13.4948 40.8741 13.4591C40.9311 13.4233 40.9995 13.4103 41.0656 13.4224L43.1008 13.6851C43.1654 13.6932 43.2256 13.7227 43.2717 13.7689C43.3177 13.815 43.3471 13.8753 43.3552 13.9401C43.4014 14.2878 43.4477 14.6356 43.5017 14.9833C43.5556 15.331 43.5942 15.6865 43.6481 16.0342C43.6522 16.1088 43.6787 16.1805 43.7241 16.2398C43.7695 16.2991 43.8317 16.3432 43.9025 16.3665L44.3342 16.5597C44.4075 16.5979 44.4902 16.6139 44.5724 16.6057C44.6546 16.5975 44.7325 16.5654 44.7968 16.5133L46.4619 15.3465C46.4886 15.3179 46.5208 15.2952 46.5566 15.2796C46.5924 15.2641 46.631 15.2561 46.67 15.2561C46.7091 15.2561 46.7477 15.2641 46.7835 15.2796C46.8193 15.2952 46.8515 15.3179 46.8782 15.3465L48.42 16.606C48.4552 16.6257 48.4859 16.6526 48.5099 16.6849C48.534 16.7173 48.551 16.7544 48.5597 16.7939C48.5685 16.8333 48.5688 16.8741 48.5606 16.9137C48.5525 16.9532 48.5361 16.9906 48.5125 17.0233L47.5566 18.8547C47.5191 18.9164 47.4993 18.9872 47.4993 19.0595C47.4993 19.1317 47.5191 19.2025 47.5566 19.2642L47.8572 19.7047C47.8946 19.7685 47.9492 19.8204 48.0146 19.8546C48.08 19.8887 48.1537 19.9037 48.2273 19.8979H49.1523L50.3395 19.8515C50.4091 19.8459 50.4785 19.8654 50.535 19.9065C50.5915 19.9476 50.6316 20.0076 50.6479 20.0756L51.2492 21.9147C51.3263 22.1388 51.2877 22.2238 51.095 22.3475L49.3836 23.4447C49.3274 23.4789 49.2818 23.5281 49.2518 23.5868C49.2219 23.6454 49.2088 23.7113 49.214 23.777C49.214 24.0088 49.214 24.2406 49.214 24.4725C49.2272 24.5631 49.2644 24.6485 49.3219 24.7197C49.364 24.7728 49.4201 24.8129 49.4838 24.8357L51.2877 25.8093C51.3491 25.8375 51.3993 25.8857 51.43 25.9459C51.4608 26.0062 51.4704 26.0751 51.4573 26.1416L50.9716 28.0734C50.956 28.1326 50.9208 28.1846 50.8718 28.2211C50.8228 28.2576 50.7629 28.2764 50.7019 28.2743C50.5245 28.2743 50.3395 28.2743 50.1622 28.2743H48.6204C48.5507 28.2724 48.4819 28.2902 48.4219 28.3258C48.3619 28.3613 48.3131 28.4131 48.2812 28.4752L47.8881 29.1552C47.8469 29.2198 47.825 29.2949 47.825 29.3716C47.825 29.4483 47.8469 29.5234 47.8881 29.588L48.8209 31.4425C48.8612 31.5048 48.8764 31.5801 48.8635 31.6533C48.8506 31.7264 48.8106 31.7919 48.7515 31.8366L47.4178 33.0962C47.3913 33.1235 47.3595 33.1452 47.3244 33.1601C47.2893 33.1749 47.2516 33.1826 47.2135 33.1826C47.1754 33.1826 47.1378 33.1749 47.1027 33.1601C47.0676 33.1452 47.0358 33.1235 47.0092 33.0962L45.3056 31.9912C45.247 31.9532 45.1787 31.9331 45.109 31.9331C45.0393 31.9331 44.971 31.9532 44.9124 31.9912L44.0567 32.4239C43.9927 32.4535 43.938 32.5001 43.8986 32.5587C43.8592 32.6173 43.8365 32.6856 43.8331 32.7562C43.7638 33.4439 43.6867 34.1394 43.6173 34.8348C43.6164 34.9019 43.5919 34.9666 43.5482 35.0174C43.5045 35.0683 43.4444 35.1021 43.3783 35.113L42.6074 35.2753L42.0216 35.4144ZM41.189 30.8939C42.4534 30.7619 43.6505 30.2571 44.6288 29.4433C45.6071 28.6295 46.3227 27.5432 46.6853 26.3218C47.0478 25.1004 47.041 23.7986 46.6656 22.5811C46.2902 21.3636 45.5632 20.285 44.5764 19.4815C43.5896 18.6781 42.3873 18.186 41.1215 18.0674C39.8558 17.9487 38.5833 18.2089 37.465 18.815C36.3467 19.4211 35.4328 20.3459 34.8387 21.4726C34.2447 22.5992 33.9972 23.8771 34.1276 25.1447C34.2142 25.9872 34.4656 26.8042 34.8675 27.5492C35.2693 28.2942 35.8137 28.9524 36.4695 29.4864C37.1253 30.0203 37.8797 30.4194 38.6895 30.661C39.4993 30.9025 40.3486 30.9816 41.189 30.8939Z" fill="#F1B850"/>
<path d="M28.315 18.7929L27.837 18.847C27.7836 18.8305 27.7348 18.8017 27.6946 18.7627C27.6544 18.7238 27.624 18.6759 27.6058 18.6229C27.3822 18.1129 27.1432 17.6029 26.9197 17.0774C26.8937 17.016 26.851 16.9631 26.7965 16.9248C26.7419 16.8866 26.6778 16.8645 26.6113 16.8611L25.7787 16.7606C25.7119 16.7503 25.6435 16.7585 25.581 16.7843C25.5185 16.8102 25.4642 16.8528 25.4241 16.9074L24.3372 18.2674C24.3024 18.3204 24.2491 18.3584 24.1878 18.3741C24.1265 18.3899 24.0616 18.3821 24.0057 18.3524L22.6566 17.7652C22.6222 17.7563 22.59 17.7405 22.5619 17.7188C22.5338 17.6971 22.5104 17.6698 22.4931 17.6388C22.4758 17.6077 22.465 17.5734 22.4613 17.538C22.4576 17.5026 22.4611 17.4669 22.4716 17.4329L22.726 15.7097C22.7384 15.6513 22.7342 15.5906 22.7137 15.5346C22.6933 15.4785 22.6575 15.4294 22.6104 15.3929L21.9243 14.8133C21.881 14.7719 21.8265 14.7439 21.7677 14.733C21.7088 14.722 21.6481 14.7284 21.5928 14.7515L19.943 15.3079C19.9139 15.3234 19.882 15.3327 19.8491 15.3353C19.8162 15.3378 19.7832 15.3335 19.752 15.3226C19.7209 15.3117 19.6923 15.2945 19.6682 15.272C19.644 15.2495 19.6247 15.2223 19.6116 15.192L18.8021 13.9479C18.7769 13.924 18.7569 13.8953 18.7431 13.8634C18.7294 13.8315 18.7223 13.7971 18.7223 13.7624C18.7223 13.7277 18.7294 13.6933 18.7431 13.6614C18.7569 13.6295 18.7769 13.6008 18.8021 13.5769L19.9508 12.2556C19.9925 12.214 20.0217 12.1616 20.0354 12.1043C20.049 12.047 20.0464 11.987 20.0278 11.931L19.812 11.1274C19.7976 11.0703 19.7676 11.0184 19.7254 10.9774C19.6832 10.9365 19.6304 10.9081 19.573 10.8956L18.7327 10.6869L17.6843 10.4165V10.1228C17.6843 10.1228 17.6843 10.061 17.6843 10.0301C17.6843 9.56646 17.6843 9.10282 17.6843 8.63918C17.6811 8.60769 17.6842 8.57589 17.6934 8.5456C17.7025 8.51531 17.7175 8.48713 17.7376 8.4627C17.7577 8.43828 17.7824 8.41807 17.8103 8.40327C17.8382 8.38846 17.8687 8.37935 17.9002 8.37645L19.5884 7.8819C19.6518 7.86889 19.7102 7.83797 19.7567 7.79278C19.8031 7.7476 19.8357 7.69004 19.8505 7.6269C19.9122 7.4028 19.9816 7.17871 20.051 6.96235C20.0737 6.90011 20.0778 6.83258 20.0627 6.76806C20.0476 6.70353 20.0141 6.64483 19.9662 6.59916C19.573 6.18961 19.1953 5.77234 18.7944 5.35506C18.7694 5.33191 18.7495 5.30382 18.7358 5.27257C18.7222 5.24132 18.7152 5.20758 18.7152 5.17347C18.7152 5.13936 18.7222 5.10562 18.7358 5.07436C18.7495 5.04311 18.7694 5.01503 18.7944 4.99187L19.6578 3.66277C19.6712 3.63158 19.6906 3.60338 19.715 3.57982C19.7394 3.55627 19.7683 3.53783 19.7999 3.5256C19.8315 3.51336 19.8652 3.50757 19.899 3.50857C19.9329 3.50957 19.9662 3.51733 19.997 3.53141L21.693 4.04141C21.7516 4.06294 21.815 4.06783 21.8762 4.05556C21.9374 4.04329 21.9941 4.01433 22.0399 3.97187L22.4947 3.57777C22.5313 3.54627 22.5607 3.50713 22.5806 3.46308C22.6006 3.41904 22.6108 3.37115 22.6104 3.32277C22.6104 3.26868 22.6104 3.21459 22.6104 3.1605C22.5102 2.62731 22.4176 2.0864 22.3174 1.54548C22.3066 1.51508 22.3021 1.4828 22.304 1.45058C22.306 1.41836 22.3144 1.38687 22.3288 1.35801C22.3432 1.32914 22.3633 1.30348 22.3878 1.28258C22.4124 1.26169 22.4409 1.24597 22.4716 1.23639L23.8978 0.540929C23.9274 0.521293 23.9606 0.50789 23.9956 0.501531C24.0305 0.495173 24.0663 0.495993 24.1009 0.503942C24.1355 0.51189 24.1682 0.526802 24.1969 0.547771C24.2255 0.568741 24.2496 0.595331 24.2678 0.62593C24.6455 1.07412 25.0387 1.51457 25.4164 1.96276C25.4537 2.01337 25.505 2.05201 25.5638 2.07396C25.6227 2.09591 25.6867 2.10023 25.7479 2.0864L26.2644 2.01685C26.308 2.01313 26.3498 1.99747 26.3851 1.97158C26.4205 1.94568 26.4481 1.91056 26.4649 1.87003L26.5111 1.7773C26.727 1.23639 26.9428 0.703203 27.1663 0.170017C27.184 0.114273 27.2208 0.0666061 27.2702 0.035482C27.3196 0.00435782 27.3784 -0.00820806 27.4362 1.61733e-05L29.1707 0.231836C29.2262 0.237004 29.2781 0.26146 29.3176 0.300971C29.357 0.340483 29.3814 0.392564 29.3865 0.448202C29.3865 0.74184 29.4636 1.04321 29.5099 1.33684C29.5562 1.63048 29.5947 1.93185 29.6332 2.23322C29.6391 2.2963 29.6624 2.35649 29.7005 2.40701C29.7386 2.45753 29.7901 2.49636 29.8491 2.51913C29.9763 2.56382 30.1 2.61807 30.2191 2.6814C30.2808 2.71582 30.3515 2.73056 30.4217 2.72366C30.492 2.71675 30.5584 2.68853 30.6123 2.64276C31.0825 2.30276 31.5605 1.97821 32.0384 1.64594C32.0614 1.6221 32.089 1.60315 32.1194 1.5902C32.1499 1.57726 32.1826 1.57059 32.2157 1.57059C32.2488 1.57059 32.2816 1.57726 32.312 1.5902C32.3425 1.60315 32.37 1.6221 32.393 1.64594L33.6882 2.72004C33.7178 2.73809 33.7434 2.76203 33.7635 2.79039C33.7836 2.81875 33.7977 2.85092 33.8049 2.88494C33.8122 2.91896 33.8124 2.9541 33.8055 2.9882C33.7987 3.02229 33.785 3.05463 33.7652 3.08322C33.5262 3.61641 33.2795 4.14187 33.0329 4.66733C33.0008 4.71963 32.9839 4.77981 32.9839 4.84119C32.9839 4.90257 33.0008 4.96275 33.0329 5.01506L33.295 5.3937C33.3262 5.44867 33.3727 5.49331 33.4288 5.52214C33.485 5.55097 33.5483 5.56273 33.611 5.55597H34.3819L35.3995 5.51733C35.4592 5.51218 35.5186 5.52893 35.5668 5.56448C35.6151 5.60002 35.6488 5.65192 35.6616 5.71052C35.8312 6.23598 36.0008 6.76143 36.1781 7.25598C36.1959 7.28901 36.2064 7.32548 36.209 7.36292C36.2115 7.40037 36.2061 7.43793 36.193 7.47308C36.1798 7.50823 36.1593 7.54014 36.1328 7.56667C36.1063 7.59321 36.0744 7.61374 36.0394 7.6269L34.5824 8.5619C34.5335 8.58884 34.4936 8.62955 34.4676 8.67899C34.4415 8.72843 34.4305 8.78444 34.4359 8.84009C34.4359 9.041 34.4359 9.24191 34.4359 9.43509C34.4505 9.51315 34.4821 9.58702 34.5284 9.65146C34.5662 9.69346 34.6139 9.72533 34.6672 9.74418L36.2321 10.6251C36.2865 10.6474 36.3312 10.6885 36.358 10.741C36.3849 10.7934 36.3921 10.8537 36.3786 10.911L35.9623 12.5569C35.9488 12.6059 35.9196 12.6491 35.8792 12.6798C35.8388 12.7105 35.7894 12.7271 35.7387 12.7269H33.9194C33.8594 12.7235 33.7996 12.7378 33.7476 12.768C33.6955 12.7982 33.6534 12.8431 33.6265 12.8969C33.5108 13.0901 33.4029 13.2833 33.2873 13.4688C33.2532 13.5246 33.2352 13.5888 33.2352 13.6542C33.2352 13.7197 33.2532 13.7838 33.2873 13.8397L34.0582 15.3851C34.0923 15.4392 34.105 15.5042 34.0935 15.5672C34.0821 15.6302 34.0475 15.6866 33.9965 15.7251L32.8556 16.7915C32.8339 16.8162 32.8072 16.8359 32.7773 16.8495C32.7474 16.863 32.7149 16.87 32.6821 16.87C32.6493 16.87 32.6169 16.863 32.5869 16.8495C32.557 16.8359 32.5304 16.8162 32.5087 16.7915L31.0594 15.8488C31.0078 15.8189 30.9493 15.8032 30.8898 15.8032C30.8302 15.8032 30.7717 15.8189 30.7202 15.8488L29.9879 16.2197C29.9336 16.2455 29.8876 16.2859 29.8549 16.3363C29.8222 16.3868 29.8042 16.4454 29.8028 16.5056L29.6178 18.2752C29.6167 18.3332 29.5952 18.3891 29.5572 18.4329C29.5191 18.4767 29.4669 18.5056 29.4097 18.5147L28.7467 18.6538L28.315 18.7929ZM27.6058 14.9292C28.6861 14.8178 29.7092 14.3876 30.5455 13.6931C31.3818 12.9986 31.9938 12.0711 32.304 11.0278C32.6142 9.98453 32.6087 8.87246 32.2882 7.83234C31.9676 6.79222 31.3464 5.8708 30.5033 5.18469C29.6601 4.49858 28.6328 4.07862 27.5514 3.97797C26.47 3.87732 25.3832 4.10049 24.4284 4.61925C23.4736 5.13801 22.6937 5.92903 22.1876 6.89221C21.6815 7.85538 21.4718 8.94741 21.5851 10.0301C21.6582 10.7488 21.8721 11.4461 22.2144 12.0819C22.5568 12.7177 23.0208 13.2795 23.5801 13.7353C24.1393 14.1911 24.7827 14.5318 25.4735 14.738C26.1643 14.9442 26.8889 15.0118 27.6058 14.937V14.9292Z" fill="#F1B850"/>
<path d="M42.4611 105.988C42.623 102.124 41.9292 98.2608 39.5779 95.1158C42.3377 92.7461 45.0692 90.3532 47.7725 87.9371L46.6548 86.5539C39.7167 91.6462 33.8116 96.4449 26.9044 101.607C25.8791 102.379 23.8208 103.925 23.0499 104.327C22.4989 104.612 21.8893 104.766 21.2691 104.775C20.6282 104.781 20.0048 104.565 19.5037 104.164C18.1624 103.114 15.0403 100.587 13.9379 98.9872C12.4809 96.468 9.72106 91.3216 9.72106 91.3216L3.96248 81.3997L7.97883 74.1824L8.26405 73.6724L7.8555 73.2397C2.57486 67.931 0.639927 59.7864 2.23568 52.5536C2.35132 51.9818 2.86008 51.3945 3.26866 51.8736C11.5173 59.4618 23.9749 61.7646 34.5362 58.2409C33.2334 65.7133 33.4416 75.2411 38.2905 79.8775C40.3025 81.8016 44.026 82.1957 46.9785 80.8434C49.3457 79.7993 51.4875 78.3032 53.2844 76.4388C64.447 64.5001 67.1143 46.5726 64.9327 38.6444C64.6853 37.8045 64.3221 37.0034 63.8535 36.2644C62.9814 34.9869 61.8378 33.919 60.5048 33.1373C59.1719 32.3557 57.6828 31.8798 56.1445 31.7439C50.4861 31.2493 44.5117 37.153 40.4953 43.1572C38.2493 46.7948 36.4968 50.7161 35.284 54.8177C35.1761 55.2891 35.0681 55.745 34.9602 56.1777C24.53 59.0137 13.3366 56.3555 4.50212 50.3745C4.25514 50.1677 3.96777 50.0148 3.65848 49.9256C3.34919 49.8365 3.02477 49.813 2.70592 49.8568C2.13864 49.9748 1.62186 50.2663 1.22694 50.6913C0.832023 51.1162 0.578459 51.6535 0.501165 52.2291C0.120634 54.1803 -0.0345948 56.1691 0.0385992 58.1559C0.208538 63.8589 2.35671 69.3241 6.11327 73.6106L6.32914 73.8501L3.85455 78.0461C2.94489 79.5915 2.16628 80.9593 2.16628 80.9747L1.91187 81.3147L2.12775 81.8093C4.44044 87.3112 7.03063 92.6971 9.66709 98.0367C10.107 99.0002 10.5985 99.9391 11.1395 100.849C12.2939 102.534 13.7249 104.01 15.3717 105.215C15.9499 105.679 16.5204 106.158 17.1294 106.583C17.9987 107.251 18.9959 107.732 20.0588 107.997C21.4101 108.224 22.7982 108.021 24.0289 107.418C26.0641 106.351 29.9109 103.253 31.6608 101.869C34.6981 99.4817 35.2454 98.7785 38.1903 96.2826C40.1098 99.8681 40.4336 104.234 40.503 108.26L40.2871 110.795L42.0294 108.979L63.4988 86.5693L62.2268 85.3407L42.4611 105.988ZM38.3984 58.89C39.9494 52.9956 42.7001 47.4865 46.4774 42.709C49.3683 39.1003 53.0301 36.4885 56.3835 36.9521C57.6253 37.1345 58.8084 37.6018 59.8406 38.3175C60.8729 39.0332 61.7264 39.9781 62.3348 41.0785C64.262 44.7799 63.5682 50.5213 62.1343 57.3059C60.8084 63.596 55.9672 72.521 51.7118 76.4774C49.9441 78.2458 47.8021 79.5927 45.4444 80.4184C44.4232 80.77 43.3197 80.8031 42.2793 80.5134C41.2389 80.2237 40.3105 79.6248 39.6165 78.7956C36.2322 74.4915 36.6254 65.9914 38.3984 58.89Z" fill="#171E3F"/>
<path d="M117.446 98.3844V100.224C117.341 100.081 117.204 99.9645 117.046 99.8841C116.888 99.8036 116.714 99.7611 116.536 99.7599C115.545 99.7599 115.049 100.839 115.049 102.998C115.049 105.295 115.542 106.441 116.529 106.436C116.866 106.414 117.188 106.284 117.446 106.065V107.758C116.999 108.003 116.499 108.133 115.989 108.136C114.057 108.136 113.088 106.483 113.083 103.175C113.004 101.848 113.25 100.522 113.8 99.3117C114.016 98.9138 114.339 98.5851 114.734 98.3636C115.128 98.1422 115.576 98.0369 116.028 98.0599C116.52 98.0531 117.006 98.1644 117.446 98.3844Z" fill="#F1B850"/>
<path d="M118.973 98.1913H120.776V99.4122C121.004 98.9895 121.316 98.6185 121.694 98.3226C122.052 98.0967 122.465 97.9738 122.889 97.9672V99.8604C122.588 99.8072 122.278 99.8219 121.984 99.9034C121.689 99.985 121.416 100.131 121.185 100.332C120.864 100.845 120.72 101.451 120.776 102.055V107.982H118.973V98.1913Z" fill="#F1B850"/>
<path d="M123.698 98.1912H125.733L127.167 105.022L128.848 98.1912H130.682L126.689 112H124.793L126.288 107.201L123.698 98.1912Z" fill="#F1B850"/>
<path d="M131.769 112V98.1913H133.566V99.4585C133.74 99.0362 134.003 98.6567 134.337 98.3458C134.634 98.1247 134.999 98.0129 135.369 98.029C135.759 98.0241 136.14 98.1424 136.458 98.3672C136.777 98.5919 137.016 98.9117 137.143 99.2808C137.586 100.539 137.777 101.873 137.705 103.206C137.785 104.485 137.588 105.766 137.127 106.962C136.979 107.32 136.725 107.623 136.4 107.833C136.075 108.043 135.694 108.149 135.308 108.136C134.957 108.149 134.61 108.055 134.313 107.866C134.172 107.756 134.046 107.629 133.936 107.487C133.797 107.295 133.671 107.093 133.558 106.885V112H131.769ZM135.84 103.144C135.889 102.232 135.801 101.318 135.578 100.432C135.538 100.217 135.425 100.021 135.258 99.8804C135.09 99.7394 134.879 99.6613 134.66 99.6595C134.252 99.6595 133.951 99.9222 133.774 100.432C133.424 102.169 133.424 103.958 133.774 105.694C133.959 106.22 134.252 106.467 134.66 106.467C134.878 106.463 135.088 106.383 135.255 106.243C135.422 106.102 135.536 105.909 135.578 105.694C135.793 104.863 135.882 104.003 135.84 103.144Z" fill="#F1B850"/>
<path d="M139.633 95.4481H141.429V98.1913H142.415V99.6286H141.429V107.982H139.633V99.6286H138.638V98.1913H139.633V95.4481Z" fill="#F1B850"/>
<path d="M149.438 103.168C149.438 106.485 148.41 108.141 146.355 108.136C144.304 108.136 143.271 106.452 143.271 103.09C143.271 99.729 144.289 98.029 146.355 98.029C146.83 98.0173 147.3 98.1207 147.727 98.3303C148.126 98.5507 148.457 98.8769 148.683 99.2731C148.964 99.7684 149.155 100.31 149.246 100.873C149.381 101.63 149.446 102.398 149.438 103.168ZM147.565 103.121C147.606 102.217 147.521 101.312 147.311 100.432C147.273 100.218 147.163 100.025 146.998 99.8835C146.833 99.7425 146.625 99.6633 146.409 99.6594C146.191 99.6655 145.982 99.7452 145.816 99.8855C145.649 100.026 145.535 100.218 145.491 100.432C145.281 101.296 145.196 102.186 145.237 103.075C145.195 103.958 145.281 104.843 145.491 105.702C145.535 105.916 145.649 106.109 145.816 106.249C145.982 106.389 146.191 106.469 146.409 106.475C146.624 106.471 146.832 106.391 146.995 106.25C147.158 106.109 147.267 105.915 147.303 105.702C147.524 104.861 147.612 103.99 147.565 103.121Z" fill="#F1B850"/>
<path d="M161.888 91.9089H163.43L154.742 112H153.2L161.888 91.9089Z" fill="#F1B850"/>
<path d="M167.832 98.1912H169.636V99.3194C169.822 98.9423 170.106 98.6229 170.459 98.3956C170.813 98.1683 171.221 98.0415 171.64 98.029C171.983 98.005 172.326 98.0813 172.627 98.2486C172.928 98.4159 173.175 98.6671 173.336 98.9717C173.578 99.6256 173.675 100.324 173.621 101.019V107.974H171.817V101.429C171.853 100.948 171.771 100.465 171.578 100.023C171.5 99.8893 171.387 99.78 171.251 99.7064C171.115 99.6329 170.962 99.598 170.808 99.6053C170.627 99.6004 170.447 99.6374 170.283 99.7135C170.136 99.7919 170.015 99.913 169.936 100.061C169.837 100.26 169.772 100.474 169.744 100.695C169.7 101.01 169.679 101.327 169.682 101.645V107.974H167.878L167.832 98.1912Z" fill="#F1B850"/>
<path d="M174.994 98.1913H175.903V94.7758C175.835 93.9572 176.003 93.1361 176.389 92.4112C176.595 92.1637 176.86 91.9708 177.158 91.8495C177.456 91.7282 177.78 91.6823 178.1 91.7157C178.521 91.7319 178.936 91.8208 179.326 91.9785V93.8871C179.092 93.746 178.828 93.6638 178.555 93.6476C178.432 93.6378 178.308 93.6579 178.194 93.7064C178.079 93.7548 177.979 93.83 177.9 93.9258C177.747 94.2094 177.68 94.5317 177.707 94.8531V95.6258V98.2299H179.249V99.6672H177.707V108.02H175.911V99.6285H174.994V98.1913Z" fill="#F1B850"/>
<path d="M181.076 95.4481H182.88V98.1913H183.867V99.6286H182.88V107.982H181.076V99.6286H180.089V98.1913H181.076V95.4481Z" fill="#F1B850"/>
<path d="M195.908 91.9089H197.45L188.769 112H187.228L195.908 91.9089Z" fill="#F1B850"/>
<path d="M201.875 98.1913H203.679V99.4045C203.842 99.0083 204.115 98.6678 204.467 98.4238C204.818 98.1798 205.233 98.0427 205.66 98.029C206.077 98.0127 206.486 98.1405 206.82 98.3909C207.154 98.6413 207.392 98.9991 207.495 99.4045C207.661 99 207.943 98.6538 208.305 98.4092C208.667 98.1645 209.093 98.0323 209.53 98.029C209.81 98.0139 210.091 98.0547 210.355 98.1488C210.62 98.243 210.863 98.3887 211.071 98.5776C211.264 98.7944 211.411 99.0477 211.503 99.3225C211.596 99.5973 211.633 99.8879 211.611 100.177V107.982H209.8V101.537C209.838 101.031 209.767 100.522 209.591 100.046C209.516 99.9118 209.402 99.8034 209.265 99.7346C209.127 99.6657 208.973 99.6396 208.82 99.6595C208.65 99.6373 208.477 99.6631 208.32 99.7341C208.164 99.8051 208.03 99.9184 207.934 100.061C207.741 100.528 207.662 101.034 207.703 101.537V107.974H205.837V101.537C205.842 101.243 205.824 100.948 205.783 100.656C205.761 100.455 205.704 100.258 205.614 100.077C205.54 99.941 205.427 99.8307 205.29 99.7599C205.136 99.6873 204.966 99.6529 204.796 99.6595C204.624 99.6432 204.451 99.6742 204.294 99.749C204.138 99.8239 204.005 99.9398 203.91 100.084C203.699 100.538 203.609 101.038 203.648 101.537V107.974H201.844L201.875 98.1913Z" fill="#F1B850"/>
<path d="M217.462 104.682H219.143C219.004 107 218.064 108.136 216.306 108.136C215.842 108.148 215.381 108.048 214.964 107.843C214.573 107.635 214.249 107.318 214.032 106.931C213.762 106.452 213.579 105.929 213.492 105.385C213.366 104.643 213.306 103.89 213.315 103.137C213.225 101.808 213.475 100.478 214.039 99.2731C214.255 98.8752 214.579 98.5465 214.973 98.325C215.367 98.1035 215.816 97.9982 216.267 98.0212C218.225 98.0212 219.204 99.7496 219.204 103.206V103.438H215.08C215.08 105.532 215.496 106.575 216.329 106.575C217.162 106.575 217.462 105.949 217.462 104.682ZM217.362 102.14C217.354 101.451 217.237 100.767 217.015 100.115C216.951 99.9565 216.842 99.8203 216.7 99.7244C216.559 99.6286 216.392 99.5773 216.221 99.5773C216.05 99.5773 215.883 99.6286 215.742 99.7244C215.6 99.8203 215.491 99.9565 215.427 100.115C215.209 100.768 215.092 101.451 215.08 102.14H217.362Z" fill="#F1B850"/>
<path d="M221.032 95.4481H222.828V98.1913H223.815V99.6286H222.828V107.982H221.032V99.6286H220.037V98.1913H221.032V95.4481Z" fill="#F1B850"/>
<path d="M230.706 98.1913V107.982H228.902V106.73C228.728 107.15 228.465 107.527 228.131 107.835C227.836 108.049 227.477 108.155 227.114 108.136C226.724 108.141 226.342 108.022 226.023 107.797C225.703 107.573 225.462 107.254 225.333 106.885C224.884 105.63 224.69 104.298 224.763 102.967C224.693 101.694 224.887 100.42 225.333 99.2267C225.472 98.8684 225.717 98.5614 226.036 98.3472C226.354 98.133 226.73 98.0219 227.114 98.029C227.503 98.0459 227.879 98.1743 228.197 98.3989C228.516 98.6235 228.763 98.935 228.91 99.2963V98.1913H230.706ZM226.644 103.083C226.602 103.989 226.688 104.897 226.898 105.78C226.94 105.995 227.055 106.19 227.224 106.33C227.392 106.471 227.604 106.549 227.823 106.552C228.224 106.552 228.517 106.29 228.694 105.78C229.064 104.048 229.064 102.257 228.694 100.525C228.517 99.9917 228.224 99.7522 227.823 99.7522C227.606 99.7583 227.397 99.838 227.23 99.9783C227.063 100.119 226.949 100.311 226.906 100.525C226.69 101.359 226.602 102.222 226.644 103.083Z" fill="#F1B850"/>
<path d="M231.924 98.1912H233.859L234.561 101.282C234.707 101.908 234.831 102.58 234.931 103.284C235.031 103.987 235.116 104.752 235.178 105.602C235.203 105.49 235.221 105.376 235.231 105.262L235.455 103.801C235.532 103.245 235.694 102.41 235.933 101.298L236.581 98.2067H238.33L235.779 107.997H234.561L231.924 98.1912Z" fill="#F1B850"/>
<path d="M243.087 104.682H244.767C244.634 106.985 243.691 108.136 241.938 108.136C241.472 108.148 241.009 108.047 240.589 107.843C240.2 107.633 239.879 107.317 239.664 106.931C239.392 106.452 239.206 105.929 239.117 105.385C238.993 104.642 238.936 103.89 238.947 103.137C238.86 101.809 239.106 100.48 239.664 99.2731C239.881 98.8746 240.206 98.5456 240.602 98.3242C240.997 98.1027 241.447 97.9977 241.9 98.0213C243.858 98.0213 244.837 99.7496 244.837 103.206V103.438H240.713C240.713 105.532 241.121 106.575 241.954 106.575C242.786 106.575 243.087 105.95 243.087 104.682ZM242.994 102.14C242.983 101.451 242.866 100.769 242.648 100.115C242.588 99.9578 242.483 99.8218 242.346 99.7253C242.208 99.6287 242.045 99.5762 241.877 99.5745C241.707 99.5667 241.539 99.6155 241.399 99.7133C241.26 99.8112 241.157 99.9525 241.106 100.115C240.88 100.767 240.763 101.451 240.759 102.14H242.994Z" fill="#F1B850"/>
<path d="M246.44 98.1913H248.229V99.4122C248.454 98.9901 248.764 98.6192 249.138 98.3226C249.501 98.0986 249.916 97.9759 250.341 97.9672V99.8604C250.233 99.8503 250.125 99.8503 250.017 99.8604C249.763 99.8356 249.507 99.8678 249.267 99.9547C249.027 100.042 248.809 100.181 248.63 100.363C248.311 100.878 248.171 101.483 248.229 102.086V108.013H246.425L246.44 98.1913Z" fill="#F1B850"/>
<path d="M255.652 98.3921V100.084C255.256 99.7724 254.769 99.5988 254.265 99.5899C254.109 99.5898 253.955 99.6186 253.81 99.6749C253.678 99.7338 253.556 99.8119 253.448 99.9067C253.344 100.009 253.26 100.129 253.201 100.262C253.142 100.396 253.113 100.541 253.116 100.687C253.116 101.159 253.532 101.715 254.38 102.356C254.678 102.583 254.961 102.828 255.228 103.09C255.426 103.285 255.599 103.503 255.745 103.739C256.007 104.194 256.135 104.714 256.115 105.239C256.133 105.624 256.074 106.009 255.942 106.371C255.809 106.734 255.606 107.066 255.344 107.348C255.077 107.612 254.758 107.816 254.408 107.949C254.057 108.082 253.683 108.141 253.309 108.121C252.764 108.103 252.232 107.943 251.767 107.657V105.911C252.186 106.257 252.705 106.461 253.247 106.49C253.413 106.516 253.582 106.502 253.742 106.451C253.902 106.399 254.047 106.311 254.167 106.193C254.287 106.076 254.377 105.931 254.432 105.772C254.486 105.613 254.503 105.444 254.481 105.277C254.489 105.003 254.41 104.732 254.257 104.504C254.162 104.366 254.05 104.239 253.926 104.126C253.749 103.959 253.564 103.801 253.371 103.654C252.787 103.233 252.267 102.728 251.829 102.155C251.55 101.69 251.413 101.153 251.436 100.61C251.422 100.255 251.479 99.9001 251.604 99.5672C251.728 99.2342 251.917 98.9293 252.16 98.6703C252.41 98.4166 252.71 98.2171 253.04 98.0842C253.37 97.9513 253.724 97.8878 254.08 97.8976C254.637 97.9281 255.178 98.0981 255.652 98.3921Z" fill="#F1B850"/>
<path d="M261.334 104.682H263.015C262.884 107 261.935 108.136 260.185 108.136C259.719 108.148 259.256 108.047 258.836 107.843C258.447 107.633 258.127 107.317 257.911 106.931C257.639 106.452 257.453 105.929 257.364 105.385C257.24 104.642 257.184 103.89 257.194 103.137C257.107 101.809 257.353 100.48 257.911 99.2731C258.128 98.8746 258.453 98.5456 258.849 98.3242C259.245 98.1027 259.694 97.9977 260.147 98.0213C262.105 98.0213 263.084 99.7496 263.084 103.206V103.438H258.96C258.96 105.532 259.368 106.575 260.201 106.575C261.033 106.575 261.334 105.95 261.334 104.682ZM261.241 102.14C261.23 101.451 261.113 100.769 260.895 100.115C260.836 99.9578 260.73 99.8218 260.593 99.7253C260.455 99.6287 260.292 99.5762 260.124 99.5745C259.954 99.5667 259.786 99.6155 259.646 99.7133C259.507 99.8112 259.404 99.9525 259.353 100.115C259.127 100.767 259.01 101.451 259.006 102.14H261.241Z" fill="#F1B850"/>
<path d="M101.242 63.0628L101.157 63.0087C99.5351 61.8459 97.6002 61.2021 95.6066 61.1618C94.6229 61.1541 93.6469 61.335 92.7311 61.695C91.8689 62.0577 91.0839 62.5822 90.4184 63.2405C89.7555 63.9026 89.2313 64.6907 88.8766 65.5587C88.4887 66.5097 88.2972 67.5296 88.3139 68.5569C88.3001 69.5664 88.4915 70.5681 88.8766 71.501C89.2344 72.3674 89.7582 73.155 90.4184 73.8192C91.0732 74.4906 91.861 75.0171 92.7311 75.3647C93.6565 75.7294 94.6431 75.913 95.6374 75.9056C97.6766 75.8899 99.648 75.1693 101.219 73.8656L101.273 73.8192V82.9761C98.9068 84.0629 96.3429 84.6494 93.741 84.6993C91.5837 84.7109 89.4422 84.3313 87.4197 83.5789C85.4697 82.848 83.6791 81.7459 82.1467 80.3334C80.6067 78.9081 79.3646 77.1903 78.4927 75.2797C77.5642 73.2169 77.101 70.9742 77.1359 68.7115C77.1064 66.4348 77.5501 64.1769 78.4387 62.0814C79.2674 60.1356 80.4756 58.3753 81.9925 56.9041C83.5483 55.4267 85.383 54.276 87.3888 53.5195C89.5097 52.6802 91.7691 52.2477 94.0493 52.2445C96.5563 52.2226 99.0332 52.7917 101.28 53.9059V63.0628H101.242Z" fill="#171E3F"/>
<path d="M119.543 53.195V70.3806C119.543 74.1438 121.355 76.0293 125.001 76.0293C128.647 76.0293 130.459 74.1438 130.459 70.3806V53.195H141.19V72.4593C141.19 76.5805 139.835 79.6714 137.127 81.7321C134.419 83.7927 130.377 84.823 125.001 84.823C119.62 84.823 115.575 83.7927 112.867 81.7321C110.158 79.6714 108.804 76.5805 108.804 72.4593V53.195H119.543Z" fill="#171E3F"/>
<path d="M162.004 34.348V83.6948H151.265V34.348H162.004Z" fill="#171E3F"/>
<path d="M183.859 62.1741V83.6948H173.12V62.1741H169.597V53.195H173.151V44.0381H183.859V53.195H189.972V62.1741H183.859Z" fill="#171E3F"/>
<path d="M208.265 53.195V70.3806C208.265 74.1412 210.085 76.0241 213.723 76.0293C217.362 76.0344 219.181 74.1515 219.181 70.3806V53.195H229.92V72.4593C229.92 76.5805 228.566 79.6714 225.857 81.7321C223.149 83.7927 219.104 84.823 213.723 84.823C208.343 84.823 204.3 83.7927 201.597 81.7321C198.894 79.6714 197.537 76.5805 197.527 72.4593V53.195H208.265Z" fill="#171E3F"/>
<path d="M237.475 53.195H248.229V58.1869C249.275 56.4713 250.719 55.0345 252.438 53.9986C254.209 52.9971 256.217 52.4926 258.25 52.5382H259.168C259.559 52.5423 259.949 52.5837 260.332 52.6618V62.9469C258.896 62.2277 257.311 61.8596 255.706 61.8728C253.216 61.8728 251.351 62.6455 250.102 64.106C248.853 65.5665 248.229 67.761 248.229 70.6279V83.7025H237.49L237.475 53.195Z" fill="#171E3F"/>
<path d="M276.397 70.2569C276.397 74.8933 278.574 77.2115 282.927 77.2115C283.981 77.2592 285.028 77.0192 285.957 76.517C286.885 76.0148 287.661 75.2694 288.2 74.3601H298.584C296.487 81.3302 291.247 84.8178 282.865 84.8229C280.462 84.8514 278.072 84.4591 275.804 83.6638C273.77 82.949 271.902 81.8263 270.315 80.3643C268.791 78.9279 267.588 77.1845 266.784 75.2488C265.933 73.1331 265.511 70.8687 265.543 68.5878C265.508 66.2438 265.911 63.9138 266.73 61.7182C267.465 59.7591 268.617 57.9843 270.107 56.5177C271.626 55.056 273.436 53.9317 275.418 53.2181C277.674 52.414 280.055 52.0214 282.449 52.059C284.812 52.0237 287.163 52.4163 289.387 53.2181C291.356 53.9323 293.14 55.0811 294.606 56.5795C296.077 58.1199 297.19 59.967 297.867 61.9887C298.652 64.2935 299.035 66.7167 299 69.1519V70.2801L276.397 70.2569ZM288.971 64.0132C288.667 62.5933 287.896 61.3169 286.781 60.3891C285.615 59.5123 284.198 59.0332 282.74 59.022C281.282 59.0109 279.859 59.4684 278.679 60.3273C277.591 61.2711 276.886 62.5828 276.698 64.0132H288.971Z" fill="#171E3F"/>
<path d="M129.703 38.7062V45.6608H127.098V38.9458C127.158 38.258 126.987 37.5698 126.612 36.9908C126.422 36.7734 126.183 36.6046 125.915 36.4984C125.647 36.3922 125.357 36.3517 125.07 36.3803C124.704 36.3429 124.334 36.4007 123.997 36.5483C123.659 36.6958 123.365 36.928 123.143 37.2226C122.717 38.1395 122.534 39.1507 122.611 40.159V45.6299H119.998V36.7744H117.462V45.6299H114.864V36.7744H112.682V34.3094H114.864V30.2062H117.462V34.3094H119.998V26.0411H122.611V35.3139C123.436 34.5077 124.542 34.0558 125.695 34.0544C126.268 34.0276 126.84 34.1249 127.372 34.3395C127.904 34.5542 128.384 34.8813 128.778 35.2985C129.482 36.2877 129.81 37.4961 129.703 38.7062Z" fill="#171E3F"/>
<path d="M141.56 40.1821H133.488C133.514 41.0058 133.834 41.7928 134.39 42.3999C134.662 42.6622 134.983 42.866 135.336 42.9989C135.689 43.1318 136.065 43.1909 136.441 43.1726C137.011 43.1951 137.574 43.0325 138.045 42.709C138.614 42.2225 139.096 41.6424 139.471 40.9935L141.668 42.2221C141.36 42.7552 140.998 43.2549 140.588 43.7135C140.232 44.1061 139.825 44.4491 139.378 44.7335C138.943 44.9973 138.47 45.1928 137.975 45.3131C137.442 45.4406 136.896 45.5028 136.349 45.4985C135.597 45.531 134.846 45.4031 134.147 45.1234C133.448 44.8437 132.816 44.4184 132.294 43.8758C131.234 42.6886 130.68 41.1323 130.752 39.5408C130.68 37.9601 131.209 36.4109 132.232 35.2057C132.736 34.6632 133.351 34.2365 134.035 33.9551C134.719 33.6736 135.456 33.544 136.194 33.5753C136.922 33.5336 137.65 33.6502 138.329 33.9169C139.007 34.1837 139.62 34.5943 140.126 35.1207C141.141 36.3431 141.654 37.9068 141.56 39.4944V40.1821ZM138.892 38.0494C138.791 37.4367 138.465 36.8839 137.979 36.4983C137.493 36.1127 136.882 35.9219 136.264 35.963C135.962 35.9595 135.662 36.0092 135.377 36.1098C134.818 36.2989 134.343 36.6792 134.036 37.1839C133.866 37.4508 133.738 37.7429 133.658 38.0494H138.892Z" fill="#171E3F"/>
<path d="M109.753 40.1822H101.681C101.707 41.0059 102.027 41.7929 102.583 42.3999C102.854 42.6622 103.176 42.8661 103.529 42.999C103.881 43.1319 104.257 43.191 104.634 43.1726C105.204 43.1951 105.766 43.0325 106.237 42.709C106.806 42.224 107.286 41.6435 107.656 40.9935L109.86 42.2222C109.553 42.7552 109.191 43.255 108.781 43.7135C108.425 44.1061 108.018 44.4492 107.571 44.7336C107.135 44.996 106.662 45.1913 106.168 45.3131C105.635 45.4406 105.089 45.5029 104.541 45.4986C103.789 45.532 103.039 45.4046 102.34 45.1248C101.64 44.845 101.009 44.4193 100.486 43.8758C99.4264 42.6886 98.8729 41.1323 98.9446 39.5408C98.8728 37.9601 99.4018 36.4109 100.425 35.2058C100.927 34.6638 101.541 34.2375 102.224 33.956C102.906 33.6746 103.642 33.5447 104.379 33.5753C105.107 33.5321 105.836 33.6479 106.515 33.9148C107.194 34.1816 107.806 34.5931 108.311 35.1208C109.332 36.34 109.848 37.9053 109.753 39.4944V40.1822ZM107.085 38.0494C106.983 37.4367 106.658 36.8839 106.172 36.4984C105.686 36.1128 105.075 35.922 104.456 35.963C104.155 35.9595 103.855 36.0092 103.57 36.1099C103.011 36.299 102.536 36.6792 102.229 37.184C102.055 37.4492 101.927 37.7417 101.851 38.0494H107.085Z" fill="#171E3F"/>
<path d="M84.7138 33.4903L87.6663 39.9426L90.8424 32.4625L94.0494 39.9426L96.9634 33.4903H99.8774L93.98 45.6299L90.8424 38.3585L87.6741 45.6299L81.7921 33.4903H84.7138Z" fill="#171E3F"/>
<path d="M289.086 45.4445H287.437V44.8495H291.468V45.4445H289.857V50.305H289.086V45.4445Z" fill="#171E3F"/>
<path d="M296.687 47.9095C296.641 47.1368 296.595 46.2327 296.603 45.5913C296.417 46.2249 296.186 46.9049 295.916 47.6622L294.953 50.3127H294.421L293.542 47.7086C293.28 46.9358 293.064 46.2327 292.91 45.5913C292.91 46.2713 292.856 47.1831 292.802 48.0022L292.663 50.3204H291.993L292.37 44.8649H293.265L294.197 47.4999C294.421 48.1722 294.606 48.775 294.745 49.3391C294.883 48.7904 295.076 48.1877 295.315 47.4999L296.286 44.8649H297.181L297.52 50.3204H296.795L296.687 47.9095Z" fill="#171E3F"/>
</g>
<defs>
<clipPath id="clip0_104_150">
<rect width="299" height="112" fill="white"/>
</clipPath>
</defs>
</svg>
