<svg width="130" height="120" viewBox="0 0 130 120" fill="none" xmlns="http://www.w3.org/2000/svg">
    <path d="M14.1439 106.387L14.0941 106.351C13.1423 105.674 12.0091 105.298 10.8412 105.272C10.2646 105.268 9.69245 105.374 9.15594 105.585C8.64723 105.794 8.1852 106.102 7.79681 106.492C7.4062 106.879 7.09799 107.342 6.89073 107.851C6.66691 108.409 6.55604 109.005 6.56454 109.605C6.55759 110.195 6.66849 110.781 6.89073 111.328C7.10048 111.836 7.40838 112.298 7.79681 112.687C8.18048 113.082 8.64377 113.391 9.15594 113.594C9.69912 113.804 10.277 113.91 10.8594 113.907C12.0528 113.897 13.2065 113.476 14.1258 112.715L14.162 112.687V118.022C12.7753 118.655 11.2735 118.998 9.74942 119.028C8.48454 119.035 7.22889 118.813 6.04355 118.371C4.88897 117.946 3.83044 117.296 2.92971 116.458C2.02899 115.62 1.3041 114.611 0.797338 113.49C0.251676 112.284 -0.0206172 110.973 -1.04511e-05 109.651C-0.0161712 108.319 0.242953 106.998 0.761101 105.771C1.25208 104.63 1.96875 103.6 2.86801 102.743C3.76726 101.886 4.8305 101.22 5.99372 100.785C7.24066 100.304 8.56709 100.063 9.90346 100.074C11.3734 100.06 12.826 100.392 14.1439 101.044V106.401V106.387Z" fill="#181E3F"/>
    <path d="M24.8629 100.613V110.661C24.8629 112.864 25.92 113.965 28.0342 113.965C30.1483 113.965 31.2145 112.864 31.2326 110.661V100.613H37.5435V111.881C37.5435 114.298 36.7506 116.111 35.165 117.319C33.5794 118.528 31.21 119.132 28.0568 119.132C24.9067 119.132 22.5388 118.528 20.9531 117.319C19.3675 116.111 18.5731 114.298 18.5701 111.881V100.613H24.8629Z" fill="#181E3F"/>
    <path d="M49.7393 89.5951V118.475H43.4511V89.5951H49.7393Z" fill="#181E3F"/>
    <path d="M62.5422 105.866V118.475H56.254V105.866H54.17V100.613H56.254V95.2606H62.5422V100.613H66.1213V105.866H62.5422Z" fill="#181E3F"/>
    <path d="M76.8402 100.613V110.661C76.8402 112.864 77.9064 113.965 80.0387 113.965C82.171 113.965 83.2371 112.864 83.2371 110.661V100.613H89.5253V111.881C89.5253 114.298 88.7325 116.111 87.1469 117.319C85.5612 118.528 83.1918 119.132 80.0387 119.132C76.8855 119.132 74.5176 118.528 72.935 117.319C71.3524 116.111 70.558 114.298 70.552 111.881V100.613H76.8402Z" fill="#181E3F"/>
    <path d="M93.9561 100.613H100.244V103.518C100.857 102.514 101.704 101.674 102.713 101.071C103.752 100.487 104.929 100.192 106.12 100.219H106.677C106.906 100.222 107.133 100.244 107.357 100.287V106.301C106.513 105.881 105.581 105.667 104.639 105.676C103.18 105.676 102.087 106.111 101.359 106.981C100.631 107.851 100.265 109.12 100.262 110.788V118.475H93.9561V100.613Z" fill="#181E3F"/>
    <path d="M116.758 110.593C116.758 113.313 118.032 114.672 120.581 114.672C121.199 114.701 121.813 114.561 122.357 114.267C122.902 113.974 123.356 113.537 123.671 113.005H129.755C128.526 117.084 125.456 119.123 120.545 119.123C119.138 119.139 117.738 118.911 116.409 118.448C115.217 118.031 114.124 117.374 113.197 116.517C112.3 115.68 111.594 114.66 111.126 113.526C110.625 112.29 110.377 110.966 110.397 109.633C110.377 108.263 110.612 106.901 111.09 105.617C111.522 104.47 112.199 103.432 113.074 102.576C113.964 101.721 115.023 101.064 116.182 100.645C117.503 100.174 118.898 99.944 120.3 99.9651C121.689 99.9436 123.071 100.174 124.378 100.645C125.528 101.065 126.57 101.737 127.427 102.612C128.286 103.508 128.938 104.582 129.339 105.757C129.795 107.106 130.017 108.522 129.995 109.945V110.607L116.758 110.593ZM124.124 106.94C123.945 106.11 123.492 105.364 122.837 104.824C122.155 104.31 121.326 104.028 120.472 104.022C119.618 104.015 118.784 104.284 118.094 104.787C117.458 105.34 117.044 106.105 116.93 106.94H124.124Z" fill="#181E3F"/>
    <path d="M30.8158 92.1423V96.1896H29.289V92.2873C29.3222 91.8833 29.2236 91.4794 29.0081 91.1361C28.8949 91.0108 28.7541 90.9137 28.5968 90.8523C28.4396 90.791 28.2702 90.7671 28.1021 90.7826C27.8874 90.761 27.6709 90.7951 27.4733 90.8816C27.2757 90.9682 27.1037 91.1042 26.974 91.2766C26.7254 91.8133 26.6178 92.4045 26.6614 92.9944V96.1896H25.1301V91.0137H23.6441V96.1896H22.1219V91.0137H20.8444V89.5815H22.1219V87.1703H23.6441V89.5815H25.1301V84.7365H26.6569V90.1345C27.1435 89.6648 27.7929 89.4017 28.469 89.4002C28.8059 89.383 29.1425 89.4393 29.4555 89.5653C29.7684 89.6914 30.0502 89.884 30.2812 90.1299C30.6975 90.7136 30.8875 91.4288 30.8158 92.1423Z" fill="#181E3F"/>
    <path d="M37.7609 93.0079H33.0312C33.0465 93.4883 33.2347 93.947 33.5612 94.2996C33.7197 94.4534 33.908 94.5729 34.1145 94.6509C34.321 94.7288 34.5413 94.7635 34.7618 94.7529C35.097 94.766 35.4274 94.6707 35.7041 94.4809C36.0358 94.1959 36.3176 93.8573 36.5377 93.4793L37.8243 94.1954C37.6435 94.5069 37.4326 94.7999 37.1946 95.0701C36.9864 95.3003 36.747 95.5001 36.4833 95.6639C36.2298 95.8211 35.9531 95.9373 35.6633 96.0083C35.3503 96.0831 35.0293 96.1196 34.7074 96.1171C34.2669 96.1363 33.8272 96.0614 33.4179 95.8972C33.0086 95.7331 32.6389 95.4836 32.3335 95.1653C31.7124 94.4715 31.3872 93.5622 31.4274 92.6318C31.3859 91.7082 31.695 90.8032 32.2927 90.0982C32.5868 89.78 32.9467 89.5296 33.3472 89.3644C33.7478 89.1993 34.1795 89.1233 34.6123 89.1419C35.0403 89.1201 35.468 89.192 35.8655 89.3525C36.2629 89.5129 36.6207 89.7581 36.9137 90.071C37.5203 90.7848 37.8271 91.7057 37.77 92.6408L37.7609 93.0079ZM36.1979 91.7615C36.1391 91.4026 35.9487 91.0784 35.6639 90.8522C35.3792 90.6259 35.0204 90.5139 34.6576 90.5378C34.4804 90.538 34.3044 90.5671 34.1366 90.6239C33.8117 90.7369 33.5352 90.9576 33.3528 91.2494C33.2544 91.4079 33.1811 91.5806 33.1354 91.7615H36.1979Z" fill="#181E3F"/>
    <path d="M19.1274 93.0079H14.3976C14.413 93.4883 14.6012 93.9471 14.9277 94.2996C15.0855 94.453 15.273 94.5724 15.4787 94.6503C15.6845 94.7283 15.904 94.7632 16.1237 94.7529C16.4602 94.7654 16.792 94.6701 17.0706 94.4809C17.3935 94.202 17.6676 93.8712 17.8815 93.502L19.1682 94.2181C18.9905 94.5316 18.7793 94.8249 18.5384 95.0928C18.3302 95.3229 18.0908 95.5228 17.8272 95.6865C17.5752 95.8437 17.3 95.9599 17.0117 96.031C16.6985 96.1053 16.3776 96.1418 16.0558 96.1398C15.6152 96.159 15.1756 96.084 14.7662 95.9199C14.3569 95.7558 13.9872 95.5063 13.6818 95.188C13.0591 94.4952 12.7336 93.5852 12.7758 92.6544C12.7318 91.7298 13.043 90.8233 13.6456 90.1208C14.2593 89.5126 15.0867 89.1691 15.9506 89.1641C16.8144 89.159 17.6458 89.4927 18.2666 90.0937C18.8649 90.806 19.1666 91.7212 19.1093 92.6499L19.1274 93.0079ZM17.5644 91.7615C17.5055 91.4026 17.3152 91.0784 17.0304 90.8522C16.7456 90.6259 16.3869 90.5139 16.0241 90.5378C15.8469 90.538 15.6709 90.5671 15.5031 90.6239C15.3388 90.6781 15.1854 90.7609 15.05 90.8687C14.9151 90.9744 14.8 91.1033 14.7102 91.2494C14.6083 91.4066 14.5333 91.5797 14.4883 91.7615H17.5644Z" fill="#181E3F"/>
    <path d="M4.46245 89.092L6.18853 92.8629L8.05053 88.4938L9.93065 92.8629L11.6341 89.092H13.342L9.88534 96.1897L8.05053 91.9429L6.19759 96.1897L2.74542 89.092H4.46245Z" fill="#181E3F"/>
    <path d="M67.0908 44.0905L66.4791 44.1539C66.4137 44.1326 66.354 44.0966 66.3045 44.0487C66.2551 44.0008 66.2172 43.9422 66.1937 43.8775C65.9083 43.2294 65.6093 42.5812 65.3194 41.9376C65.2906 41.8589 65.239 41.7906 65.1712 41.7413C65.1034 41.6921 65.0225 41.6642 64.9388 41.6612C64.5854 41.6249 64.2321 41.5841 63.8832 41.5388C63.7983 41.5226 63.7105 41.5311 63.6302 41.5632C63.5499 41.5953 63.4805 41.6498 63.4302 41.7201L62.0711 43.4333C62.0288 43.5016 61.9617 43.5506 61.8838 43.5701C61.806 43.5896 61.7236 43.5779 61.6543 43.5376L59.9418 42.7852C59.8982 42.7755 59.8572 42.7567 59.8215 42.7301C59.7857 42.7034 59.7559 42.6696 59.7341 42.6306C59.7123 42.5917 59.6989 42.5486 59.6949 42.5042C59.6909 42.4598 59.6963 42.415 59.7107 42.3727C59.8194 41.6521 59.9237 40.9269 60.0324 40.2063C60.0481 40.1318 60.0423 40.0544 60.0159 39.983C59.9894 39.9116 59.9433 39.8492 59.8829 39.8029L59.0176 39.0732C58.9624 39.0208 58.8935 38.9853 58.8188 38.9709C58.7442 38.9564 58.6669 38.9636 58.5962 38.9916L56.5168 39.6896C56.4796 39.7095 56.4387 39.7215 56.3967 39.7249C56.3546 39.7283 56.3123 39.7231 56.2724 39.7095C56.2325 39.6959 56.1958 39.6742 56.1646 39.6459C56.1333 39.6175 56.1083 39.583 56.0909 39.5446L55.0716 37.9809C55.0437 37.949 55.0224 37.9119 55.0091 37.8716C54.9958 37.8314 54.9907 37.7889 54.9941 37.7467C54.9975 37.7044 55.0093 37.6633 55.0288 37.6257C55.0483 37.588 55.0752 37.5547 55.1078 37.5277L56.5576 35.8689C56.6084 35.8146 56.6439 35.7479 56.6606 35.6754C56.6773 35.603 56.6746 35.5274 56.6527 35.4564C56.553 35.112 56.4488 34.7675 56.3492 34.423C56.3305 34.3512 56.2923 34.286 56.2386 34.2348C56.185 34.1836 56.1182 34.1483 56.0456 34.133L54.9855 33.8701L53.6626 33.5256L53.6219 33.1585C53.6241 33.1178 53.6241 33.0769 53.6219 33.0361C53.6219 32.456 53.6219 31.8713 53.6219 31.2867C53.6141 31.207 53.6377 31.1274 53.6876 31.0648C53.7375 31.0022 53.8098 30.9615 53.8892 30.9513L56.023 30.3349C56.1027 30.3165 56.1759 30.2769 56.235 30.2202C56.294 30.1636 56.3366 30.092 56.3582 30.0131C56.4398 29.7321 56.5213 29.4511 56.6119 29.1701C56.6398 29.0921 56.6443 29.0077 56.625 28.9273C56.6057 28.8468 56.5634 28.7737 56.5032 28.7168L55.0263 27.1396C54.9922 27.1137 54.9639 27.0809 54.9432 27.0434C54.9225 27.006 54.9099 26.9646 54.906 26.922C54.9022 26.8793 54.9073 26.8363 54.921 26.7958C54.9346 26.7552 54.9566 26.7179 54.9855 26.6863L56.0728 25.0094C56.0899 24.97 56.1147 24.9346 56.1459 24.9051C56.1771 24.8757 56.2139 24.8528 56.2541 24.838C56.2943 24.8232 56.3371 24.8166 56.3799 24.8188C56.4228 24.821 56.4647 24.8319 56.5032 24.8508L58.6415 25.4853C58.7179 25.5128 58.8001 25.5194 58.8798 25.5042C58.9595 25.4891 59.0337 25.4528 59.0946 25.3992L59.6699 24.9051C59.7189 24.8668 59.7578 24.8169 59.7831 24.76C59.8083 24.7031 59.8193 24.6409 59.8149 24.5788C59.8076 24.5116 59.7955 24.4449 59.7787 24.3794C59.6564 23.6995 59.534 23.0197 59.4072 22.3444C59.3814 22.2656 59.388 22.1799 59.4253 22.106C59.4627 22.032 59.5279 21.976 59.6065 21.9501L61.4912 21.0889C61.5655 21.0443 61.6542 21.0303 61.7387 21.0497C61.8232 21.0692 61.8968 21.1206 61.9442 21.1932C62.4244 21.7552 62.9092 22.3127 63.3894 22.8792C63.4425 22.9454 63.5131 22.9954 63.5932 23.0235C63.6733 23.0515 63.7597 23.0565 63.8425 23.0378C64.0554 23.0016 64.2728 22.9608 64.4903 22.9426C64.5461 22.9399 64.5999 22.9209 64.645 22.8878C64.6901 22.8548 64.7246 22.8092 64.744 22.7568L64.7984 22.639L65.6274 20.6176C65.6476 20.5472 65.6928 20.4866 65.7546 20.4473C65.8164 20.4081 65.8904 20.3928 65.9627 20.4045L68.1554 20.6946C68.2254 20.7007 68.2911 20.7314 68.3408 20.7811C68.3905 20.8308 68.4211 20.8965 68.4272 20.9666C68.4816 21.3382 68.5314 21.7144 68.5858 22.086C68.6402 22.4577 68.69 22.8384 68.7444 23.2146C68.7508 23.2952 68.7803 23.3722 68.8293 23.4365C68.8783 23.5008 68.9447 23.5496 69.0207 23.5772C69.1793 23.6406 69.3333 23.7086 69.4738 23.7811C69.5518 23.8272 69.6419 23.8488 69.7323 23.8432C69.8228 23.8375 69.9095 23.8049 69.9812 23.7494L71.7933 22.4939C71.8222 22.4626 71.8572 22.4376 71.8962 22.4205C71.9352 22.4035 71.9773 22.3946 72.0198 22.3946C72.0624 22.3946 72.1045 22.4035 72.1435 22.4205C72.1825 22.4376 72.2175 22.4626 72.2464 22.4939L73.8818 23.8536C73.9193 23.8758 73.9518 23.9054 73.9773 23.9407C74.0028 23.9759 74.0208 24.0161 74.0302 24.0586C74.0395 24.1011 74.04 24.1451 74.0316 24.1878C74.0233 24.2305 74.0062 24.271 73.9815 24.3069L73.0754 26.3056C73.0346 26.3759 73.0162 26.4569 73.0227 26.5379C73.0292 26.6189 73.0602 26.696 73.1117 26.7589L73.4333 27.2121C73.4767 27.28 73.5373 27.335 73.6089 27.3717C73.6806 27.4083 73.7607 27.4252 73.8411 27.4206L74.8287 27.3798L76.1153 27.3345C76.1903 27.3272 76.2653 27.3476 76.3262 27.3918C76.3872 27.4361 76.4298 27.5011 76.446 27.5747C76.6635 28.2319 76.8764 28.8936 77.0939 29.5508C77.1149 29.5912 77.1272 29.6355 77.13 29.6809C77.1329 29.7263 77.1262 29.7719 77.1104 29.8145C77.0946 29.8572 77.0701 29.8961 77.0384 29.9288C77.0067 29.9614 76.9685 29.987 76.9263 30.004L75.0869 31.1779C75.0247 31.2136 74.9738 31.2661 74.9402 31.3295C74.9065 31.3928 74.8914 31.4644 74.8967 31.5359C74.8967 31.7852 74.8967 32.0345 74.9284 32.2838C74.9455 32.3825 74.9858 32.4757 75.0462 32.5557C75.0949 32.6075 75.1534 32.6491 75.2183 32.6781L77.0939 33.784C77.1619 33.8122 77.2175 33.8638 77.2507 33.9295C77.284 33.9951 77.2926 34.0705 77.2751 34.142C77.0984 34.8309 76.9263 35.5244 76.7496 36.2133C76.735 36.2776 76.6985 36.3349 76.6465 36.3753C76.5945 36.4158 76.5301 36.437 76.4642 36.4354H75.8707H74.2035C74.1279 36.4326 74.0531 36.4516 73.9881 36.4902C73.923 36.5288 73.8704 36.5853 73.8365 36.6529C73.6961 36.8977 73.5557 37.1379 73.4107 37.3781C73.3709 37.447 73.35 37.5252 73.35 37.6047C73.35 37.6843 73.3709 37.7625 73.4107 37.8314C73.752 38.4961 74.0887 39.1624 74.421 39.8301C74.4644 39.8977 74.4807 39.9792 74.4664 40.0583C74.4521 40.1374 74.4083 40.2081 74.3439 40.2562L72.9033 41.6159C72.8774 41.6502 72.8446 41.6787 72.807 41.6994C72.7693 41.7201 72.7277 41.7326 72.6849 41.736C72.6421 41.7394 72.599 41.7337 72.5586 41.7193C72.5181 41.7048 72.4812 41.6819 72.4502 41.6521L70.6154 40.4646C70.555 40.4206 70.4833 40.3947 70.4087 40.3898C70.3341 40.385 70.2597 40.4015 70.1941 40.4374L69.288 40.8907C69.2198 40.9236 69.1615 40.9741 69.1193 41.0371C69.0771 41.1 69.0525 41.1731 69.0479 41.2487C68.9709 41.9966 68.8939 42.7399 68.8123 43.4877C68.811 43.5594 68.7843 43.6283 68.7371 43.6823C68.6898 43.7362 68.625 43.7716 68.5541 43.7823L67.725 43.9636L67.0908 44.0905ZM66.1847 39.2318C67.5494 39.0909 68.8417 38.5483 69.8981 37.6726C70.9545 36.7968 71.7276 35.6273 72.1196 34.312C72.5116 32.9967 72.5048 31.5946 72.1002 30.2831C71.6956 28.9716 70.9113 27.8096 69.8465 26.9441C68.7817 26.0785 67.4842 25.5484 66.1182 25.4206C64.7522 25.2929 63.379 25.5733 62.1723 26.2264C60.9656 26.8795 59.9796 27.8759 59.339 29.0897C58.6985 30.3034 58.4321 31.68 58.5736 33.0452C58.7644 34.8755 59.6737 36.5552 61.1016 37.7152C62.5296 38.8753 64.3595 39.4207 66.1892 39.2318H66.1847Z" fill="#F1B950"/>
    <path d="M83.9937 30.208L83.5135 30.2624C83.4612 30.2452 83.4136 30.2163 83.3743 30.1778C83.3351 30.1393 83.3052 30.0922 83.287 30.0403L82.5938 28.5038C82.57 28.4419 82.5286 28.3883 82.4746 28.3496C82.4207 28.3109 82.3566 28.2889 82.2903 28.2863L81.4522 28.1866C81.3856 28.1754 81.3173 28.1831 81.2549 28.2087C81.1924 28.2343 81.1384 28.2769 81.0988 28.3316C80.7409 28.7848 80.374 29.2381 80.0115 29.6913C79.9778 29.7452 79.9244 29.7839 79.8627 29.7991C79.8009 29.8143 79.7357 29.8049 79.6808 29.7729L78.3217 29.1837C78.2872 29.1761 78.2548 29.1612 78.2265 29.1401C78.1982 29.119 78.1748 29.0922 78.1576 29.0613C78.1405 29.0305 78.1301 28.9963 78.1272 28.9612C78.1242 28.926 78.1287 28.8906 78.1405 28.8573C78.2265 28.2817 78.3081 27.7107 78.3942 27.1351C78.4065 27.0764 78.4019 27.0155 78.3811 26.9594C78.3602 26.9033 78.3239 26.8542 78.2764 26.8178L77.5923 26.2377C77.5472 26.198 77.4923 26.1712 77.4333 26.1601C77.3744 26.1489 77.3135 26.1538 77.257 26.1742L75.608 26.7271C75.5783 26.7426 75.5459 26.7519 75.5126 26.7546C75.4793 26.7572 75.4458 26.7531 75.4141 26.7425C75.3824 26.732 75.3531 26.7151 75.3281 26.693C75.303 26.6709 75.2826 26.644 75.2682 26.6138L74.4572 25.372C74.4334 25.3464 74.415 25.3162 74.4034 25.2832C74.3918 25.2502 74.3871 25.2151 74.3896 25.1802C74.3922 25.1453 74.4019 25.1113 74.4182 25.0804C74.4345 25.0494 74.4571 25.0221 74.4844 25.0003L75.6352 23.6814C75.6767 23.6394 75.7059 23.5866 75.7195 23.5291C75.7331 23.4715 75.7305 23.4113 75.7122 23.3551C75.6351 23.0832 75.5536 22.8112 75.472 22.5393C75.4595 22.4813 75.4299 22.4283 75.3872 22.3871C75.3444 22.346 75.2904 22.3185 75.2319 22.3081L74.3938 22.0951L73.3428 21.8232L73.3111 21.5331C73.3111 21.5014 73.3111 21.4696 73.3111 21.4379C73.3111 20.9847 73.3111 20.5314 73.3111 20.051C73.3046 19.9875 73.3233 19.9239 73.3631 19.874C73.4029 19.824 73.4606 19.7916 73.524 19.7836L75.2183 19.2941C75.2817 19.2794 75.3397 19.2475 75.386 19.2019C75.4324 19.1563 75.4653 19.0989 75.4811 19.0358C75.5445 18.8137 75.6125 18.5825 75.6804 18.3695C75.7037 18.3085 75.7084 18.2419 75.6939 18.1781C75.6794 18.1144 75.6463 18.0564 75.5989 18.0115C75.2048 17.599 74.8151 17.1821 74.4255 16.7651C74.3981 16.7444 74.3754 16.7183 74.3587 16.6883C74.3421 16.6582 74.3319 16.625 74.3289 16.5909C74.3259 16.5567 74.3302 16.5222 74.3413 16.4898C74.3525 16.4573 74.3704 16.4276 74.3938 16.4025L75.2546 15.07C75.2692 15.0393 75.2896 15.0118 75.3148 14.9891C75.34 14.9663 75.3694 14.9488 75.4014 14.9374C75.4334 14.926 75.4673 14.9211 75.5012 14.9228C75.5351 14.9246 75.5683 14.933 75.5989 14.9476L77.2933 15.4507C77.352 15.4727 77.4157 15.478 77.4773 15.466C77.5389 15.454 77.5959 15.4252 77.6421 15.3827L78.0952 14.9884C78.1335 14.9577 78.1639 14.9182 78.1836 14.8732C78.2033 14.8282 78.2118 14.7791 78.2084 14.7301C78.2084 14.6802 78.2084 14.6258 78.1812 14.5714C78.0816 14.0366 77.9864 13.4973 77.8868 12.9625C77.8761 12.9312 77.8718 12.8982 77.8741 12.8653C77.8763 12.8323 77.885 12.8002 77.8998 12.7707C77.9145 12.7412 77.935 12.7149 77.96 12.6933C77.985 12.6718 78.014 12.6554 78.0453 12.6452L79.5404 11.9653C79.5695 11.9456 79.6024 11.9319 79.6369 11.9253C79.6715 11.9187 79.7071 11.9192 79.7414 11.9269C79.7758 11.9345 79.8083 11.9491 79.8368 11.9698C79.8653 11.9904 79.8893 12.0167 79.9073 12.0469L81.058 13.384C81.0971 13.4335 81.1491 13.4711 81.2083 13.4927C81.2675 13.5143 81.3316 13.519 81.3933 13.5063C81.5654 13.4791 81.7376 13.4474 81.9098 13.4338C81.9536 13.4302 81.9957 13.4149 82.0316 13.3893C82.0675 13.3638 82.0958 13.3291 82.1136 13.2888L82.1544 13.1936L82.8113 11.5892C82.8281 11.5336 82.8644 11.4861 82.9136 11.4552C82.9627 11.4244 83.0213 11.4124 83.0786 11.4215L84.8183 11.6481C84.8736 11.6548 84.9251 11.6798 84.9646 11.7193C85.004 11.7587 85.0291 11.8103 85.0357 11.8656L85.1581 12.7721C85.1988 13.0712 85.2396 13.3704 85.2849 13.6786C85.2909 13.7417 85.3145 13.8019 85.3529 13.8524C85.3913 13.9029 85.4431 13.9415 85.5024 13.9641C85.6292 14.014 85.7515 14.0683 85.8739 14.1273C85.9356 14.1597 86.0055 14.1731 86.0748 14.1658C86.1442 14.1586 86.2098 14.131 86.2635 14.0865L87.6906 13.0894C87.7381 13.042 87.8024 13.0155 87.8695 13.0155C87.9366 13.0155 88.0009 13.042 88.0485 13.0894L89.3442 14.1635C89.3743 14.1811 89.4004 14.2047 89.421 14.2328C89.4416 14.2609 89.4562 14.293 89.4639 14.327C89.4715 14.3611 89.4721 14.3963 89.4655 14.4306C89.4589 14.4648 89.4454 14.4973 89.4257 14.5261L88.6918 16.1124C88.6643 16.167 88.6527 16.2283 88.6583 16.2892C88.6639 16.3501 88.6865 16.4082 88.7235 16.4569C88.8096 16.5838 88.8956 16.7062 88.9772 16.8331C89.0099 16.8882 89.0573 16.9331 89.1142 16.9627C89.171 16.9924 89.235 17.0055 89.2989 17.0008L90.0871 16.969L91.1065 16.9282C91.1658 16.9234 91.2249 16.9399 91.2731 16.9748C91.3213 17.0097 91.3554 17.0607 91.3692 17.1186C91.5369 17.6443 91.709 18.1656 91.8812 18.6913C91.9001 18.7234 91.9116 18.7592 91.9151 18.7962C91.9186 18.8333 91.914 18.8706 91.9014 18.9057C91.8889 18.9407 91.8688 18.9725 91.8426 18.9989C91.8164 19.0253 91.7847 19.0456 91.7498 19.0584L90.291 19.9921C90.2413 20.0195 90.2005 20.0605 90.1732 20.1102C90.1459 20.16 90.1334 20.2165 90.137 20.2731C90.137 20.4725 90.137 20.6719 90.1642 20.8668C90.1777 20.946 90.2104 21.0207 90.2593 21.0844C90.2972 21.1256 90.3435 21.1581 90.3952 21.1796L91.8812 22.0543C91.935 22.0773 91.9791 22.1185 92.0056 22.1707C92.0321 22.2229 92.0394 22.2828 92.0262 22.3398C91.8857 22.8883 91.7498 23.4367 91.6094 23.9851C91.5964 24.0354 91.5671 24.08 91.5262 24.112C91.4852 24.144 91.4348 24.1615 91.3828 24.1618H89.5979C89.5376 24.16 89.478 24.1752 89.4259 24.2057C89.3738 24.2361 89.3314 24.2806 89.3034 24.3341C89.1946 24.529 89.0814 24.7193 88.9681 24.9097C88.9326 24.9651 88.9137 25.0296 88.9137 25.0955C88.9137 25.1614 88.9326 25.2259 88.9681 25.2813L89.7655 26.8631C89.8014 26.9164 89.8153 26.9816 89.8043 27.0449C89.7933 27.1083 89.7583 27.1649 89.7066 27.203L88.5649 28.2727C88.5444 28.2982 88.5188 28.3193 88.4899 28.3346C88.4609 28.35 88.4291 28.3592 88.3964 28.3617C88.3637 28.3643 88.3308 28.3601 88.2998 28.3495C88.2688 28.3388 88.2403 28.3219 88.2161 28.2999L86.7618 27.3571C86.7113 27.3263 86.6533 27.31 86.5942 27.31C86.5351 27.31 86.477 27.3263 86.4266 27.3571L85.6926 27.7288C85.6382 27.7537 85.5917 27.793 85.5581 27.8426C85.5246 27.8922 85.5053 27.95 85.5024 28.0098C85.4435 28.6035 85.3801 29.1927 85.3166 29.7865C85.3153 29.8433 85.2942 29.898 85.257 29.941C85.2198 29.984 85.1688 30.0127 85.1128 30.0221L84.4513 30.1626L83.9937 30.208ZM83.2825 26.3555C84.3635 26.2404 85.3862 25.8074 86.2214 25.1111C87.0566 24.4148 87.6667 23.4866 87.9748 22.4436C88.283 21.4006 88.2752 20.2896 87.9525 19.251C87.6298 18.2124 87.0067 17.2928 86.1619 16.6083C85.3171 15.9238 84.2884 15.5051 83.2059 15.4052C82.1233 15.3052 81.0355 15.5285 80.0797 16.0467C79.1239 16.565 78.3431 17.355 77.8359 18.317C77.3286 19.2789 77.1177 20.3697 77.2298 21.4515C77.3045 22.1715 77.5203 22.8696 77.8651 23.506C78.2098 24.1424 78.6767 24.7044 79.239 25.16C79.8012 25.6155 80.4478 25.9556 81.1417 26.1608C81.8355 26.3659 82.563 26.4321 83.2825 26.3555Z" fill="#F1B950"/>
    <path d="M72.2781 16.0444L71.8658 16.0898C71.8219 16.0756 71.7819 16.0514 71.7489 16.0192C71.7159 15.9869 71.6908 15.9475 71.6755 15.9039C71.4807 15.4507 71.2768 15.0247 71.082 14.5896C71.0623 14.5364 71.0272 14.4904 70.9812 14.4573C70.9352 14.4242 70.8804 14.4056 70.8238 14.4037L70.108 14.3176C70.0517 14.3078 69.9938 14.3141 69.9409 14.3357C69.888 14.3574 69.8423 14.3935 69.809 14.44C69.5009 14.8298 69.1883 15.215 68.8803 15.6003C68.852 15.6465 68.8069 15.6799 68.7545 15.6935C68.7021 15.707 68.6465 15.6996 68.5994 15.6728L67.4441 15.138C67.2992 15.0745 67.2629 15.0156 67.2856 14.8615L67.503 13.393C67.5137 13.3429 67.51 13.2908 67.4924 13.2427C67.4748 13.1946 67.4439 13.1524 67.4034 13.1211L66.8099 12.6452C66.772 12.6105 66.7253 12.5871 66.6749 12.5775C66.6245 12.5678 66.5724 12.5725 66.5245 12.5908L65.1155 13.044C65.0904 13.057 65.0628 13.0647 65.0346 13.0667C65.0064 13.0686 64.9781 13.0648 64.9514 13.0555C64.9247 13.0462 64.9002 13.0315 64.8793 13.0124C64.8585 12.9933 64.8417 12.9701 64.8301 12.9443L64.1369 11.8883C64.1159 11.8664 64.0997 11.8403 64.0893 11.8117C64.079 11.7831 64.0748 11.7527 64.0769 11.7224C64.079 11.6921 64.0875 11.6625 64.1017 11.6357C64.116 11.6088 64.1357 11.5853 64.1596 11.5665L65.1427 10.4425C65.1777 10.4067 65.2021 10.362 65.2133 10.3132C65.2245 10.2644 65.222 10.2135 65.2061 10.166C65.1427 9.93033 65.0702 9.71278 65.0022 9.46804C64.9903 9.41953 64.9648 9.37543 64.9287 9.34091C64.8925 9.30639 64.8474 9.28289 64.7984 9.27314L64.0826 9.09185L63.1765 8.8607L63.1493 8.61143C63.1493 8.58423 63.1493 8.55704 63.1493 8.52984C63.1493 8.13553 63.1493 7.74122 63.1493 7.3469C63.1452 7.29269 63.1615 7.23889 63.195 7.19611C63.2286 7.15333 63.2769 7.12466 63.3305 7.11576L64.7757 6.69878C64.8299 6.6871 64.8798 6.66057 64.9198 6.62215C64.9598 6.58373 64.9884 6.53494 65.0022 6.48123C65.0566 6.29087 65.1155 6.10051 65.1744 5.91015C65.1925 5.85789 65.1953 5.80153 65.1825 5.74773C65.1696 5.69393 65.1417 5.64492 65.1019 5.60649L64.1007 4.54139C64.0644 4.50412 64.0434 4.45464 64.0417 4.40264C64.04 4.35065 64.0578 4.29991 64.0916 4.26039L64.8256 3.1273C64.8502 3.07382 64.8951 3.03231 64.9503 3.01191C65.0055 2.99152 65.0666 2.99389 65.12 3.01853L66.5652 3.4491C66.6158 3.467 66.6702 3.47098 66.7228 3.46061C66.7754 3.45024 66.8243 3.42592 66.8642 3.39018L67.2539 3.05479C67.2863 3.02808 67.3119 2.99397 67.3284 2.95533C67.345 2.91669 67.352 2.87464 67.349 2.83271C67.3459 2.78825 67.3383 2.74421 67.3263 2.70126C67.2448 2.24803 67.1587 1.7948 67.0726 1.34157C67.0555 1.28807 67.0601 1.22995 67.0856 1.17987C67.111 1.12978 67.1552 1.09179 67.2086 1.07416L68.4861 0.494022C68.5107 0.476734 68.5386 0.464736 68.5681 0.458786C68.5976 0.452836 68.6279 0.453061 68.6573 0.45945C68.6867 0.465838 68.7144 0.478251 68.7388 0.495903C68.7631 0.513554 68.7835 0.53606 68.7987 0.562004L69.7818 1.69962C69.8138 1.74337 69.8578 1.77691 69.9085 1.79621C69.9591 1.81551 70.0142 1.81974 70.0672 1.80839C70.2167 1.78573 70.3617 1.75854 70.5203 1.74494C70.5575 1.74272 70.5934 1.73008 70.6239 1.70844C70.6543 1.68681 70.6781 1.65705 70.6924 1.62257L70.7241 1.54099C70.9144 1.08776 71.1002 0.634523 71.2859 0.18129C71.3006 0.133371 71.332 0.0923339 71.3744 0.0656992C71.4169 0.0390645 71.4675 0.0286107 71.517 0.0362518L72.9984 0.231146C73.0457 0.236881 73.0897 0.258305 73.1233 0.291991C73.157 0.325676 73.1784 0.369681 73.1842 0.416973C73.2204 0.670783 73.2521 0.924593 73.2883 1.17387L73.3971 1.93984C73.4015 1.9941 73.4213 2.04597 73.4542 2.08933C73.4872 2.1327 73.5318 2.16575 73.5828 2.18458C73.6916 2.22537 73.7958 2.27069 73.9 2.32055C73.9527 2.34896 74.0127 2.36111 74.0724 2.35546C74.132 2.34982 74.1887 2.32663 74.2352 2.28882L75.4494 1.43675C75.4907 1.39687 75.5459 1.37458 75.6034 1.37458C75.6608 1.37458 75.7161 1.39687 75.7574 1.43675L76.8628 2.34321C76.8881 2.35845 76.91 2.37867 76.9273 2.40265C76.9445 2.42664 76.9566 2.45387 76.963 2.4827C76.9694 2.51154 76.9698 2.54137 76.9642 2.57037C76.9587 2.59937 76.9473 2.62695 76.9308 2.65141L76.3056 4.01111C76.2778 4.05522 76.2631 4.10628 76.2631 4.15841C76.2631 4.21053 76.2778 4.2616 76.3056 4.30571C76.3826 4.40996 76.4551 4.51873 76.5276 4.6275C76.5549 4.67432 76.595 4.71239 76.6431 4.73727C76.6912 4.76215 76.7454 4.77281 76.7994 4.76801L77.4699 4.74081L78.3398 4.70909C78.3908 4.70444 78.4418 4.71838 78.4835 4.74836C78.5251 4.77833 78.5545 4.82233 78.5663 4.87225C78.7113 5.32549 78.8562 5.77872 79.0193 6.20929C79.0344 6.23724 79.0434 6.26806 79.0459 6.29974C79.0483 6.33141 79.044 6.36324 79.0333 6.39315C79.0226 6.42307 79.0058 6.4504 78.9839 6.47338C78.9619 6.49637 78.9354 6.51448 78.9061 6.52655C78.4893 6.78943 78.0725 7.0523 77.6602 7.31971C77.6176 7.34299 77.5826 7.378 77.5593 7.42057C77.5361 7.46315 77.5255 7.51151 77.5288 7.55992C77.5288 7.72762 77.5288 7.89985 77.5515 8.06754C77.5613 8.13572 77.5895 8.19995 77.633 8.25337C77.6557 8.28963 77.7055 8.30776 77.7463 8.33496L79.0148 9.08279C79.0609 9.10108 79.0988 9.13558 79.1213 9.17979C79.1438 9.22401 79.1494 9.27493 79.1371 9.323L78.7837 10.728C78.7733 10.7715 78.7483 10.8101 78.7128 10.8374C78.6774 10.8646 78.6336 10.8788 78.5889 10.8776H77.0667C77.0156 10.8748 76.9647 10.8871 76.9205 10.9129C76.8762 10.9386 76.8404 10.9768 76.8175 11.0226C76.7224 11.1858 76.6273 11.3535 76.5276 11.5166C76.4988 11.5637 76.4835 11.6178 76.4835 11.673C76.4835 11.7282 76.4988 11.7823 76.5276 11.8294C76.7586 12.2826 76.9806 12.7358 77.2117 13.1891C77.2402 13.2352 77.2509 13.2901 77.2417 13.3436C77.2325 13.397 77.2041 13.4452 77.1618 13.4791L76.1833 14.3856C76.1662 14.4076 76.1448 14.4258 76.1203 14.439C76.0958 14.4522 76.0688 14.4601 76.0411 14.4622C76.0133 14.4644 75.9854 14.4607 75.9592 14.4514C75.933 14.4421 75.909 14.4274 75.8888 14.4083L74.6475 13.6061C74.605 13.5785 74.5554 13.5639 74.5048 13.5639C74.4541 13.5639 74.4046 13.5785 74.3621 13.6061L73.7323 13.9188C73.6858 13.9413 73.6462 13.9759 73.6175 14.0189C73.5888 14.062 73.5721 14.1119 73.5692 14.1635C73.5194 14.6666 73.465 15.1742 73.4107 15.6773C73.4121 15.7261 73.3953 15.7736 73.3634 15.8106C73.3315 15.8475 73.287 15.8711 73.2385 15.8768L72.6768 15.9991L72.2781 16.0444ZM71.671 12.7585C72.593 12.6623 73.4658 12.2948 74.1791 11.7025C74.8925 11.1102 75.4143 10.3197 75.6787 9.43083C75.9431 8.54195 75.9382 7.59461 75.6647 6.70851C75.3911 5.82241 74.8611 5.03732 74.1417 4.45243C73.4223 3.86755 72.5457 3.50912 71.6228 3.42244C70.6998 3.33575 69.7719 3.5247 68.9563 3.96541C68.1406 4.40613 67.4738 5.07882 67.0402 5.89849C66.6066 6.71817 66.4255 7.64805 66.5199 8.57063C66.6512 9.80688 67.2673 10.9406 68.2329 11.7231C69.1985 12.5056 70.4349 12.8731 71.671 12.7449V12.7585Z" fill="#F1B950"/>
    <path d="M84.3697 90.4064C84.5056 87.1386 83.9167 83.8254 81.9052 81.1378C84.261 79.1103 86.5956 77.0692 88.9092 75.0146L87.9533 73.8271C82.0003 78.1736 76.9806 82.2709 71.073 86.6672C70.1941 87.3244 68.4227 88.6569 67.7794 88.9878C67.3084 89.2318 66.7874 89.3636 66.2571 89.373C65.7092 89.3787 65.1762 89.1945 64.7485 88.8518C63.6023 87.9453 60.9339 85.8015 59.9916 84.4328C58.7457 82.289 56.3899 77.8971 56.3899 77.8971L51.4654 69.4353L54.8994 63.2804L55.1395 62.8272L54.7907 62.4555C50.2603 57.9232 48.6248 50.9887 49.993 44.8111C50.0836 44.3307 50.523 43.8276 50.8764 44.2355C57.9212 50.7122 68.5676 52.6747 77.6058 49.6743C76.4913 56.0468 76.6725 64.1778 80.8133 68.139C82.5304 69.7797 85.7107 70.1378 88.2387 68.9594C90.2614 68.0714 92.0912 66.7966 93.6253 65.2066C103.166 55.0179 105.45 39.7259 103.592 32.9636C103.388 32.2488 103.083 31.5667 102.686 30.9377C101.327 28.744 98.6088 27.3118 96.0763 27.0761C91.2469 26.6592 86.1366 31.7172 82.707 36.8161C80.7828 39.9252 79.285 43.279 78.2537 46.7872C78.1585 47.1906 78.0634 47.5759 77.9773 47.9475C69.0615 50.3678 59.4932 48.0971 51.9456 42.9937C51.735 42.8158 51.4897 42.6836 51.2253 42.6056C50.9609 42.5276 50.6832 42.5054 50.4098 42.5404C49.9246 42.6412 49.4826 42.8903 49.145 43.2532C48.8074 43.6161 48.5908 44.075 48.5251 44.5664C48.1957 46.2311 48.0634 47.9288 48.131 49.6245C48.2664 54.499 50.1014 59.1726 53.3183 62.8362L53.5041 63.0447L51.4065 66.5754C50.6318 67.9034 49.9613 69.0591 49.9613 69.0727L49.7483 69.3582L49.9296 69.7843C51.9365 74.4798 54.1202 79.0665 56.3718 83.6441C56.7481 84.4655 57.1685 85.2659 57.6312 86.0418C58.6192 87.4804 59.8448 88.7403 61.2556 89.7673C61.7494 90.1616 62.2341 90.5741 62.7597 90.9321C63.4256 91.3854 64.4948 92.0652 65.2604 92.1423C66.4154 92.3351 67.6017 92.1624 68.6537 91.6482C70.3934 90.7418 73.6779 88.0949 75.173 86.9165C77.7689 84.8769 78.2401 84.3013 80.759 82.153C82.3945 85.2123 82.6708 88.9515 82.7342 92.3689L82.553 94.5263L84.0345 92.9762L102.387 73.8724L101.295 72.8255L84.3697 90.4064ZM80.8994 50.2363C82.222 45.2101 84.5713 40.5125 87.7992 36.4399C90.2728 33.3625 93.3988 31.1371 96.2665 31.5269C97.3276 31.6828 98.3386 32.0812 99.2209 32.6911C100.103 33.3011 100.833 34.1062 101.354 35.044C103.003 38.2166 102.405 43.107 101.187 48.8857C100.049 54.252 95.9132 61.8663 92.2707 65.2384C90.3952 66.9833 88.6102 68.0801 86.9203 68.6013C86.0469 68.9014 85.1031 68.9294 84.2134 68.6818C83.3237 68.4342 82.53 67.9226 81.9369 67.2144C79.0148 63.5523 79.3817 56.3187 80.8994 50.2363Z" fill="#181E3F"/>
</svg>