<svg width="183" height="37" viewBox="0 0 183 37" fill="none" xmlns="http://www.w3.org/2000/svg">
<g clip-path="url(#clip0_21_12)">
<path d="M83.2782 37C83.4406 36.8982 83.6012 36.7946 83.7655 36.6966C85.0977 35.8875 86.2632 34.8307 87.1994 33.583C87.3908 33.3411 87.4896 33.0387 87.4782 32.7302C87.4695 28.1163 87.4695 23.5024 87.4782 18.8885V18.5647H75.3379V18.8274C75.3379 20.0651 75.3379 21.3027 75.3379 22.5404C75.3379 22.779 75.4135 22.8197 75.6295 22.8197C77.8782 22.8197 80.1268 22.8197 82.3754 22.8197H82.6911V23.1305C82.6911 25.5984 82.6911 28.0645 82.6911 30.5305C82.6951 30.7612 82.6089 30.9842 82.4511 31.1521C81.6981 32.0028 80.754 32.6617 79.6966 33.0743C78.6445 33.4907 77.5325 33.7356 76.4031 33.7995C75.0045 33.909 73.6001 33.68 72.3083 33.1316C70.8397 32.5073 69.6051 31.4346 68.7803 30.0662C68.0038 28.8525 67.4807 27.4938 67.2425 26.072C67.0671 25.0385 66.9659 23.9936 66.9397 22.9455C66.9003 19.8153 66.9003 16.6845 66.9397 13.5531C66.9245 11.7864 67.1639 10.0268 67.6505 8.32869C68.0658 6.79491 68.9131 5.41342 70.0911 4.34934C71.0613 3.53753 72.236 3.00944 73.4862 2.82309C74.8282 2.58105 76.2058 2.62201 77.5311 2.94334C78.2975 3.12485 79.0186 3.46219 79.6496 3.93445C80.2806 4.4067 80.8081 5.00381 81.1994 5.68874C81.8474 6.79584 82.2674 8.02188 82.4345 9.29439C82.4751 9.56634 82.5009 9.84014 82.5268 10.1139C82.5379 10.2397 82.584 10.2989 82.7114 10.2989C84.2449 10.2989 85.7785 10.2989 87.312 10.2989C87.4191 10.2989 87.4819 10.273 87.4708 10.1472C87.3819 8.48148 87.0472 6.8381 86.4776 5.27064C85.7085 3.16847 84.2844 1.37033 82.416 0.142443C82.3662 0.110993 82.32 0.0739931 82.2314 0.0110931H90.5003V0.347793C90.5003 12.453 90.5003 24.5587 90.5003 36.6651C90.5003 36.7761 90.5003 36.8871 90.5114 37H83.2782Z" fill="white"/>
<path d="M31.6763 37C31.5323 36.5394 31.3901 36.075 31.2424 35.6218C30.4523 33.1736 29.6609 30.7254 28.8683 28.2773C28.3194 26.5802 27.7692 24.8831 27.2178 23.1861C26.4154 20.7108 25.6154 18.2348 24.8178 15.7583C23.9083 12.9771 23.0067 10.1966 22.1132 7.41665C21.3341 5.00302 20.5563 2.58939 19.7797 0.175754C19.7612 0.127654 19.7612 0.0777042 19.7354 0.0055542H35.1249V0.301554C35.1249 12.445 35.1249 24.5884 35.1249 36.7318C35.1249 36.8206 35.1249 36.9168 35.1249 37H31.6763Z" fill="white"/>
<path d="M0 36.9926C0 36.889 0 36.7835 0 36.6799C0 24.5637 0 12.4456 0 0.325599V-0.00740051H14.4369C14.2615 0.547599 14.0935 1.06745 13.9255 1.5873L10.4345 12.3876L8.62892 17.9764L7.18154 22.4553L4.83692 29.7147L2.51446 36.9112C2.50792 36.9379 2.5036 36.9652 2.50154 36.9926H0Z" fill="white"/>
<path d="M52.3624 37C53.0346 36.6067 53.6859 36.1788 54.3138 35.7179C55.6505 34.6086 56.6481 33.1442 57.192 31.4925C57.5734 30.388 57.8032 29.2366 57.875 28.07C58.0234 26.4662 57.8821 24.8488 57.4578 23.2952C57.0367 21.8 56.2788 20.4215 55.2424 19.2659C54.593 18.5366 53.8167 17.9317 52.9514 17.4806C52.9184 17.4629 52.8869 17.4425 52.8572 17.4196C52.8461 17.4196 52.8443 17.3955 52.8572 17.4048C53.3409 17.0533 53.8357 16.724 54.299 16.354C55.3667 15.4612 56.1556 14.2796 56.5717 12.95C57.0394 11.5568 57.2356 10.0865 57.1495 8.61915C57.1023 6.93284 56.7023 5.27525 55.9754 3.75365C55.2293 2.18712 54.0132 0.893461 52.4972 0.05365L52.3735 0H67.8978C67.4381 0.3552 66.9747 0.6956 66.528 1.0619C65.8198 1.65519 65.2033 2.35032 64.6984 3.12465C63.6542 4.74021 62.9227 6.53824 62.5421 8.4249C62.2273 9.77955 62.0468 11.162 62.003 12.5522C61.9495 15.2551 61.944 17.9598 61.9218 20.6645C61.9218 21.3434 61.907 22.0224 61.9218 22.6995C61.9319 25.1279 62.3231 27.5395 63.0812 29.846C63.7458 31.8548 64.8699 33.68 66.3637 35.1759C67.0241 35.8213 67.7563 36.3886 68.5458 36.8668C68.6037 36.9079 68.6586 36.953 68.7101 37.0018L52.3624 37Z" fill="white"/>
<path d="M7.68555 37C7.99016 35.9973 8.29293 34.9946 8.60862 33.9938C9.06462 32.5138 9.5317 31.0338 9.98586 29.5408C10.1434 29.029 10.2954 28.5159 10.4419 28.0016C10.4461 27.971 10.4564 27.9416 10.4722 27.9151C10.4879 27.8885 10.5087 27.8654 10.5335 27.8469C10.5582 27.8285 10.5863 27.8152 10.6163 27.8078C10.6462 27.8004 10.6772 27.7989 10.7077 27.8037C14.9662 27.8037 19.2246 27.8037 23.4831 27.8037C23.6566 27.8037 23.7028 27.8758 23.7489 28.0238C24.6474 30.9518 25.5502 33.8791 26.4572 36.8058C26.4775 36.8687 26.4886 36.9353 26.5034 37H7.68555Z" fill="white"/>
<path d="M183 7.21129C182.775 7.76516 182.432 8.26281 181.994 8.66909C181.398 9.19547 180.649 9.51588 179.858 9.58299C179.02 9.6864 178.17 9.54776 177.408 9.18339C176.98 8.97919 176.597 8.69088 176.283 8.33557C175.968 7.98027 175.728 7.56522 175.577 7.11509C175.028 5.65495 175.07 4.03775 175.695 2.60849C175.946 2.01049 176.355 1.49186 176.877 1.10755C177.399 0.723246 178.015 0.48757 178.66 0.425492C179.575 0.266378 180.517 0.401051 181.351 0.810292C182.033 1.16264 182.559 1.75602 182.828 2.47529L181.756 2.98034C181.727 2.94049 181.701 2.89843 181.678 2.85454C181.539 2.45736 181.286 2.11001 180.951 1.85574C180.616 1.60146 180.214 1.45149 179.795 1.42449C179.326 1.35174 178.846 1.39626 178.398 1.55407C177.95 1.71189 177.548 1.97813 177.227 2.32914C176.73 2.90168 176.434 3.62177 176.385 4.37894C176.281 5.209 176.385 6.0519 176.686 6.83204C176.856 7.22548 177.112 7.57624 177.433 7.85912C177.755 8.142 178.135 8.34998 178.547 8.46813C178.958 8.58628 179.39 8.61166 179.813 8.54245C180.235 8.47324 180.637 8.31116 180.989 8.06784C181.337 7.79683 181.607 7.43886 181.772 7.02999L181.89 6.75619L182.998 7.16689L183 7.21129Z" fill="white"/>
<path d="M40.0708 19.7913H40.3311C42.6536 19.7913 44.9779 19.7672 47.2985 19.7913C48.0302 19.7781 48.7566 19.9166 49.4323 20.198C50.1081 20.4794 50.7185 20.8977 51.2253 21.4267C51.9527 22.2003 52.4518 23.1609 52.6671 24.2017C53.1369 26.1061 53.073 28.1034 52.4825 29.9737C52.2517 30.7242 51.862 31.4159 51.3402 32.0017C50.8183 32.5876 50.1765 33.0537 49.4585 33.3685C48.7283 33.6924 47.9383 33.8588 47.1397 33.8569C44.8394 33.868 42.5391 33.8569 40.2388 33.8569C40.1871 33.8569 40.1354 33.8568 40.069 33.8457L40.0708 19.7913Z" fill="white"/>
<path d="M40.0707 3.0155H40.3292C42.2658 3.0155 44.2061 3.0155 46.1372 3.0155C47.0802 3.00342 48.0179 3.1594 48.9065 3.47615C49.9395 3.87544 50.7925 4.63749 51.3064 5.6203C51.8105 6.54305 52.099 7.56843 52.1501 8.61915C52.2631 9.8474 52.0696 11.0845 51.5871 12.2193C51.1623 13.3146 50.3819 14.2347 49.3717 14.8315C48.5814 15.258 47.6976 15.4806 46.8 15.4789C44.5957 15.4974 42.3932 15.4789 40.1889 15.4789C40.152 15.4789 40.1151 15.479 40.0615 15.4679L40.0707 3.0155Z" fill="white"/>
<path d="M11.8209 23.5708L17.0382 6.52679H17.0898L22.32 23.5745L11.8209 23.5708Z" fill="white"/>
<path d="M101.692 22.8974V13.9564C101.778 13.9564 101.858 13.9416 101.935 13.9416C102.858 13.9416 103.782 13.9286 104.705 13.9416C105.36 13.9161 106.013 14.0224 106.626 14.2542C107.015 14.4129 107.347 14.6838 107.581 15.0323C107.815 15.3809 107.94 15.7914 107.941 16.2115C107.983 16.535 107.944 16.8638 107.828 17.1685C107.712 17.4732 107.522 17.7444 107.276 17.9579C107.055 18.1173 106.82 18.2578 106.575 18.3779C107.069 18.4997 107.504 18.7943 107.801 19.2085C107.977 19.4718 108.095 19.7693 108.149 20.0816C108.202 20.3939 108.189 20.714 108.111 21.0211C108.033 21.3281 107.891 21.6152 107.695 21.8636C107.498 22.112 107.252 22.3161 106.972 22.4627C106.444 22.7437 105.856 22.8935 105.258 22.8993C104.119 22.9159 102.98 22.8993 101.841 22.8993C101.797 22.8993 101.754 22.8993 101.688 22.89L101.692 22.8974ZM102.796 18.9606V21.9077C103.794 21.8799 104.778 21.9077 105.75 21.8115C105.948 21.8031 106.143 21.7507 106.319 21.658C106.495 21.5653 106.649 21.4347 106.769 21.2756C106.888 21.1164 106.972 20.9326 107.012 20.7374C107.053 20.5422 107.05 20.3404 107.003 20.1465C106.968 19.8272 106.817 19.5321 106.578 19.3172C106.34 19.1023 106.031 18.9827 105.711 18.981C104.749 18.9199 103.782 18.9662 102.801 18.9662L102.796 18.9606ZM102.801 17.8654C102.847 17.8763 102.894 17.8837 102.942 17.8876C103.619 17.8876 104.297 17.9006 104.972 17.8876C105.254 17.8782 105.534 17.8379 105.807 17.7674C106.064 17.7155 106.298 17.5822 106.474 17.3871C106.651 17.1919 106.76 16.9452 106.785 16.6833C106.857 16.4018 106.831 16.104 106.71 15.8396C106.59 15.5753 106.382 15.3605 106.122 15.231C105.787 15.093 105.43 15.0153 105.068 15.0016C104.393 14.9665 103.715 14.9905 103.038 14.9924C102.96 14.9924 102.881 14.9924 102.801 15.0035V17.8654Z" fill="white"/>
<path d="M137.053 21.6136V13.9546H138.076V22.9067C137.633 22.9067 137.197 22.9067 136.761 22.9067C136.697 22.9067 136.625 22.7883 136.577 22.7217C136.006 21.8134 135.443 20.9032 134.874 19.9948C134.278 19.0421 133.667 18.1004 133.086 17.1384C132.766 16.6112 132.491 16.0562 132.196 15.5141C132.151 15.4327 132.103 15.3513 132.05 15.2551V22.9123H131.038C131.038 22.8235 131.027 22.7439 131.027 22.6644C131.027 19.8542 131.027 17.0459 131.027 14.2358C131.027 14.0082 131.084 13.9361 131.313 13.9509C131.609 13.9712 131.91 13.9509 132.205 13.962C132.256 13.9657 132.306 13.98 132.352 14.0038C132.398 14.0277 132.438 14.0607 132.471 14.1007C133.608 15.9082 134.745 17.7156 135.864 19.5342C136.281 20.2113 136.654 20.9161 137.058 21.6284" fill="white"/>
<path d="M157.113 8.16405V0.530949H158.136V9.4609C157.7 9.4609 157.278 9.4609 156.857 9.4609C156.792 9.4609 156.713 9.3684 156.672 9.29995C155.963 8.17268 155.257 7.04418 154.554 5.91445C154.082 5.1578 153.593 4.4104 153.135 3.64265C152.799 3.08765 152.503 2.49565 152.191 1.92215C152.178 1.8981 152.162 1.87405 152.13 1.8204C152.13 2.1904 152.13 2.5271 152.13 2.86195C152.13 2.93595 152.142 3.00995 152.142 3.08395C152.142 5.11895 152.142 7.15395 152.142 9.18895C152.142 9.4128 152.09 9.4979 151.857 9.4757C151.657 9.46303 151.456 9.46303 151.255 9.4757C151.134 9.4757 151.071 9.43315 151.085 9.30735C151.085 9.26295 151.085 9.21855 151.085 9.17415C151.085 6.38682 151.085 3.59948 151.085 0.812149C151.085 0.595699 151.124 0.503199 151.364 0.521699C151.672 0.538407 151.98 0.538407 152.287 0.521699C152.346 0.516375 152.404 0.528684 152.456 0.557039C152.507 0.585394 152.549 0.628498 152.575 0.680799C153.606 2.3347 154.649 3.97935 155.67 5.6388C156.133 6.39175 156.548 7.1743 156.988 7.94205C157.023 8.00495 157.062 8.066 157.126 8.1733" fill="white"/>
<path d="M105.148 32.8837V31.8662H108.99V36.3636C108.748 36.3636 108.498 36.3636 108.251 36.3636C108.214 36.3636 108.161 36.2415 108.159 36.1786C108.148 35.8826 108.159 35.5847 108.159 35.3183C107.954 35.5033 107.758 35.6883 107.55 35.8493C107.026 36.2514 106.39 36.4797 105.731 36.5023C105.003 36.5733 104.268 36.4693 103.588 36.1989C103.085 35.9995 102.633 35.6888 102.267 35.29C101.9 34.8911 101.629 34.4145 101.472 33.8957C100.952 32.4471 101.024 30.8516 101.671 29.4557C101.96 28.8322 102.414 28.3008 102.985 27.9201C103.556 27.5394 104.221 27.3243 104.906 27.2986C105.572 27.2315 106.246 27.2943 106.889 27.4836C107.339 27.6299 107.753 27.8705 108.103 28.1895C108.453 28.5085 108.731 28.8985 108.919 29.3336L107.961 29.8608C107.803 29.6043 107.631 29.3573 107.444 29.1208C107.036 28.6778 106.478 28.4023 105.879 28.3475C105.498 28.2697 105.105 28.2692 104.724 28.3459C104.343 28.4226 103.981 28.5751 103.66 28.7942C103.339 29.0134 103.065 29.2949 102.854 29.622C102.643 29.9491 102.499 30.3153 102.432 30.6989C102.176 31.7326 102.252 32.8209 102.65 33.8087C102.81 34.2171 103.071 34.5776 103.41 34.8558C103.748 35.134 104.152 35.3206 104.583 35.3979C105.291 35.5603 106.032 35.4956 106.702 35.2129C107.143 35.0229 107.507 34.6904 107.737 34.2686C107.967 33.8467 108.049 33.3598 107.97 32.8856L105.148 32.8837Z" fill="white"/>
<path d="M141.801 22.9067V22.6292C141.801 19.8271 141.801 17.0243 141.801 14.2209C141.801 14.0008 141.847 13.9268 142.082 13.9323C142.9 13.9471 143.719 13.9323 144.539 13.9323C145.306 13.9137 146.069 14.0392 146.79 14.3023C147.3 14.4928 147.761 14.7971 148.137 15.1922C148.513 15.5874 148.795 16.0631 148.961 16.5834C149.358 17.7567 149.367 19.0272 148.985 20.2057C148.791 20.8532 148.422 21.434 147.918 21.8833C147.414 22.3325 146.795 22.6324 146.13 22.7494C145.695 22.8408 145.252 22.8885 144.807 22.8919C143.898 22.9122 142.99 22.8919 142.082 22.8919H141.807L141.801 22.9067ZM142.942 15.0109V21.9003C143.821 21.8725 144.689 21.9003 145.54 21.8022C146.093 21.7458 146.615 21.5203 147.037 21.1563C147.458 20.7923 147.757 20.3074 147.894 19.7672C148.097 19.0796 148.143 18.355 148.028 17.6471C147.979 16.9738 147.692 16.3402 147.218 15.8603C146.744 15.3804 146.115 15.0858 145.444 15.0294C144.614 14.9787 143.783 14.9731 142.953 15.0127" fill="white"/>
<path d="M112.331 27.4355C112.364 27.4096 112.37 27.4004 112.375 27.4004C113.537 27.4004 114.696 27.4004 115.857 27.4004C116.431 27.392 116.998 27.5288 117.506 27.7981C117.867 27.98 118.173 28.2543 118.394 28.5932C118.615 28.9321 118.742 29.3235 118.763 29.7276C118.815 30.0907 118.788 30.4608 118.683 30.8123C118.578 31.1637 118.398 31.488 118.156 31.7626C117.862 32.0713 117.499 32.3047 117.096 32.4435L116.823 32.5434L119.315 36.334C119.261 36.3493 119.206 36.3604 119.151 36.3673C119.009 36.3673 118.868 36.3673 118.726 36.3673C117.999 36.3673 118.003 36.3673 117.607 35.7568C116.963 34.7701 116.313 33.7835 115.66 32.7968C115.623 32.7432 115.554 32.6729 115.501 32.6729C114.825 32.6729 114.15 32.6729 113.448 32.6729V36.3729C113.092 36.3729 112.761 36.3729 112.429 36.3729C112.398 36.3729 112.35 36.3155 112.338 36.2767C112.33 36.2153 112.33 36.153 112.338 36.0917V27.4355H112.331ZM113.465 28.4474V31.5925C113.49 31.6037 113.517 31.6118 113.544 31.6165C114.421 31.6165 115.302 31.6313 116.175 31.5776C116.358 31.5848 116.541 31.5558 116.713 31.4922C116.885 31.4286 117.042 31.3316 117.177 31.2069C117.312 31.0822 117.42 30.9321 117.497 30.7653C117.574 30.5984 117.617 30.4181 117.624 30.2345C117.696 29.2614 117.295 28.6843 116.5 28.5344C116.038 28.4686 115.571 28.4395 115.104 28.4474C114.561 28.4345 114.02 28.4474 113.465 28.4474" fill="white"/>
<path d="M118.374 22.9067C117.932 22.9067 117.541 22.9067 117.15 22.9067C117.061 22.8837 116.985 22.8264 116.939 22.7476C116.306 21.793 115.68 20.8347 115.05 19.8764C114.984 19.7958 114.926 19.7091 114.877 19.6174C114.819 19.4658 114.709 19.3403 114.566 19.2644C114.423 19.1885 114.257 19.1673 114.1 19.2048C113.575 19.2381 113.047 19.2048 112.493 19.2048V22.8937H111.399V13.9508C111.478 13.9508 111.558 13.9397 111.637 13.9397C112.626 13.9397 113.616 13.9397 114.607 13.9397C115.264 13.9091 115.917 14.0432 116.509 14.3301C116.99 14.578 117.377 14.9771 117.61 15.4662C117.844 15.9553 117.911 16.5076 117.801 17.0385C117.732 17.4905 117.538 17.9139 117.24 18.2603C116.942 18.6068 116.553 18.8623 116.118 18.9976C116.044 19.0254 115.968 19.0495 115.861 19.0865L118.385 22.9048L118.374 22.9067ZM112.51 18.1263C113.466 18.1263 114.404 18.1633 115.338 18.1133C115.622 18.1161 115.899 18.0239 116.125 17.8514C116.35 17.6788 116.512 17.4357 116.585 17.1606C116.702 16.8636 116.729 16.5387 116.663 16.2263C116.598 15.9138 116.442 15.6276 116.215 15.4031C115.87 15.1091 115.425 14.9605 114.973 14.9887C114.214 14.9887 113.454 14.9887 112.695 14.9887C112.638 14.9887 112.58 14.9998 112.51 15.0053V18.1263Z" fill="white"/>
<path d="M121.562 31.8644C121.538 30.9446 121.751 30.0341 122.18 29.2208C122.487 28.659 122.932 28.1855 123.474 27.8454C124.015 27.5054 124.634 27.3101 125.273 27.2782C126.224 27.1589 127.189 27.3635 128.01 27.8592C128.465 28.1461 128.854 28.5245 129.155 28.9704C129.456 29.4162 129.661 29.9198 129.757 30.4492C130.025 31.5709 129.972 32.7459 129.602 33.8383C129.384 34.5578 128.954 35.1939 128.367 35.6618C127.779 36.1298 127.064 36.4075 126.316 36.4579C125.486 36.5733 124.641 36.4555 123.875 36.1175C123.36 35.8863 122.906 35.5394 122.547 35.1037C122.187 34.668 121.933 34.1553 121.804 33.6052C121.65 33.0502 121.599 32.4545 121.503 31.8773L121.562 31.8663V31.8644ZM128.762 31.8959C128.734 31.5851 128.727 31.2706 128.675 30.9709C128.63 30.5178 128.484 30.0807 128.248 29.6915C128.012 29.3023 127.693 28.9707 127.313 28.7212C126.791 28.4112 126.186 28.2697 125.581 28.3161C125.087 28.3123 124.601 28.4479 124.18 28.7073C123.759 28.9667 123.419 29.3395 123.199 29.7832C122.77 30.6584 122.623 31.6455 122.778 32.6081C122.794 33.3241 123.071 34.0096 123.557 34.5349C124.042 35.0603 124.703 35.389 125.415 35.4589C125.903 35.5327 126.403 35.4742 126.861 35.2895C127.319 35.1047 127.72 34.8004 128.022 34.4082C128.538 33.6781 128.797 32.7971 128.76 31.9032" fill="white"/>
<path d="M151.619 21.0992L152.553 20.3407C152.596 20.4036 152.631 20.4462 152.658 20.4961C152.876 20.9279 153.204 21.2936 153.61 21.5554C154.016 21.8173 154.484 21.9657 154.966 21.9854C155.588 22.0671 156.221 21.9999 156.812 21.7893C157.037 21.7174 157.239 21.5873 157.397 21.4123C157.556 21.2372 157.665 21.0233 157.715 20.7921C157.75 20.653 157.757 20.5084 157.735 20.3667C157.714 20.2249 157.664 20.0888 157.59 19.9663C157.515 19.8438 157.418 19.7373 157.302 19.653C157.186 19.5686 157.055 19.5081 156.916 19.4749C156.295 19.2566 155.64 19.1401 155.005 18.9643C154.414 18.824 153.832 18.6461 153.264 18.4315C152.933 18.2847 152.644 18.0584 152.422 17.7727C152.199 17.487 152.051 17.1507 151.989 16.7936C151.928 16.4366 151.955 16.0699 152.069 15.726C152.183 15.3821 152.38 15.0716 152.642 14.8222C153.183 14.2814 153.894 13.9431 154.654 13.8639C155.569 13.712 156.509 13.8497 157.342 14.2579C157.978 14.5769 158.491 15.0971 158.802 15.738L157.865 16.4983L157.608 16.0413C157.417 15.6749 157.126 15.3706 156.768 15.1642C156.411 14.9578 156.002 14.8577 155.59 14.8758C155.168 14.8792 154.747 14.922 154.333 15.0035C154.03 15.0579 153.753 15.2055 153.538 15.4257C153.323 15.6459 153.182 15.9277 153.135 16.2319C153.102 16.45 153.137 16.6728 153.233 16.871C153.33 17.0691 153.484 17.2333 153.676 17.3419C154.313 17.6597 155 17.8667 155.706 17.9542C156.374 18.0609 157.026 18.2549 157.643 18.5314C158.119 18.7366 158.501 19.1126 158.715 19.5856C158.928 20.0587 158.957 20.5946 158.797 21.0881C158.699 21.494 158.493 21.8654 158.2 22.1624C157.907 22.4594 157.539 22.6707 157.135 22.7735C155.883 23.2185 154.508 23.1723 153.288 22.644C152.582 22.3268 151.999 21.7877 151.627 21.1085" fill="white"/>
<path d="M142.702 1.5355V4.38635H146.736V5.4464H142.711V8.4249H148.087V9.4609H147.818C145.837 9.4609 143.856 9.4609 141.875 9.4609C141.654 9.4609 141.587 9.41095 141.589 9.17785C141.598 6.37448 141.598 3.57112 141.589 0.76775C141.589 0.54575 141.657 0.499499 141.866 0.501349C143.795 0.508749 145.723 0.508749 147.652 0.501349C147.849 0.501349 147.934 0.5439 147.918 0.7585C147.899 1.00085 147.918 1.2469 147.918 1.5207L142.702 1.5355Z" fill="white"/>
<path d="M131.897 0.514293V4.38449H136.741V4.10884C136.741 2.99884 136.741 1.88884 136.741 0.778843C136.741 0.558693 136.807 0.495793 137.018 0.510593C137.291 0.527243 137.572 0.510593 137.852 0.510593V9.45719C137.511 9.45719 137.173 9.45719 136.835 9.44794C136.802 9.44794 136.75 9.30919 136.75 9.23519C136.75 8.08819 136.75 6.93934 136.75 5.79234C136.75 5.68874 136.75 5.58699 136.75 5.46859H131.897V5.73314C131.897 6.89494 131.897 8.05859 131.897 9.22039C131.897 9.40539 131.854 9.47754 131.662 9.46459C131.469 9.44862 131.275 9.44862 131.082 9.46459C130.863 9.48494 130.791 9.41834 130.793 9.18339C130.804 7.55909 130.793 5.93479 130.793 4.31049C130.793 3.12649 130.793 1.94064 130.793 0.756643C130.793 0.556843 130.85 0.497643 131.046 0.508743C131.319 0.525393 131.599 0.508743 131.893 0.508743" fill="white"/>
<path d="M128.394 22.9067C128.025 22.9067 127.68 22.9159 127.333 22.9067C127.27 22.9067 127.191 22.7938 127.159 22.7217C126.886 22.0298 126.617 21.3379 126.358 20.6404C126.343 20.5765 126.305 20.5205 126.25 20.4838C126.196 20.4471 126.129 20.4324 126.065 20.4425C124.858 20.4425 123.653 20.4425 122.448 20.4425C122.38 20.4337 122.31 20.4514 122.254 20.492C122.199 20.5325 122.16 20.5929 122.147 20.6608C121.896 21.3527 121.626 22.0372 121.372 22.7291C121.357 22.7929 121.319 22.8488 121.265 22.885C121.21 22.9212 121.144 22.9349 121.08 22.9233C120.775 22.9104 120.471 22.9233 120.126 22.9233C120.234 22.6347 120.334 22.3683 120.438 22.1038C121.47 19.4583 122.502 16.8128 123.534 14.1673C123.594 14.0119 123.661 13.9434 123.834 13.9527C124.132 13.9675 124.431 13.9638 124.728 13.9527C124.786 13.9446 124.845 13.9592 124.893 13.9937C124.941 14.0281 124.974 14.0797 124.985 14.1377C125.673 15.9118 126.367 17.6823 127.058 19.4546C127.492 20.5646 127.923 21.6814 128.35 22.8049C128.363 22.8382 128.372 22.8734 128.391 22.9289L128.394 22.9067ZM124.25 15.1145L122.644 19.4194H125.86L124.25 15.1145Z" fill="white"/>
<path d="M108.847 9.46091C108.465 9.46091 108.109 9.47016 107.769 9.46091C107.706 9.46091 107.625 9.34806 107.596 9.27591C107.325 8.58401 107.061 7.88902 106.804 7.19096C106.789 7.12763 106.752 7.07203 106.699 7.03532C106.645 6.9986 106.58 6.98349 106.516 6.99301C105.303 7.00041 104.091 7.00041 102.877 6.99301C102.817 6.98455 102.757 6.99888 102.707 7.03315C102.658 7.06742 102.623 7.11913 102.609 7.17801C102.349 7.87361 102.074 8.56551 101.815 9.26111C101.802 9.32943 101.762 9.38979 101.705 9.42973C101.648 9.46966 101.578 9.48612 101.509 9.47571C101.214 9.46276 100.916 9.47571 100.577 9.47571C100.652 9.27406 100.713 9.10571 100.778 8.93551C101.85 6.19381 102.921 3.45211 103.992 0.710407C104.006 0.650136 104.043 0.597502 104.094 0.563156C104.145 0.528811 104.208 0.515317 104.269 0.525407C104.551 0.525407 104.836 0.542057 105.116 0.525407C105.195 0.511174 105.277 0.528329 105.343 0.573232C105.41 0.618135 105.456 0.68725 105.473 0.765907C105.986 2.09791 106.508 3.42436 107.025 4.75451C107.615 6.27151 108.202 7.78974 108.786 9.30921C108.801 9.34991 108.816 9.39061 108.847 9.47941V9.46091ZM106.309 5.93481L104.697 1.63911L103.104 5.93481H106.309Z" fill="white"/>
<path d="M133.008 27.4022H134.116V27.6649C134.116 29.3429 134.103 31.0189 134.116 32.695C134.122 33.1547 134.184 33.6119 134.3 34.0566C134.384 34.392 134.562 34.6959 134.815 34.9314C135.067 35.1668 135.382 35.3238 135.722 35.3831C136.274 35.5137 136.85 35.5093 137.4 35.3701C137.781 35.2857 138.126 35.0838 138.387 34.7929C138.648 34.5019 138.812 34.1364 138.855 33.7477C138.919 33.3967 138.952 33.0408 138.955 32.684C138.966 31.019 138.955 29.3539 138.955 27.676V27.4003H140.062V27.6075C140.062 29.4779 140.062 31.3483 140.062 33.2186C140.065 33.7562 139.956 34.2885 139.743 34.7819C139.591 35.1407 139.362 35.461 139.071 35.7194C138.78 35.9777 138.435 36.1675 138.061 36.2748C137.09 36.5831 136.049 36.5876 135.076 36.2877C134.539 36.136 134.06 35.8251 133.702 35.396C133.344 34.9668 133.124 34.4394 133.071 33.8828C133.026 33.5765 133.005 33.2673 133.008 32.9578C133.008 31.2058 133.008 29.4557 133.008 27.7037V27.4078" fill="white"/>
<path d="M111.076 0.529106H112.183V0.804756C112.183 2.45126 112.183 4.09776 112.183 5.74426C112.185 6.10076 112.216 6.45652 112.276 6.80801C112.319 7.25561 112.52 7.67311 112.843 7.98544C113.166 8.29777 113.589 8.48443 114.037 8.51186C114.467 8.5657 114.902 8.55885 115.329 8.49151C115.773 8.42728 116.18 8.20989 116.481 7.87686C116.781 7.54383 116.957 7.11607 116.976 6.66741C117.021 6.36608 117.044 6.06187 117.044 5.75721C117.05 4.09591 117.05 2.43399 117.044 0.771456C117.044 0.573506 117.087 0.490256 117.301 0.505056C117.572 0.523556 117.855 0.505056 118.145 0.505056V0.786256C118.145 2.62701 118.145 4.46776 118.145 6.30851C118.156 6.97478 117.983 7.63118 117.644 8.20476C117.429 8.54986 117.142 8.84426 116.803 9.06779C116.463 9.29131 116.08 9.43866 115.678 9.49976C114.868 9.6722 114.028 9.64555 113.23 9.42206C112.697 9.28748 112.215 8.99671 111.847 8.58682C111.479 8.17693 111.242 7.66651 111.164 7.12066C111.102 6.76214 111.071 6.39868 111.074 6.03471C111.074 4.29201 111.074 2.54746 111.074 0.804756V0.529106" fill="white"/>
<path d="M144.809 32.8782V36.3599C144.461 36.3599 144.129 36.3599 143.799 36.3599C143.764 36.3599 143.718 36.2914 143.701 36.2452C143.692 36.1938 143.692 36.1412 143.701 36.0898V27.404C143.79 27.404 143.852 27.3911 143.919 27.3911C144.886 27.3911 145.854 27.38 146.821 27.3911C147.638 27.3487 148.443 27.6125 149.077 28.1311C149.502 28.4998 149.782 29.0081 149.867 29.5648C149.968 30.0057 149.957 30.465 149.835 30.9004C149.713 31.3359 149.483 31.7335 149.167 32.0568C148.716 32.5115 148.113 32.7847 147.474 32.8245C146.756 32.8763 146.034 32.8634 145.313 32.8763C145.157 32.8763 145.001 32.8763 144.814 32.8763L144.809 32.8782ZM144.825 28.4049C144.825 28.5325 144.812 28.5899 144.812 28.6491C144.812 29.6388 144.812 30.6286 144.812 31.6183C144.812 31.8163 144.884 31.8533 145.058 31.8477C145.726 31.8311 146.396 31.8477 147.063 31.8126C148.026 31.7552 148.724 31.3242 148.758 30.2234C148.782 29.4446 148.551 28.7101 147.541 28.5584C146.641 28.461 145.736 28.4116 144.831 28.4104" fill="white"/>
<path d="M160.854 1.5355C160.854 1.2136 160.854 0.9176 160.854 0.62345C160.854 0.58645 160.92 0.53835 160.964 0.5217C161.016 0.512603 161.068 0.512603 161.119 0.5217H167.908C168.192 0.5217 168.192 0.5217 168.192 0.8177V1.5355H165.083C165.083 1.65575 165.068 1.74825 165.068 1.84075C165.068 4.28522 165.068 6.72907 165.068 9.1723C165.068 9.47015 165.068 9.47015 164.762 9.47015H163.974V9.15565C163.974 6.7044 163.974 4.25315 163.974 1.80005C163.974 1.5836 163.913 1.52625 163.7 1.5281C162.836 1.5392 161.974 1.5281 161.116 1.5281L160.854 1.5355Z" fill="white"/>
<path d="M123.895 1.53366H120.735C120.735 1.21546 120.735 0.919455 120.735 0.623455C120.735 0.584605 120.796 0.532805 120.84 0.516155C120.901 0.505805 120.964 0.505805 121.025 0.516155H128.075V1.52625H124.981V9.44425H123.897L123.895 1.53366Z" fill="white"/>
<path d="M170.915 0.529099H172.023V9.17045C172.023 9.4609 172.023 9.4609 171.731 9.46275H170.917L170.915 0.529099Z" fill="white"/>
</g>
<defs>
<clipPath id="clip0_21_12">
<rect width="183" height="37" fill="white"/>
</clipPath>
</defs>
</svg>
